G04 ================== begin FILE IDENTIFICATION RECORD ==================*
G04 Layout Name:  Beamforming_PCB_Ver1_0_1.brd*
G04 Film Name:    BOTTOM*
G04 File Format:  Gerber RS274X*
G04 File Origin:  Cadence Allegro 16.6-2015-S066*
G04 Origin Date:  Thu Mar 18 00:04:29 2021*
G04 *
G04 Layer:  ETCH/BOTTOM*
G04 Layer:  PIN/BOTTOM*
G04 Layer:  VIA CLASS/BOTTOM*
G04 *
G04 Offset:    (0.00 0.00)*
G04 Mirror:    No*
G04 Mode:      Positive*
G04 Rotation:  0*
G04 FullContactRelief:  No*
G04 UndefLineWidth:     0.00*
G04 ================== end FILE IDENTIFICATION RECORD ====================*
%FSLAX25Y25*MOIN*%
%IR0*IPPOS*OFA0.00000B0.00000*MIA0B0*SFA1.00000B1.00000*%
%AMMACRO14*
4,1,44,.00984,-.0187,
-.00984,-.0187,
-.010524,-.018641,
-.011187,-.018464,
-.011809,-.018174,
-.012371,-.017781,
-.012857,-.017296,
-.013251,-.016734,
-.013542,-.016113,
-.01372,-.01545,
-.01378,-.014766,
-.01378,-.01476,
-.01378,.01476,
-.013721,.015444,
-.013544,.016107,
-.013254,.016729,
-.012861,.017291,
-.012376,.017777,
-.011814,.018171,
-.011193,.018462,
-.01053,.01864,
-.009846,.0187,
-.00984,.0187,
.00984,.0187,
.010524,.018641,
.011187,.018464,
.011809,.018174,
.012371,.017781,
.012857,.017296,
.013251,.016734,
.013542,.016113,
.01372,.01545,
.01378,.014766,
.01378,.01476,
.01378,-.01476,
.013721,-.015444,
.013544,-.016107,
.013254,-.016729,
.012861,-.017291,
.012376,-.017777,
.011814,-.018171,
.011193,-.018462,
.01053,-.01864,
.009846,-.0187,
.00984,-.0187,
0.0*
%
%ADD14MACRO14*%
%ADD10C,.02362*%
%ADD18C,.05906*%
%ADD12C,.02756*%
%ADD20C,.03937*%
%ADD11C,.07874*%
%ADD19R,.05906X.05906*%
%AMMACRO17*
4,1,40,-.0185,-.00787,
-.0185,.00787,
-.018441,.008553,
-.018264,.009216,
-.017975,.009838,
-.017582,.010401,
-.017098,.010886,
-.016536,.01128,
-.015915,.011571,
-.015253,.011749,
-.01457,.01181,
.01457,.01181,
.015253,.011749,
.015916,.011571,
.016537,.01128,
.017098,.010886,
.017583,.0104,
.017975,.009838,
.018264,.009216,
.018441,.008553,
.0185,.00787,
.0185,-.00787,
.018441,-.008553,
.018264,-.009216,
.017975,-.009838,
.017582,-.010401,
.017098,-.010886,
.016536,-.01128,
.015915,-.011571,
.015253,-.011749,
.01457,-.01181,
-.01457,-.01181,
-.015253,-.011749,
-.015916,-.011571,
-.016537,-.01128,
-.017098,-.010886,
-.017583,-.0104,
-.017975,-.009838,
-.018264,-.009216,
-.018441,-.008553,
-.0185,-.00787,
0.0*
%
%ADD17MACRO17*%
%AMMACRO15*
4,1,44,-.0187,-.00984,
-.0187,.00984,
-.018641,.010524,
-.018464,.011187,
-.018174,.011809,
-.017781,.012371,
-.017296,.012857,
-.016734,.013251,
-.016113,.013542,
-.01545,.01372,
-.014766,.01378,
-.01476,.01378,
.01476,.01378,
.015444,.013721,
.016107,.013544,
.016729,.013254,
.017291,.012861,
.017777,.012376,
.018171,.011814,
.018462,.011193,
.01864,.01053,
.0187,.009846,
.0187,.00984,
.0187,-.00984,
.018641,-.010524,
.018464,-.011187,
.018174,-.011809,
.017781,-.012371,
.017296,-.012857,
.016734,-.013251,
.016113,-.013542,
.01545,-.01372,
.014766,-.01378,
.01476,-.01378,
-.01476,-.01378,
-.015444,-.013721,
-.016107,-.013544,
-.016729,-.013254,
-.017291,-.012861,
-.017777,-.012376,
-.018171,-.011814,
-.018462,-.011193,
-.01864,-.01053,
-.0187,-.009846,
-.0187,-.00984,
0.0*
%
%ADD15MACRO15*%
%AMMACRO13*
4,1,44,-.00984,.0187,
.00984,.0187,
.010524,.018641,
.011187,.018464,
.011809,.018174,
.012371,.017781,
.012857,.017296,
.013251,.016734,
.013542,.016113,
.01372,.01545,
.01378,.014766,
.01378,.01476,
.01378,-.01476,
.013721,-.015444,
.013544,-.016107,
.013254,-.016729,
.012861,-.017291,
.012376,-.017777,
.011814,-.018171,
.011193,-.018462,
.01053,-.01864,
.009846,-.0187,
.00984,-.0187,
-.00984,-.0187,
-.010524,-.018641,
-.011187,-.018464,
-.011809,-.018174,
-.012371,-.017781,
-.012857,-.017296,
-.013251,-.016734,
-.013542,-.016113,
-.01372,-.01545,
-.01378,-.014766,
-.01378,-.01476,
-.01378,.01476,
-.013721,.015444,
-.013544,.016107,
-.013254,.016729,
-.012861,.017291,
-.012376,.017777,
-.011814,.018171,
-.011193,.018462,
-.01053,.01864,
-.009846,.0187,
-.00984,.0187,
0.0*
%
%ADD13MACRO13*%
%AMMACRO21*
4,1,40,.0185,.00787,
.0185,-.00787,
.018441,-.008553,
.018264,-.009216,
.017975,-.009838,
.017582,-.010401,
.017098,-.010886,
.016536,-.01128,
.015915,-.011571,
.015253,-.011749,
.01457,-.01181,
-.01457,-.01181,
-.015253,-.011749,
-.015916,-.011571,
-.016537,-.01128,
-.017098,-.010886,
-.017583,-.0104,
-.017975,-.009838,
-.018264,-.009216,
-.018441,-.008553,
-.0185,-.00787,
-.0185,.00787,
-.018441,.008553,
-.018264,.009216,
-.017975,.009838,
-.017582,.010401,
-.017098,.010886,
-.016536,.01128,
-.015915,.011571,
-.015253,.011749,
-.01457,.01181,
.01457,.01181,
.015253,.011749,
.015916,.011571,
.016537,.01128,
.017098,.010886,
.017583,.0104,
.017975,.009838,
.018264,.009216,
.018441,.008553,
.0185,.00787,
0.0*
%
%ADD21MACRO21*%
%AMMACRO16*
4,1,44,.0187,.00984,
.0187,-.00984,
.018641,-.010524,
.018464,-.011187,
.018174,-.011809,
.017781,-.012371,
.017296,-.012857,
.016734,-.013251,
.016113,-.013542,
.01545,-.01372,
.014766,-.01378,
.01476,-.01378,
-.01476,-.01378,
-.015444,-.013721,
-.016107,-.013544,
-.016729,-.013254,
-.017291,-.012861,
-.017777,-.012376,
-.018171,-.011814,
-.018462,-.011193,
-.01864,-.01053,
-.0187,-.009846,
-.0187,-.00984,
-.0187,.00984,
-.018641,.010524,
-.018464,.011187,
-.018174,.011809,
-.017781,.012371,
-.017296,.012857,
-.016734,.013251,
-.016113,.013542,
-.01545,.01372,
-.014766,.01378,
-.01476,.01378,
.01476,.01378,
.015444,.013721,
.016107,.013544,
.016729,.013254,
.017291,.012861,
.017777,.012376,
.018171,.011814,
.018462,.011193,
.01864,.01053,
.0187,.009846,
.0187,.00984,
0.0*
%
%ADD16MACRO16*%
%ADD22C,.01*%
%ADD23C,.02*%
%ADD24C,.03*%
%ADD25C,.05*%
%ADD26C,.015*%
%ADD27C,.025*%
%ADD28C,.005*%
%ADD29C,.0691*%
%ADD33C,.04752*%
%ADD34C,.07508*%
%ADD32C,.09476*%
%ADD31R,.14604X.91104*%
%ADD35R,.07604X.09604*%
%ADD30R,.06908X.06908*%
G75*
%LPD*%
G75*
G36*
G01X129403Y25501D02*
G03X129615Y25685I-1203J1600D01*
G01X132752Y28821D01*
Y32000D01*
G03X132644Y32648I-2002J-1D01*
G01X132630Y32688D01*
Y33477D01*
G03X131735Y34372I-896J-1D01*
G01X129765D01*
G03X128870Y33477I1J-896D01*
G01Y32688D01*
X128856Y32648D01*
G03X128748Y32000I1894J-649D01*
G01Y30479D01*
X126785Y28515D01*
G03X126997Y25501I1415J-1415D01*
G02X126697Y24601I-300J-400D01*
G01X4200D01*
X4001Y24800D01*
Y389700D01*
X16058D01*
G02X16329Y388780I0J-500D01*
G03X21471I2571J-3980D01*
G02X21742Y389700I271J420D01*
G01X371958D01*
G02X372229Y388780I0J-500D01*
G03X377371I2571J-3980D01*
G02X377642Y389700I271J420D01*
G01X389700D01*
Y26101D01*
X388200Y24601D01*
X129703D01*
G02X129403Y25501I0J500D01*
G37*
%LPC*%
G75*
G36*
G01X212923Y271133D02*
G03X212569Y271125I-173J-180D01*
G02X207398Y273200I-2169J2075D01*
G01Y284154D01*
X207299Y288532D01*
G02Y288642I3001J55D01*
G02X207300Y288691I3001J-37D01*
G01X207400Y291991D01*
G02X209406Y294732I3000J-91D01*
G02X212200Y294302I994J-2832D01*
G01X214443D01*
X218002Y290743D01*
Y273300D01*
G02X212923Y271133I-3002J0D01*
G37*
G36*
G01X336435Y301728D02*
X334465D01*
G02X333570Y302623I1J896D01*
G01Y305577D01*
G02X333948Y306307I895J-1D01*
G01Y306390D01*
G02X336952I1502J760D01*
G01Y306307D01*
G02X337263Y305914I-518J-730D01*
G03X337534Y305762I231J95D01*
G02Y302438I266J-1662D01*
G03X337263Y302286I-40J-247D01*
G02X336435Y301728I-829J337D01*
G37*
G36*
G01X343748Y289361D02*
Y289493D01*
G02X343370Y290223I517J731D01*
G01Y293177D01*
G02X343748Y293907I895J-1D01*
G01Y294188D01*
X343725Y294238D01*
G02X343755Y295723I1525J712D01*
G03X343400Y296444I-444J229D01*
G02X343294Y296467I304J1655D01*
G03X342729Y296212I-121J-485D01*
G02X341935Y295728I-795J411D01*
G01X339965D01*
G02X339070Y296623I1J896D01*
G01Y299577D01*
G02X339448Y300307I895J-1D01*
G01Y300889D01*
X339425Y300939D01*
G02X342475I1525J712D01*
G01X342452Y300889D01*
Y300307D01*
G02X342729Y299988I-518J-730D01*
G03X343294Y299733I444J230D01*
G02X345195Y297327I406J-1633D01*
G03X345550Y296606I444J-229D01*
G02X346775Y294238I-300J-1656D01*
G01X346752Y294188D01*
Y293907D01*
G02X347075Y293484I-518J-730D01*
G03X347373Y293328I235J86D01*
G02Y290072I427J-1628D01*
G03X347075Y289916I-63J-242D01*
G02X346752Y289493I-841J307D01*
G01Y289361D01*
G02X343748I-1502J-761D01*
G37*
G36*
G01X40702Y313602D02*
X76802D01*
Y301098D01*
X40702D01*
Y293998D01*
X23898D01*
Y317002D01*
X40702D01*
Y313602D01*
G37*
G36*
G01X352753Y324747D02*
G03X352599Y325031I-244J51D01*
G02X352198Y325342I326J834D01*
G02Y328358I-748J1508D01*
G02X352923Y328730I726J-523D01*
G01X355877D01*
G02X356551Y328423I-1J-895D01*
G02Y325277I599J-1573D01*
G02X356201Y325031I-675J588D01*
G03X356047Y324747I90J-233D01*
G02X352753I-1647J-347D01*
G37*
G36*
G01X325466Y300101D02*
X325499Y300238D01*
X320989Y304748D01*
X307406D01*
G02Y306252I-1506J752D01*
G01X321611D01*
X326562Y301301D01*
X326699Y301334D01*
G02X325466Y300101I401J-1634D01*
G37*
G36*
G01X86894Y296848D02*
X80906D01*
G02Y298352I-1506J752D01*
G01X86894D01*
G02Y296848I1506J-752D01*
G37*
G36*
G01X318666Y292901D02*
X318699Y293038D01*
X316089Y295648D01*
X307606D01*
G02Y297152I-1506J752D01*
G01X316711D01*
X319762Y294101D01*
X319899Y294134D01*
G02X318666Y292901I401J-1634D01*
G37*
G36*
G01X190784Y303361D02*
Y286578D01*
X191135Y286228D01*
X191935D01*
X192662Y285501D01*
X192799Y285534D01*
G02X191566Y284301I401J-1634D01*
G01X191599Y284438D01*
X191313Y284724D01*
X190513D01*
X189281Y285956D01*
Y303361D01*
G02X190784I752J1506D01*
G37*
G36*
G01X328917Y282099D02*
Y282348D01*
X325813D01*
X324933Y281468D01*
X321786D01*
G02Y282972I-1506J752D01*
G01X324311D01*
X325191Y283852D01*
X329911D01*
X330062Y283701D01*
X330199Y283734D01*
G02X328917Y282099I401J-1634D01*
G37*
G36*
G01X145751Y275448D02*
X136296D01*
X136260Y275437D01*
G02X135080I-590J1913D01*
G01X135044Y275448D01*
X130500D01*
G02X130081Y275493I3J2002D01*
G01X130055Y275498D01*
X126949D01*
G02Y279502I0J2002D01*
G01X131279D01*
X131329Y279452D01*
X134218D01*
G03X134717Y279963I-1J500D01*
G02X138083I1683J37D01*
G03X138582Y279452I500J-11D01*
G01X145751D01*
G02Y275448I0J-2002D01*
G37*
G36*
G01X105877Y275470D02*
X105089D01*
X105050Y275457D01*
G02X103750I-650J1893D01*
G01X103711Y275470D01*
X102923D01*
G02X102028Y276365I1J896D01*
G01Y278335D01*
G02X102398Y279059I895J-1D01*
G01Y280000D01*
G02X106401I2001J0D01*
G01Y279059D01*
G02X106772Y278335I-524J-726D01*
G01Y276365D01*
G02X105877Y275470I-896J1D01*
G37*
G36*
G01X338594Y275848D02*
X332205D01*
G02Y277352I-1506J752D01*
G01X338594D01*
G02Y275848I1506J-752D01*
G37*
G36*
G01X311194Y275248D02*
X305806D01*
G02Y276752I-1506J752D01*
G01X311194D01*
G02Y275248I1506J-752D01*
G37*
G36*
G01X118002Y274658D02*
Y268424D01*
G03X118545Y267926I500J0D01*
G02X118623Y267930I85J-891D01*
G01X121577D01*
G02X122472Y267035I-1J-896D01*
G01Y265065D01*
G02X121577Y264170I-896J1D01*
G01X118623D01*
G02X117893Y264548I1J895D01*
G01X116762D01*
X116718Y264532D01*
G02X113998Y266400I-719J1868D01*
G01Y280662D01*
G02X117415Y282077I2001J0D01*
G01X118252Y281241D01*
Y276600D01*
G02X118143Y275950I-2002J2D01*
G01X118130Y275911D01*
Y275123D01*
G02X118029Y274712I-895J2D01*
G01X118002Y274658D01*
G37*
G36*
G01X135973Y264648D02*
X133407D01*
G02X132677Y264270I-731J517D01*
G01X129723D01*
G02X128828Y265165I1J896D01*
G01Y267135D01*
G02X129723Y268030I896J-1D01*
G01X132677D01*
G02X133407Y267652I-1J-895D01*
G01X137472D01*
X137723Y267401D01*
X137775Y267382D01*
G02X135973Y264648I-575J-1582D01*
G37*
G36*
G01X163702Y268166D02*
Y267768D01*
G03X163945Y267518I250J0D01*
G02X164612Y267361I-44J-1682D01*
G01X164662Y267338D01*
X166683D01*
G02X167423Y267730I741J-504D01*
G01X170377D01*
G02X171272Y266835I-1J-896D01*
G01Y264865D01*
G02X170377Y263970I-896J1D01*
G01X167423D01*
G02X166703Y264334I1J895D01*
G01X164662D01*
X164612Y264311D01*
G02X163188I-712J1525D01*
G01X163138Y264334D01*
X150962D01*
X150912Y264311D01*
G02Y267361I-712J1525D01*
G01X150962Y267338D01*
X156498D01*
Y279002D01*
X160420D01*
G02X163380I1480J-802D01*
G01X163702D01*
Y273252D01*
X164300D01*
G02Y271748I0J-752D01*
G01X163702D01*
Y270032D01*
G02X163738Y268225I-1402J-932D01*
G01X163702Y268166D01*
G37*
G36*
G01X252542Y264600D02*
X232340D01*
G02Y266102I-1506J751D01*
G01X252542D01*
G02Y264600I1506J-751D01*
G37*
G36*
G01X248953Y261450D02*
X228932D01*
G02Y262952I-1506J751D01*
G01X248953D01*
G02Y261450I1506J-751D01*
G37*
G36*
G01X79831Y267202D02*
X87828D01*
X88228Y267602D01*
X89999D01*
G02X91322Y268102I1324J-1502D01*
G01X92098D01*
Y270971D01*
X88398Y274671D01*
Y280800D01*
G02X92402I2002J0D01*
G01Y276329D01*
X96102Y272629D01*
Y268102D01*
X99079D01*
X99251Y267930D01*
X99777D01*
G02X100672Y267035I-1J-896D01*
G01Y265065D01*
G02X99777Y264170I-896J1D01*
G01X98989D01*
X98950Y264157D01*
G02X97881Y264093I-650J1893D01*
G01X97855Y264098D01*
X92151D01*
X91251Y263198D01*
X78872D01*
X76530Y260856D01*
Y259623D01*
G02X75635Y258728I-896J1D01*
G01X73665D01*
G02X72770Y259623I1J896D01*
G01Y262577D01*
G02X73665Y263472I896J-1D01*
G01X74898D01*
X75267Y263841D01*
X74620Y264528D01*
X73465D01*
G02X72570Y265423I1J896D01*
G01Y268377D01*
G02X73465Y269272I896J-1D01*
G01X75435D01*
G02X75770Y269206I-2J-895D01*
G03X76379Y269402I187J464D01*
G02X79366Y267884I1421J-902D01*
G03X79831Y267202I466J-182D01*
G37*
G36*
G01X252541Y258300D02*
X232340D01*
G02Y259804I-1506J752D01*
G01X252541D01*
G02Y258300I1506J-752D01*
G37*
G36*
G01X248953Y255000D02*
X228928D01*
G02Y256502I-1506J751D01*
G01X248953D01*
G02Y255000I1506J-751D01*
G37*
G36*
G01X252653Y251772D02*
X232340D01*
G02Y253274I-1506J751D01*
G01X252653D01*
G02Y251772I1506J-751D01*
G37*
G36*
G01X139376Y252311D02*
G02X136324I-1526J-711D01*
G02X136031Y252699I541J713D01*
G03X135747Y252853I-233J-90D01*
G02Y256147I-347J1647D01*
G03X136031Y256301I51J244D01*
G02X136267Y256642I834J-325D01*
G03X136327Y256934I-167J186D01*
G02X139373I1523J716D01*
G03X139433Y256642I227J-106D01*
G02X139730Y255977I-598J-666D01*
G01Y253023D01*
G02X139376Y252311I-895J1D01*
G37*
G36*
G01X248953Y248700D02*
X228927D01*
G02Y250204I-1506J752D01*
G01X248953D01*
G02Y248700I1506J-752D01*
G37*
G36*
G01X175252Y255594D02*
Y247589D01*
X174101Y246438D01*
X174134Y246301D01*
G02X172901Y247534I-1634J-401D01*
G01X173038Y247501D01*
X173748Y248211D01*
Y255594D01*
G02X175252I752J1506D01*
G37*
G36*
G01X340572Y261066D02*
X340435Y261099D01*
X337952Y258616D01*
Y241189D01*
X331901Y235138D01*
X331934Y235001D01*
G02X330701Y236234I-1634J-401D01*
G01X330838Y236201D01*
X336448Y241811D01*
Y259238D01*
X339372Y262162D01*
X339339Y262299D01*
G02X340572Y261066I1634J401D01*
G37*
G36*
G01X77162Y241321D02*
G03X77012Y242059I-397J304D01*
G02X78000Y245802I988J1741D01*
G01X80041D01*
G02X80765Y246172I725J-525D01*
G01X82735D01*
G02X83630Y245277I-1J-896D01*
G01Y244489D01*
X83643Y244450D01*
G02Y243150I-1893J-650D01*
G01X83630Y243111D01*
Y242323D01*
G02X82735Y241428I-896J1D01*
G01X80765D01*
G02X80651Y241436I6J895D01*
G03X80109Y240793I-64J-496D01*
G02X76994Y239548I-1609J-493D01*
G01X76411D01*
X70711Y233848D01*
X64306D01*
G02Y235352I-1506J752D01*
G01X70089D01*
X75789Y241052D01*
X76994D01*
G02X77162Y241321I1505J-753D01*
G37*
G36*
G01X167716Y228751D02*
X167749Y228888D01*
X164638Y231999D01*
X164501Y231966D01*
G02X165734Y233199I-401J1634D01*
G01X165701Y233062D01*
X168812Y229951D01*
X168949Y229984D01*
G02X167716Y228751I401J-1634D01*
G37*
G36*
G01X78815Y233915D02*
X83729Y229002D01*
X86400D01*
X86427Y229008D01*
G02X86623Y229030I197J-873D01*
G01X89577D01*
G02X89773Y229008I-1J-895D01*
G01X89800Y229002D01*
X94300D01*
G02Y224998I0J-2002D01*
G01X82071D01*
X75985Y231085D01*
G02X78815Y233915I1415J1415D01*
G37*
G36*
G01X78470Y223100D02*
X79580Y223061D01*
X79656Y223132D01*
G02X80265Y223372I610J-655D01*
G01X82235D01*
G02X83130Y222477I-1J-896D01*
G01Y221689D01*
X83143Y221650D01*
G02Y220350I-1893J-650D01*
G01X83130Y220311D01*
Y219523D01*
G02X82235Y218628I-896J1D01*
G01X80265D01*
G02X79564Y218968I1J895D01*
G01X79492Y219059D01*
X78330Y219100D01*
G02X78470Y223100I70J2000D01*
G37*
G36*
G01X277361Y214270D02*
X274407D01*
G02X273512Y215165I1J896D01*
G01Y217135D01*
G02X274407Y218030I896J-1D01*
G01X274882D01*
Y220855D01*
X275382Y221354D01*
Y222064D01*
G02X277384I1001J1353D01*
G01Y220524D01*
X276886Y220025D01*
Y218030D01*
X277361D01*
G02X278256Y217135I-1J-896D01*
G01Y215165D01*
G02X277361Y214270I-896J1D01*
G37*
G36*
G01X328502Y224044D02*
Y216056D01*
G02X326998I-752J-1506D01*
G01Y224044D01*
G02X328502I752J1506D01*
G37*
G36*
G01X144621Y240452D02*
X148475D01*
G03X148965Y241047I-1J500D01*
G02X148948Y241218I878J174D01*
G01Y242794D01*
G02X149418Y243581I895J-1D01*
G01X149548Y243652D01*
Y246055D01*
X149531Y246099D01*
G02X149470Y246423I834J325D01*
G01Y249377D01*
G02X149848Y250107I895J-1D01*
G01Y252000D01*
G02X151490Y253748I1751J0D01*
G01X151584Y253754D01*
X151982Y254152D01*
X161365D01*
X161371Y254396D01*
G02X161377Y254487I895J-13D01*
G03X160881Y255048I-496J61D01*
G01X154989D01*
X152638Y257399D01*
X152501Y257366D01*
G02X153734Y258599I-401J1634D01*
G01X153701Y258462D01*
X155611Y256552D01*
X164979D01*
G02X165825Y254252I1506J-752D01*
G03X165130Y253792I-195J-460D01*
G01Y251423D01*
G02X164235Y250528I-896J1D01*
G01X162265D01*
G02X161371Y251404I1J895D01*
G01X161365Y251648D01*
X153352D01*
Y249068D01*
G02X153245Y248466I-1752J1D01*
G01X153230Y248424D01*
Y246423D01*
G02X153090Y245944I-895J2D01*
G01X153052Y245883D01*
Y243652D01*
X153182Y243581D01*
G02X153652Y242794I-425J-788D01*
G01Y241218D01*
G02X153628Y241015I-895J3D01*
G03X154115Y240402I487J-113D01*
G01X163200D01*
G02Y236398I0J-2002D01*
G01X153639D01*
Y236130D01*
X153642Y236112D01*
G02X153652Y235982I-885J-133D01*
G01Y234406D01*
G02X153026Y233553I-895J1D01*
G01X152852Y233498D01*
Y230144D01*
G02Y228456I-1242J-844D01*
G01Y215121D01*
X152131Y214400D01*
X153015Y213515D01*
G02X150185Y210685I-1415J-1415D01*
G01X149069Y211801D01*
X149000Y211817D01*
G02X148779Y211883I461J1948D01*
G01X148737Y211898D01*
X144900D01*
G02Y215902I0J2002D01*
G01X147785D01*
X147814Y215930D01*
X148000D01*
X148848Y216779D01*
Y232355D01*
X148843Y232381D01*
G02X149117Y233884I1957J420D01*
G02X148948Y234406I726J523D01*
G01Y235982D01*
G02X148958Y236112I895J-3D01*
G01X148961Y236130D01*
Y236398D01*
X137600D01*
G02Y240402I0J2002D01*
G01X144571D01*
X144621Y240452D01*
G37*
G36*
G01X132015Y224985D02*
X129302Y222271D01*
Y212642D01*
X129329Y212588D01*
G02X129430Y212177I-794J-413D01*
G01Y209223D01*
G02X129329Y208812I-895J2D01*
G01X129302Y208758D01*
Y207000D01*
G02X125298I-2002J0D01*
G01Y223929D01*
X129185Y227815D01*
G02X132015Y224985I1415J-1415D01*
G37*
G36*
G01X146977Y204170D02*
X144023D01*
G02X143488Y204349I2J895D01*
G01X143421Y204398D01*
X142071D01*
X135398Y211071D01*
Y226700D01*
G02X139402I2002J0D01*
G01Y212729D01*
X143729Y208402D01*
X147750D01*
G02Y204398I0J-2002D01*
G01X147579D01*
X147512Y204349D01*
G02X146977Y204170I-537J716D01*
G37*
G36*
G01X84775Y197012D02*
X84798Y197062D01*
Y211123D01*
X88048Y214373D01*
X88067Y214425D01*
G02X90300Y215402I1582J-575D01*
G01X90346Y215382D01*
X91035D01*
X91070Y215393D01*
G02X91323Y215430I255J-858D01*
G01X94277D01*
G02X95172Y214535I-1J-896D01*
G01Y212565D01*
G02X94491Y211697I-895J1D01*
G01X94302Y211650D01*
Y211253D01*
X94325Y211203D01*
G02X91275I-1525J-712D01*
G01X91298Y211253D01*
Y211650D01*
X91109Y211697D01*
G02X90531Y212150I215J869D01*
G01X90430Y212343D01*
X90172Y212249D01*
X87802Y209879D01*
Y197062D01*
X87825Y197012D01*
G02X84775I-1525J-712D01*
G37*
G36*
G01X111002Y213247D02*
Y208915D01*
X113002Y206915D01*
Y196353D01*
G02X110998I-1002J-1353D01*
G01Y206085D01*
X108998Y208085D01*
Y213247D01*
G02X111002I1002J1353D01*
G37*
G36*
G01X107915Y225385D02*
X105902Y223371D01*
Y211869D01*
G02X106230Y211177I-567J-693D01*
G01Y208223D01*
G02X105902Y207531I-895J1D01*
G01Y195271D01*
X104539Y193908D01*
X104520Y193867D01*
G02X100698Y194700I-1820J833D01*
G01Y195729D01*
X101898Y196929D01*
Y225029D01*
X105085Y228215D01*
G02X107915Y225385I1415J-1415D01*
G37*
G36*
G01X9501Y193134D02*
X9638Y193101D01*
X10548Y194011D01*
Y208311D01*
X27190Y224952D01*
X59890D01*
X61948Y227010D01*
Y227494D01*
G02X63719Y230340I753J1505D01*
G03X64520Y230706I302J398D01*
G02X66952Y229094I1680J-106D01*
G01Y224389D01*
X65011Y222448D01*
X28226D01*
X13052Y207274D01*
Y194311D01*
X14162Y193201D01*
X14299Y193234D01*
G02X13066Y192001I401J-1634D01*
G01X13099Y192138D01*
X11950Y193287D01*
X10701Y192038D01*
X10734Y191901D01*
G02X9501Y193134I-1634J-401D01*
G37*
G36*
G01X117573Y208288D02*
X117540Y208151D01*
X119652Y206039D01*
Y192985D01*
X117852Y191185D01*
Y190774D01*
G02X116348I-752J-1506D01*
G01Y191807D01*
X118148Y193607D01*
Y205417D01*
X116477Y207088D01*
X116340Y207055D01*
G02X117573Y208288I-401J1634D01*
G37*
G36*
G01X128228Y184906D02*
Y188109D01*
X120198Y196139D01*
Y206544D01*
G02X121702I752J1506D01*
G01Y196761D01*
X129732Y188731D01*
Y184906D01*
G02X128228I-752J-1506D01*
G37*
G36*
G01X233757Y181476D02*
X233207D01*
X232570Y180838D01*
X232603Y180701D01*
G02X231370Y181934I-1634J-401D01*
G01X231507Y181901D01*
X232585Y182978D01*
X239684D01*
X241062Y181601D01*
X241199Y181634D01*
G02X239966Y180401I401J-1634D01*
G01X239999Y180538D01*
X239062Y181476D01*
X237905D01*
G03X237430Y180820I0J-500D01*
G02X237477Y179946I-1599J-524D01*
G01X237449Y179814D01*
X241252Y176011D01*
Y174411D01*
X244162Y171501D01*
X244299Y171534D01*
G02X243066Y170301I401J-1634D01*
G01X243099Y170438D01*
X239748Y173789D01*
Y175389D01*
X236960Y178178D01*
X236887D01*
X236369Y178695D01*
X236232Y178662D01*
G02X234232Y180820I-401J1634D01*
G03X233757Y181476I-475J156D01*
G37*
G36*
G01X337301Y158834D02*
X337438Y158801D01*
X339599Y160962D01*
X339566Y161099D01*
G02X340799Y159866I1634J401D01*
G01X340662Y159899D01*
X338501Y157738D01*
X338534Y157601D01*
G02X337301Y158834I-1634J-401D01*
G37*
G36*
G01X318794Y150548D02*
X306406D01*
G02Y152052I-1506J752D01*
G01X318794D01*
G02Y150548I1506J-752D01*
G37*
G36*
G01X321744Y145998D02*
X310956D01*
G02Y147502I-1506J752D01*
G01X321744D01*
G02Y145998I1506J-752D01*
G37*
G36*
G01X272835Y132028D02*
X270865D01*
G02X270025Y132616I1J895D01*
G03X269727Y132772I-235J-86D01*
G02Y136028I-427J1628D01*
G03X270025Y136184I63J242D01*
G02X270865Y136772I841J-307D01*
G01X272835D01*
G02X273730Y135877I-1J-896D01*
G01Y132923D01*
G02X272835Y132028I-896J1D01*
G37*
G36*
G01X97271Y140398D02*
X62691D01*
G03X62205Y139783I0J-500D01*
G02X62230Y139577I-870J-210D01*
G01Y136623D01*
G02X61335Y135728I-896J1D01*
G01X59365D01*
G02X58470Y136623I1J896D01*
G01Y139577D01*
G02X58649Y140112I895J-2D01*
G01X58698Y140179D01*
Y141922D01*
X59300Y142524D01*
X59310Y142612D01*
G02X61300Y144402I1990J-211D01*
G01X98929D01*
X104293Y139038D01*
X110057Y144802D01*
X113037D01*
X113087Y144852D01*
X116907D01*
X124828Y152772D01*
G02X129072Y148528I2122J-2122D01*
G01X122196Y141652D01*
X122188Y141562D01*
G02X119200Y138848I-2988J288D01*
G01X115573D01*
X115523Y138798D01*
X112543D01*
X108538Y134793D01*
X108652Y134679D01*
Y129100D01*
G02X108543Y128450I-2002J2D01*
G01X108530Y128411D01*
Y127623D01*
G02X107635Y126728I-896J1D01*
G01X105665D01*
G02X104770Y127623I1J896D01*
G01Y128411D01*
X104757Y128450D01*
G02X104648Y129100I1893J652D01*
G01Y132512D01*
X104445Y132550D01*
G02X101999Y135562I555J2950D01*
G01X102001Y135668D01*
X97271Y140398D01*
G37*
G36*
G01X13893Y112523D02*
G02X14106Y114352I-1293J1077D01*
G01X14962D01*
X24862Y104452D01*
X93489D01*
X98299Y109262D01*
X98266Y109399D01*
G02X99499Y108166I1634J401D01*
G01X99362Y108199D01*
X94111Y102948D01*
X24240D01*
X14631Y112557D01*
G03X13893Y112523I-353J-354D01*
G37*
G36*
G01X129570Y94923D02*
Y97877D01*
G02X130465Y98772I896J-1D01*
G01X132435D01*
G02X133330Y97877I-1J-896D01*
G01Y94923D01*
G02X132839Y94125I-895J1D01*
G01X132702Y94056D01*
Y91532D01*
X130283Y89113D01*
X130274Y89025D01*
G02X128425Y90874I-1674J175D01*
G01X128513Y90883D01*
X130198Y92568D01*
Y94056D01*
X130061Y94125D01*
G02X129570Y94923I404J799D01*
G37*
G36*
G01X111885Y87785D02*
X109098Y90571D01*
Y93941D01*
G02X108728Y94665I525J725D01*
G01Y96635D01*
G02X109623Y97530I896J-1D01*
G01X110411D01*
X110450Y97543D01*
G02X111750I650J-1893D01*
G01X111789Y97530D01*
X112577D01*
G02X113472Y96635I-1J-896D01*
G01Y94665D01*
G02X113102Y93941I-895J1D01*
G01Y92229D01*
X114715Y90615D01*
G02X111885Y87785I-1415J-1415D01*
G37*
G36*
G01X123735Y82128D02*
X121765D01*
G02X120870Y83023I1J896D01*
G01Y83811D01*
X120857Y83850D01*
G02X120748Y84500I1893J652D01*
G01Y87721D01*
X120585Y87885D01*
G02X123415Y90715I1415J1415D01*
G01X124752Y89379D01*
Y84500D01*
G02X124643Y83850I-2002J2D01*
G01X124630Y83811D01*
Y83023D01*
G02X123735Y82128I-896J1D01*
G37*
G36*
G01X102263Y68798D02*
X67871D01*
X62685Y73985D01*
G02X65515Y76815I1415J1415D01*
G01X69529Y72802D01*
X101498D01*
Y105143D01*
X105378Y109022D01*
G02X109622Y104778I2122J-2122D01*
G01X107502Y102657D01*
Y70800D01*
G02X102263Y68798I-3002J0D01*
G37*
G36*
G01X94900Y46755D02*
Y52363D01*
X96548Y54011D01*
Y61406D01*
G02X98050I751J1506D01*
G01Y53389D01*
X96402Y51741D01*
Y46755D01*
G02X94900I-751J-1506D01*
G37*
G36*
G01X82248Y46606D02*
Y52711D01*
X83918Y54381D01*
Y61619D01*
G02X85422I752J1506D01*
G01Y53759D01*
X83752Y52089D01*
Y46606D01*
G02X82248I-752J-1506D01*
G37*
G36*
G01X76002Y46352D02*
Y52865D01*
X77520Y54383D01*
Y61679D01*
G02X79024I752J1506D01*
G01Y53761D01*
X77506Y52243D01*
Y46352D01*
G02X76002I-752J-1506D01*
G37*
G36*
G01X69648Y46306D02*
Y52911D01*
X71252Y54514D01*
Y61679D01*
G02X72754I751J1506D01*
G01Y53892D01*
X71152Y52289D01*
Y46306D01*
G02X69648I-752J-1506D01*
G37*
G36*
G01X66554Y43801D02*
Y53115D01*
X68102Y54663D01*
Y64894D01*
G02X69604I751J1506D01*
G01Y54041D01*
X68056Y52493D01*
Y43801D01*
G02X66554I-751J-1506D01*
G37*
G36*
G01X72852Y43602D02*
Y52915D01*
X74378Y54441D01*
Y64894D01*
G02X75882I752J1506D01*
G01Y53819D01*
X74356Y52293D01*
Y43602D01*
G02X72852I-752J-1506D01*
G37*
G36*
G01X85450Y43504D02*
Y52613D01*
X87046Y54208D01*
Y64594D01*
G02X88548I751J1506D01*
G01Y53586D01*
X86954Y51991D01*
Y43504D01*
G02X85450I-752J-1506D01*
G37*
G36*
G01X79152Y43503D02*
Y52815D01*
X80698Y54361D01*
Y64994D01*
G02X82200I751J1506D01*
G01Y53739D01*
X80654Y52193D01*
Y43503D01*
G02X79152I-751J-1506D01*
G37*
G36*
G01X91750Y43408D02*
Y52613D01*
X93398Y54260D01*
Y64794D01*
G02X95655Y67052I751J1506D01*
G01X100710D01*
X107410Y60352D01*
X109194D01*
G02Y58848I1506J-752D01*
G01X106788D01*
X100088Y65548D01*
X95655D01*
G02X94900Y64794I-1505J752D01*
G01Y53638D01*
X93254Y51991D01*
Y43408D01*
G02X91750I-752J-1506D01*
G37*
G36*
G01X115914Y32773D02*
G02X117493Y32044I185J-1673D01*
G02X117579Y27635I-1993J-2244D01*
G02X116361Y26925I-1379J965D01*
G02X115500Y26798I-864J2875D01*
G01X109957D01*
X106498Y30257D01*
Y44800D01*
G02X112502I3002J0D01*
G01Y32802D01*
X115500D01*
G02X115914Y32773I-2J-3002D01*
G37*
G36*
G01X351751Y150062D02*
G02X344854Y149650I-3451J-162D01*
G03X344068Y150023I-499J-36D01*
G02X343501Y153034I-968J1377D01*
G01X343638Y153001D01*
X345989Y155352D01*
X351011D01*
X352762Y153601D01*
X352899Y153634D01*
G02X354920Y152455I401J-1634D01*
G03X355768Y152251I481J136D01*
G02X354849Y150062I2532J-2351D01*
G03X354109Y150524I-499J24D01*
G02X352491I-809J1476D01*
G03X351751Y150062I-241J-438D01*
G37*
G36*
G01X359298Y223208D02*
X359441Y223165D01*
X362778Y226502D01*
X368042D01*
G03X368353Y227393I0J500D01*
G02X372647I2147J2707D01*
G03X372958Y226502I311J-391D01*
G01X378042D01*
G03X378353Y227393I0J500D01*
G02X383932Y229700I2147J2707D01*
G03X384697Y229220I497J-58D01*
G02X386047Y226177I903J-1420D01*
G01X385983Y226160D01*
X383322Y223498D01*
X383191D01*
G03X382851Y222632I0J-500D01*
G02X378149I-2351J-2532D01*
G03X377809Y223498I-340J366D01*
G01X373191D01*
G03X372851Y222632I0J-500D01*
G02X368149I-2351J-2532D01*
G03X367809Y223498I-340J366D01*
G01X364022D01*
X361565Y221041D01*
X361608Y220898D01*
G02X359298Y223208I-3308J-998D01*
G37*
G36*
G01X369396Y235971D02*
G02X366394Y234448I-1496J-771D01*
G01X363289D01*
X361289Y236448D01*
X355206D01*
G02Y237952I-1506J752D01*
G01X361911D01*
X363911Y235952D01*
X366394D01*
G02X367700Y236871I1506J-752D01*
G03X368002Y237713I-59J496D01*
G02X369924Y236693I2498J2387D01*
G03X369396Y235971I-84J-493D01*
G37*
G36*
G01X369209Y246265D02*
G02X366025Y245648I-1678J135D01*
G01X362789D01*
X361489Y246948D01*
X354706D01*
G02Y248452I-1506J752D01*
G01X355944D01*
G03X356229Y249362I0J500D01*
G02X360171I1971J2838D01*
G03X360456Y248452I285J-410D01*
G01X362111D01*
X363411Y247152D01*
X366025D01*
G02X367036Y248009I1506J-752D01*
G03X367346Y248690I-147J478D01*
G02X369807Y246715I3154J1410D01*
G03X369209Y246265I-100J-490D01*
G37*
G36*
G01X383712Y248828D02*
G02X383207Y252247I-3212J1272D01*
G03X384098Y252558I391J311D01*
G01Y257738D01*
X384075Y257788D01*
G02X384054Y257835I1526J710D01*
G03X383203Y257949I-460J-197D01*
G02X383948Y260321I-2703J2152D01*
G03X384711Y259929I499J33D01*
G02X387125Y257788I889J-1429D01*
G01X387102Y257738D01*
Y251062D01*
X387125Y251012D01*
G02X384503Y249024I-1525J-712D01*
G03X383712Y248828I-326J-380D01*
G37*
G36*
G01X62911Y273828D02*
X64845D01*
X65521Y274504D01*
X65488Y274641D01*
G02X66721Y273408I1634J401D01*
G01X66584Y273441D01*
X65853Y272710D01*
X66462Y272101D01*
X66599Y272134D01*
G02X65366Y270901I401J-1634D01*
G01X65399Y271038D01*
X65113Y271324D01*
X62087D01*
X61552Y270789D01*
Y267974D01*
X55652Y262074D01*
Y252374D01*
X55052Y251774D01*
Y251689D01*
X53210Y249848D01*
X44790D01*
X38338Y256300D01*
Y259600D01*
X39413Y260676D01*
X39467D01*
X39753Y260962D01*
X39720Y261099D01*
G02X42373Y260160I1635J401D01*
G03X42366Y259369I302J-398D01*
G02X42076Y256541I-1041J-1322D01*
G01Y256130D01*
X45855Y252352D01*
X52089D01*
X53148Y253411D01*
Y263111D01*
X59048Y269011D01*
Y271826D01*
X60703Y273481D01*
G03X60567Y274285I-353J354D01*
G02X59794Y275048I733J1515D01*
G01X54806D01*
G02Y276552I-1506J752D01*
G01X59794D01*
G02X62542Y274665I1506J-752D01*
G03X62911Y273828I369J-337D01*
G37*
G36*
G01X146550Y296657D02*
X146511Y296670D01*
X145723D01*
G02X144828Y297565I1J896D01*
G01Y299535D01*
G02X145723Y300430I896J-1D01*
G01X146511D01*
X146550Y300443D01*
G02X147200Y300552I652J-1893D01*
G01X148831D01*
G02X151520Y299823I968J-1752D01*
G03X152380I430J256D01*
G02X154818Y300668I1720J-1023D01*
G01X154862Y300652D01*
X157000D01*
G02X157650Y300543I-2J-2002D01*
G01X157689Y300530D01*
X158477D01*
G02X159372Y299635I-1J-896D01*
G01Y297665D01*
G02X158477Y296770I-896J1D01*
G01X157689D01*
X157650Y296757D01*
G02X157000Y296648I-652J1893D01*
G01X153421D01*
X152685Y297385D01*
G02X152380Y297777I1415J1415D01*
G03X151520I-430J-256D01*
G02X151215Y297385I-1720J1023D01*
G01X150379Y296548D01*
X147200D01*
G02X146550Y296657I2J2002D01*
G37*
G36*
G01X224602Y193302D02*
Y182180D01*
G03X225124Y181681I500J0D01*
G02X225952Y178494I76J-1681D01*
G01Y172811D01*
X228111Y170652D01*
X228694D01*
G02X231706Y169148I1506J-752D01*
G03X232153Y168424I447J-224D01*
G01X233762D01*
X234699Y169362D01*
X234666Y169499D01*
G02X235899Y168266I1634J401D01*
G01X235762Y168299D01*
X234384Y166922D01*
X224602D01*
Y163152D01*
X227297D01*
G02X230003I1353J-1002D01*
G01X231543D01*
X231593Y163102D01*
X232947D01*
G02X235653I1353J-1002D01*
G01X238647D01*
G02X241353I1353J-1002D01*
G01X244147D01*
G02X246853I1353J-1002D01*
G01X249547D01*
G02X249898Y163453I1353J-1002D01*
G01Y165215D01*
X252774Y168090D01*
X252932D01*
X253432Y168590D01*
X253423Y168706D01*
G02X254964Y167165I1677J136D01*
G01X254848Y167174D01*
X253762Y166088D01*
X253604D01*
X251902Y164385D01*
Y163453D01*
G02X249547Y161098I-1002J-1353D01*
G01X246853D01*
G02X244147I-1353J1002D01*
G01X241353D01*
G02X238647I-1353J1002D01*
G01X235653D01*
G02X232947I-1353J1002D01*
G01X230763D01*
X230713Y161148D01*
X230003D01*
G02X227297I-1353J1002D01*
G01X224602D01*
Y147598D01*
X215898D01*
Y149738D01*
X215875Y149788D01*
G02Y151212I1525J712D01*
G01X215898Y151262D01*
Y154538D01*
X215875Y154588D01*
G02Y156012I1525J712D01*
G01X215898Y156062D01*
Y158338D01*
X215875Y158388D01*
G02Y159812I1525J712D01*
G01X215898Y159862D01*
Y162138D01*
X215875Y162188D01*
G02Y163612I1525J712D01*
G01X215898Y163662D01*
Y165838D01*
X215875Y165888D01*
G02Y167312I1525J712D01*
G01X215898Y167362D01*
Y188218D01*
X215707Y188264D01*
G02Y191536I393J1636D01*
G01X215898Y191582D01*
Y193302D01*
X224602D01*
G37*
G36*
G01X35195Y178088D02*
X34526D01*
G03X34052Y177431I0J-500D01*
G02X30949Y176148I-1597J-532D01*
G01X27576D01*
X22152Y170724D01*
Y125676D01*
X34876Y112952D01*
X86490D01*
X86964Y113425D01*
Y117594D01*
G02Y120606I751J1506D01*
G01Y125326D01*
X88484Y126847D01*
Y134577D01*
G02X88196Y134760I754J1505D01*
G03X87791Y134570I-155J-196D01*
G02X86860Y133110I-1682J46D01*
G01Y126497D01*
X85340Y124976D01*
Y117481D01*
G02X83836I-752J-1506D01*
G01Y125598D01*
X85358Y127119D01*
Y133110D01*
G02X84426Y134653I751J1506D01*
G03X84016Y134851I-250J6D01*
G02X83690Y134637I-1080J1290D01*
G01Y126227D01*
X82168Y124706D01*
Y120606D01*
G02X80666I-751J-1506D01*
G01Y125328D01*
X82186Y126849D01*
Y134637D01*
G02X81898Y134820I754J1505D01*
G03X81493Y134630I-155J-196D01*
G02X80562Y133170I-1682J46D01*
G01Y126201D01*
X79042Y124680D01*
Y117541D01*
G02X77538I-752J-1506D01*
G01Y125302D01*
X79060Y126823D01*
Y133170D01*
G02X78128Y134715I751J1506D01*
G03X77709Y134905I-250J6D01*
G02X77320Y134637I-1140J1238D01*
G01Y126057D01*
X75800Y124536D01*
Y120506D01*
G02X74296I-752J-1506D01*
G01Y125158D01*
X75818Y126679D01*
Y134637D01*
G02X75529Y134820I751J1506D01*
G03X75124Y134630I-155J-196D01*
G02X74194Y133170I-1682J45D01*
G01Y126330D01*
X72672Y124809D01*
Y117541D01*
G02X71170I-751J-1506D01*
G01Y125431D01*
X72690Y126952D01*
Y133170D01*
G02X71761Y134598I752J1506D01*
G03X71351Y134778I-250J-12D01*
G02X71022Y134563I-1079J1292D01*
G01Y126360D01*
X69502Y124839D01*
Y120394D01*
G02X67859Y120477I-896J-1425D01*
G01X67998Y120546D01*
Y125461D01*
X69520Y126982D01*
Y134563D01*
G02X69185Y134784I752J1505D01*
G03X68774Y134608I-161J-191D01*
G02X67846Y133208I-1680J106D01*
G01Y126583D01*
X66374Y125112D01*
Y117601D01*
G02X64872I-751J-1506D01*
G01Y125734D01*
X66342Y127205D01*
Y133208D01*
G02X67915Y136183I753J1505D01*
G03X68642Y136494I243J437D01*
G02X71905Y136470I1628J-425D01*
G03X72632Y136151I486J119D01*
G02X74210Y136173I810J-1475D01*
G03X74926Y136509I228J445D01*
G02X78221Y136466I1643J-366D01*
G03X78963Y136130I491J96D01*
G02X80579Y136173I847J-1454D01*
G03X81295Y136509I228J445D01*
G02X84592Y136452I1643J-366D01*
G03X85319Y136102I492J91D01*
G02X86877Y136113I790J-1486D01*
G03X87593Y136449I228J445D01*
G02X90900Y136334I1643J-366D01*
G03X91627Y135965I495J74D01*
G02X93179Y135973I784J-1489D01*
G03X93895Y136309I228J445D01*
G02X97192Y136252I1643J-366D01*
G03X97919Y135902I492J91D01*
G02X99460Y132910I790J-1486D01*
G01Y126197D01*
X97940Y124676D01*
Y117281D01*
G02Y114269I-752J-1506D01*
G01Y113001D01*
X91887Y106948D01*
X32388D01*
X16148Y123188D01*
Y173212D01*
X25888Y182952D01*
X44556D01*
X48735Y178773D01*
X48872Y178806D01*
G02X47639Y177573I401J-1634D01*
G01X47672Y177710D01*
X43934Y181448D01*
X41666D01*
G03X41313Y180595I1J-500D01*
G01X43321Y178587D01*
X43458Y178620D01*
G02X42225Y177387I401J-1634D01*
G01X42258Y177524D01*
X40194Y179588D01*
X37301D01*
G03X37023Y178673I0J-500D01*
G01X37502Y178352D01*
X37630Y178411D01*
G02X36660Y176962I711J-1525D01*
G01X36666Y177103D01*
X35195Y178088D01*
G37*
G36*
G01X56317Y337726D02*
X41099D01*
G02X41631Y339417I-1099J1275D01*
G01X41679Y339228D01*
X56317D01*
G02Y337726I1506J-751D01*
G37*
G36*
G01X325471Y257140D02*
X336782Y268452D01*
X344746D01*
Y268995D01*
Y275654D01*
X351654D01*
Y268452D01*
X353718D01*
X356805Y265365D01*
X356957Y265424D01*
G02X354976Y263443I1243J-3224D01*
G01X355035Y263595D01*
X352682Y265948D01*
X350456D01*
G03X350171Y265038I0J-500D01*
G02X346229I-1971J-2838D01*
G03X345944Y265948I-285J410D01*
G01X337818D01*
X326507Y254638D01*
X323536D01*
G02Y257140I-1125J1251D01*
G01X325471D01*
G37*
G36*
G01X283964Y215687D02*
X285349Y214302D01*
X288992D01*
X290098Y215408D01*
Y224508D01*
X291692Y226102D01*
X298602D01*
Y213192D01*
X291508Y206098D01*
X286102D01*
Y195502D01*
X288735D01*
X293097Y199864D01*
X295270D01*
Y200177D01*
G02X296165Y201072I896J-1D01*
G01X298135D01*
G02X298916Y200613I-1J-895D01*
G03X299555Y200400I436J244D01*
G02X299645Y197287I683J-1538D01*
G03X298991Y196964I-176J-468D01*
G02X298135Y196328I-857J259D01*
G01X296165D01*
G02X295270Y197223I1J896D01*
G01Y197860D01*
X293927D01*
X289565Y193498D01*
X286102D01*
Y192998D01*
X277902D01*
Y188843D01*
X274972Y185913D01*
Y184465D01*
G02X274883Y184078I-895J2D01*
G01X274858Y184027D01*
Y180488D01*
G02X275288Y179449I-1251J-1126D01*
G03X275787Y178975I499J26D01*
G01X276506D01*
G02X276748Y179324I1493J-777D01*
G01Y180282D01*
X276722Y180334D01*
G02X276568Y180997I1347J662D01*
G01Y183633D01*
X278628Y185694D01*
Y186435D01*
G02X279523Y187330I896J-1D01*
G01X282477D01*
G02X283372Y186435I-1J-896D01*
G01Y184465D01*
G02X282477Y183570I-896J1D01*
G01X280752D01*
X279570Y182389D01*
Y180997D01*
G02X279250Y180070I-1501J-1D01*
G01Y179324D01*
G02X279642Y177835I-1251J-1125D01*
G01X279613Y177701D01*
X282076Y175238D01*
Y160396D01*
X281182Y159502D01*
X269024D01*
X267866Y160660D01*
Y175028D01*
X271940Y179102D01*
X271930Y179218D01*
G02X272356Y180488I1677J144D01*
G01Y183570D01*
X271123D01*
G02X270228Y184465I1J896D01*
G01Y186435D01*
G02X271123Y187330I896J-1D01*
G01X273555D01*
X275898Y189673D01*
Y192998D01*
X269598D01*
Y204498D01*
X267973D01*
X264530Y201055D01*
Y198623D01*
G02X263635Y197728I-896J1D01*
G01X261665D01*
G02X260797Y198409I1J895D01*
G01X260750Y198598D01*
X258800D01*
X257800Y197598D01*
X254962D01*
X254912Y197575D01*
G02Y200625I-712J1525D01*
G01X254962Y200602D01*
X256556D01*
X257556Y201602D01*
X260750D01*
X260797Y201791D01*
G02X261665Y202472I869J-214D01*
G01X263113D01*
X267143Y206502D01*
X269598D01*
Y209302D01*
X283298D01*
Y213208D01*
X283454Y213363D01*
X282547Y214270D01*
X280115D01*
G02X279220Y215165I1J896D01*
G01Y217135D01*
G02X279901Y218003I895J-1D01*
G01X280090Y218050D01*
Y218406D01*
X279872Y218625D01*
Y222329D01*
X279848Y222379D01*
G02X282898I1525J712D01*
G01X282874Y222329D01*
Y219869D01*
X283094Y219650D01*
Y218050D01*
X283283Y218003D01*
G02X283964Y217135I-214J-869D01*
G01Y215687D01*
G37*
G54D29*
X358200Y272200D03*
X194000Y207100D03*
Y217100D03*
Y227100D03*
Y237100D03*
Y247100D03*
Y257100D03*
X204000Y207100D03*
Y217100D03*
Y227100D03*
Y237100D03*
Y247100D03*
Y257100D03*
Y267100D03*
X348300Y79900D03*
Y89900D03*
Y99900D03*
Y109900D03*
Y119900D03*
Y129900D03*
Y139900D03*
Y159900D03*
Y169900D03*
Y179900D03*
Y189900D03*
Y199900D03*
Y209900D03*
X348200Y232200D03*
Y242200D03*
Y252200D03*
X358300Y79900D03*
Y89900D03*
Y99900D03*
Y109900D03*
Y119900D03*
Y129900D03*
Y139900D03*
Y159900D03*
Y169900D03*
Y179900D03*
Y189900D03*
Y199900D03*
Y209900D03*
X358200Y232200D03*
Y242200D03*
X370500Y80100D03*
Y90100D03*
Y100100D03*
Y110100D03*
Y120100D03*
Y130100D03*
Y140100D03*
Y150100D03*
Y160100D03*
Y170100D03*
Y180100D03*
Y190100D03*
Y200100D03*
Y210100D03*
Y260100D03*
X380500Y80100D03*
Y90100D03*
Y100100D03*
Y110100D03*
Y120100D03*
Y130100D03*
Y140100D03*
Y150100D03*
Y160100D03*
Y170100D03*
Y180100D03*
Y190100D03*
Y200100D03*
Y210100D03*
Y240100D03*
Y270100D03*
G54D33*
X16920Y250472D03*
Y266220D03*
G54D34*
X228052Y44179D03*
X323328D03*
G54D32*
X18900Y42700D03*
X374800D03*
G54D31*
X168400Y328850D03*
G54D35*
X311200Y231700D03*
G54D30*
X370500Y270100D03*
X194000Y267100D03*
X348300Y219900D03*
%LPD*%
G75*
G36*
G01X24400Y294500D02*
Y316500D01*
X40200D01*
Y313100D01*
X76300D01*
Y301600D01*
X40200D01*
Y294500D01*
X24400D01*
G37*
G36*
G01X62222Y223952D02*
G02X61869Y224805I1J500D01*
G01X63452Y226388D01*
Y227494D01*
G03X64380Y228894I-752J1506D01*
G02X65181Y229260I499J-32D01*
G03X65448Y229094I1018J1340D01*
G01Y225011D01*
X64389Y223952D01*
X62222D01*
G37*
G36*
G01X88322Y111452D02*
G02X87969Y112305I1J500D01*
G01X88466Y112803D01*
Y117594D01*
G03Y120606I-751J1506D01*
G01Y124704D01*
X89988Y126225D01*
Y134577D01*
G03X90321Y134797I-755J1504D01*
G02X90732Y134589I161J-191D01*
G03X91660Y132970I1679J-113D01*
G01Y126923D01*
X90148Y125411D01*
Y117345D01*
G03Y114325I742J-1510D01*
G01Y113010D01*
X88589Y111452D01*
X88322D01*
G37*
G36*
G01X90421Y109952D02*
G02X90068Y110805I1J500D01*
G01X91650Y112388D01*
Y114334D01*
G03Y117336I-760J1501D01*
G01Y124789D01*
X93162Y126301D01*
Y132970D01*
G03X94093Y134430I-751J1506D01*
G02X94498Y134620I250J-6D01*
G03X94786Y134437I1042J1322D01*
G01Y126849D01*
X93266Y125328D01*
Y120806D01*
G03Y117794I751J-1506D01*
G01Y112574D01*
X90643Y109952D01*
X90421D01*
G37*
G36*
G01X95622Y112809D02*
G02X94768Y113162I-354J353D01*
G01Y117794D01*
G03Y120806I-751J1506D01*
G01Y124706D01*
X96290Y126227D01*
Y134437D01*
G03X96616Y134651I-754J1504D01*
G02X97026Y134453I160J-192D01*
G03X97958Y132910I1683J-37D01*
G01Y126819D01*
X96436Y125298D01*
Y117281D01*
G03Y114269I752J-1506D01*
G01Y113623D01*
X95622Y112809D01*
G37*
G36*
G01X163200Y273881D02*
G03Y270919I800J-1481D01*
G01Y267367D01*
G03X163140Y267338I702J-1530D01*
G01X157000D01*
Y278500D01*
X163200D01*
Y273881D01*
G37*
G36*
G01X161600Y283800D02*
Y373900D01*
X175200D01*
Y303423D01*
X175189Y303388D01*
G03Y302412I1611J-488D01*
G01X175200Y302377D01*
Y283800D01*
X161600D01*
G37*
G36*
G01X216400Y148100D02*
Y192800D01*
X224100D01*
Y181274D01*
G03Y178726I1100J-1274D01*
G01Y171575D01*
G02X223279Y171191I-500J0D01*
G03X222601Y168266I-1079J-1291D01*
G01X222738Y168299D01*
X222858Y168179D01*
G02X222618Y167339I-354J-353D01*
G03X223463Y164082I381J-1639D01*
G02X224100Y163601I137J-481D01*
G01Y156116D01*
X223968Y156045D01*
G03Y153077I793J-1484D01*
G01X224100Y153006D01*
Y148100D01*
X216400D01*
G37*
G36*
G01X224738Y168424D02*
X224602Y168561D01*
Y170829D01*
G02X225455Y171182I500J-1D01*
G01X227489Y169148D01*
X228694D01*
G03X228898Y168833I1506J752D01*
G02X228705Y168424I-193J-159D01*
G01X224738D01*
G37*
G36*
G01X298100Y225600D02*
Y213400D01*
X291300Y206600D01*
X289574D01*
G02X289076Y207146I0J500D01*
G03X285763Y206908I-1676J154D01*
G01X285770Y206879D01*
Y206600D01*
X285600D01*
Y199681D01*
X285550Y199614D01*
G03X285370Y199077I715J-538D01*
G01Y196123D01*
G03X285550Y195586I895J1D01*
G01X285600Y195519D01*
Y193500D01*
X282944D01*
X282890Y193528D01*
G03X282477Y193630I-415J-793D01*
G01X279523D01*
G03X279110Y193528I2J-895D01*
G01X279056Y193500D01*
X274544D01*
X274490Y193528D01*
G03X274077Y193630I-415J-793D01*
G01X271123D01*
G03X270710Y193528I2J-895D01*
G01X270656Y193500D01*
X270100D01*
Y195266D01*
G03X270137Y197077I-1400J934D01*
G01X270100Y197137D01*
Y197728D01*
X270259Y197790D01*
G03X270830Y198623I-324J834D01*
G01Y201577D01*
G03X270259Y202410I-895J-1D01*
G01X270100Y202472D01*
Y208800D01*
X273495D01*
X273547Y208619D01*
G03X274407Y207970I861J246D01*
G01X277361D01*
G03X278081Y208335I-1J895D01*
G03X279377Y208359I619J1565D01*
G03X280115Y207970I739J507D01*
G01X283069D01*
G03X283964Y208865I-1J896D01*
G01Y210835D01*
G03X283836Y211295I-895J-1D01*
G01X283800Y211355D01*
Y213000D01*
X284600Y213800D01*
X289200D01*
X290600Y215200D01*
Y224300D01*
X291900Y225600D01*
X298100D01*
G37*
G36*
G01X314500Y236000D02*
Y227400D01*
X307900D01*
Y236000D01*
X314500D01*
G37*
%LPC*%
G75*
G36*
G01X44903Y305209D02*
G02X44035Y304528I-869J214D01*
G01X42065D01*
G02X41170Y305423I1J896D01*
G01Y308377D01*
G02X42065Y309272I896J-1D01*
G01X44035D01*
G02X44903Y308591I-1J-895D01*
G01X44950Y308402D01*
X47138D01*
X47188Y308425D01*
G02Y305375I712J-1525D01*
G01X47138Y305398D01*
X44950D01*
X44903Y305209D01*
G37*
%LPD*%
G75*
G54D10*
X5500Y108400D03*
X5400Y157200D03*
X5822Y27473D03*
X5772Y33034D03*
Y41034D03*
Y49034D03*
Y57034D03*
Y65034D03*
X5650Y73665D03*
Y81665D03*
X5350Y91465D03*
Y99465D03*
X5400Y118500D03*
X5478Y127934D03*
Y135934D03*
X5628Y144869D03*
X5600Y173400D03*
X7550Y198165D03*
Y206165D03*
X5500Y300400D03*
X5600Y329300D03*
X5700Y356500D03*
X5600Y378300D03*
X9700Y76000D03*
X9531Y85300D03*
X9800Y99400D03*
X9631Y109200D03*
X9600Y112900D03*
X11031Y125500D03*
X11069Y135600D03*
Y144700D03*
Y152900D03*
Y161000D03*
X11031Y171200D03*
X10700Y176600D03*
X9100Y191500D03*
X10400Y293500D03*
X12600Y113600D03*
X11300Y121400D03*
X12400Y182300D03*
X12058Y189314D03*
Y213314D03*
X11111Y223208D03*
Y231208D03*
X11600Y285700D03*
X11300Y336100D03*
X12500Y347800D03*
X12200Y354100D03*
X13822Y27473D03*
X13772Y33034D03*
Y49034D03*
Y57034D03*
X16716Y67616D03*
X14931Y125500D03*
X14969Y135500D03*
X14931Y144700D03*
X14969Y152900D03*
X14931Y161000D03*
Y170900D03*
X14700Y191600D03*
X15809Y331500D03*
X16000Y336100D03*
X15900Y341573D03*
X15235Y354300D03*
X15800Y357800D03*
X18300Y75100D03*
Y85600D03*
X18200Y98000D03*
X17400Y106700D03*
X17600Y113382D03*
X18901Y207735D03*
X19111Y223208D03*
Y231208D03*
Y239208D03*
Y247208D03*
X16700Y286200D03*
X19000Y360900D03*
X21822Y27473D03*
X21772Y33034D03*
Y49034D03*
X20600Y182200D03*
X21069Y187800D03*
X21800Y336100D03*
Y342100D03*
X19800Y355700D03*
X21800Y363800D03*
X24566Y65266D03*
X23400Y154400D03*
Y161000D03*
Y170000D03*
X23000Y256100D03*
X22700Y286300D03*
Y291600D03*
X22000Y330200D03*
X28100Y174600D03*
X24931Y189463D03*
X24982Y201049D03*
X26901Y215735D03*
X26971Y226360D03*
X27111Y231208D03*
Y239208D03*
Y247208D03*
X26000Y284500D03*
X26546Y296509D03*
X26646Y300109D03*
Y303709D03*
Y307409D03*
Y311009D03*
X26600Y314500D03*
X25900Y329300D03*
X25700Y348100D03*
X26500Y355800D03*
Y359900D03*
X25600Y366300D03*
X30500Y161000D03*
X28900Y286400D03*
X28800Y291500D03*
X28000Y330900D03*
X27800Y341700D03*
X33316Y50731D03*
X33311Y70511D03*
X33369Y101769D03*
X33200Y105700D03*
X32031Y117499D03*
Y125100D03*
X32455Y176900D03*
X33134Y197666D03*
X32867Y208933D03*
X32800Y259300D03*
X32809Y268789D03*
X32800Y273200D03*
X32600Y278600D03*
Y284400D03*
X32246Y296409D03*
X32346Y300009D03*
Y303609D03*
Y307309D03*
Y310909D03*
X32300Y314400D03*
X30900Y325300D03*
X33111Y358911D03*
X34508Y27351D03*
Y35351D03*
Y43351D03*
X35400Y184200D03*
Y189269D03*
X35200Y193800D03*
X34971Y226360D03*
X35111Y231208D03*
Y239208D03*
Y247208D03*
X34600Y324000D03*
X34000Y333200D03*
X35600Y342600D03*
X33800Y350800D03*
X35500Y355500D03*
X38831Y105631D03*
Y114400D03*
X38900Y122400D03*
X38090Y154610D03*
X39300Y170000D03*
X38341Y176886D03*
X37846Y296409D03*
X37946Y300009D03*
Y310909D03*
X37900Y314400D03*
X37500Y366400D03*
X40868Y76255D03*
Y84255D03*
Y92255D03*
Y100255D03*
X40700Y118600D03*
X40431Y142800D03*
X41100Y189200D03*
X39700Y221269D03*
X41325Y258047D03*
X41354Y261500D03*
X40300Y274000D03*
X40200Y278900D03*
Y284900D03*
X40000Y339000D03*
X42508Y27351D03*
Y35351D03*
Y43351D03*
X44700Y52231D03*
X43859Y176986D03*
X43300Y199800D03*
X42901Y207735D03*
X43417Y219483D03*
X43111Y231208D03*
Y239208D03*
Y247208D03*
X43200Y378400D03*
X45300Y62200D03*
X47900Y105700D03*
X47700Y124800D03*
X45200Y191000D03*
X44966Y226634D03*
X46300Y268600D03*
X45300Y341100D03*
X48300Y68600D03*
X48368Y76155D03*
Y84155D03*
Y92155D03*
Y100155D03*
X49000Y140800D03*
X50000Y173300D03*
X49273Y177172D03*
X49600Y189900D03*
X49700Y259900D03*
X47700Y273900D03*
X47600Y284800D03*
X47673Y297500D03*
X47900Y306900D03*
X48000Y314900D03*
X49000Y329600D03*
X49339Y366765D03*
Y373658D03*
X50508Y27351D03*
Y35351D03*
Y43351D03*
X53600Y132000D03*
X52500Y177100D03*
X52416Y201984D03*
X50901Y207735D03*
X50384Y214916D03*
X51200Y226531D03*
X51111Y231208D03*
Y239208D03*
Y247208D03*
Y255208D03*
X52167Y268767D03*
X52900Y278900D03*
X52800Y299100D03*
X51600Y319600D03*
X54500Y171700D03*
X54800Y183300D03*
X54231Y190800D03*
Y197151D03*
X53400Y221269D03*
X55500Y243700D03*
X54100Y272900D03*
X53300Y275800D03*
X55425Y316275D03*
X58508Y27351D03*
Y35351D03*
X56300Y68400D03*
X56268Y92055D03*
Y100055D03*
X59000Y115239D03*
X57600Y144700D03*
X58800Y170000D03*
X58000Y176600D03*
X58100Y183300D03*
Y189000D03*
X58800Y208300D03*
X56831Y260041D03*
X57800Y324800D03*
X57823Y338477D03*
X58400Y341900D03*
X58414Y356800D03*
Y363693D03*
Y370586D03*
Y377479D03*
X60900Y44900D03*
X62200Y114300D03*
X61300Y142400D03*
X60200Y163131D03*
X60058Y197314D03*
X58901Y215735D03*
X60901Y221269D03*
X59517Y254117D03*
X61300Y275800D03*
X60200Y290800D03*
Y299700D03*
X62300Y68400D03*
X64100Y75400D03*
X62268Y92055D03*
X63692Y101769D03*
X63502Y105722D03*
X63400Y123100D03*
X63700Y132100D03*
X63500Y168900D03*
X63600Y176400D03*
X63800Y183400D03*
X64420Y189434D03*
X63400Y194067D03*
X62700Y229000D03*
X62800Y234600D03*
X63400Y250200D03*
X63800Y307300D03*
X66508Y27351D03*
X67305Y42295D03*
X65300Y52231D03*
X66600Y62200D03*
X66000Y68600D03*
X65623Y116095D03*
X67094Y134714D03*
X67800Y221500D03*
X66200Y230600D03*
X66000Y253800D03*
X65066Y258066D03*
X65131Y265900D03*
X67000Y270500D03*
X67122Y275042D03*
X64600Y295500D03*
X67050Y304650D03*
X66650Y311050D03*
X65987Y316010D03*
X68853Y66400D03*
X68606Y118969D03*
X70271Y136069D03*
X69000Y153269D03*
X68900Y167300D03*
X69400Y176500D03*
X69200Y183300D03*
X67600Y192400D03*
X69000Y197929D03*
X68500Y206951D03*
X67800Y214769D03*
X68300Y281300D03*
X69500Y290800D03*
X69400Y299700D03*
X69900Y308500D03*
X67800Y335100D03*
X67777Y340727D03*
X70400Y44800D03*
X72003Y63185D03*
X71921Y116035D03*
X73442Y134676D03*
X71900Y190900D03*
X70900Y331500D03*
X74508Y27351D03*
X73604Y42096D03*
X75130Y66400D03*
X75048Y119000D03*
X75100Y176500D03*
X74900Y183200D03*
X73800Y304500D03*
X73150Y311050D03*
X73600Y316000D03*
X73731Y324069D03*
X73000Y346500D03*
X76754Y44846D03*
X78272Y63185D03*
X78290Y116035D03*
X76569Y136143D03*
X78900Y161700D03*
X77502Y167422D03*
X76840Y190160D03*
X78392Y204708D03*
X78400Y221100D03*
X77400Y232500D03*
X78500Y240300D03*
X78000Y243800D03*
X77800Y265200D03*
Y268500D03*
X78300Y286300D03*
X78048Y311548D03*
X79903Y41997D03*
X81449Y66500D03*
X81417Y119100D03*
X79811Y134676D03*
X80700Y176500D03*
X80800Y183300D03*
X78800Y214800D03*
X79100Y292500D03*
X79400Y297600D03*
X82508Y27351D03*
X83000Y45100D03*
X84670Y63125D03*
X84588Y115975D03*
X82938Y136143D03*
X81500Y300800D03*
X82500Y309000D03*
X83800Y320200D03*
X82334Y349066D03*
X86202Y41998D03*
X87715Y119100D03*
X86109Y134616D03*
X85300Y160500D03*
X86102Y168622D03*
X86500Y176500D03*
X86400Y183300D03*
X86300Y196300D03*
X86500Y299900D03*
X84793Y334048D03*
X85600Y346300D03*
X89300Y46800D03*
X88300Y50900D03*
X89728Y58400D03*
X87797Y66100D03*
X89236Y136083D03*
X89900Y158800D03*
X89649Y213850D03*
X87725Y230381D03*
X87800Y240100D03*
Y247400D03*
X87725Y254381D03*
X87900Y261900D03*
X87700Y271100D03*
X88400Y297600D03*
X88500Y306500D03*
X90508Y27351D03*
X92502Y41902D03*
X92200Y54900D03*
X91100Y66800D03*
X91200Y75200D03*
X90890Y115835D03*
X92411Y134476D03*
X92100Y176500D03*
X92300Y183200D03*
X92800Y210491D03*
X90400Y280800D03*
X91100Y291900D03*
X92793Y318048D03*
Y326048D03*
Y334048D03*
Y342048D03*
X95651Y45249D03*
X94149Y66300D03*
X94017Y119300D03*
X95538Y135943D03*
X95900Y153231D03*
X95000Y157500D03*
X94300Y227000D03*
X94028Y235320D03*
Y240320D03*
Y245320D03*
Y250320D03*
Y255320D03*
X94800Y266100D03*
X97299Y62912D03*
X97188Y115775D03*
X98709Y134416D03*
X97800Y176600D03*
Y183500D03*
X95925Y195975D03*
X96351Y220200D03*
X96369Y296200D03*
X97500Y308300D03*
X98508Y27351D03*
X100100Y52300D03*
X100000Y63900D03*
X99800Y76100D03*
X99700Y91600D03*
X99900Y109800D03*
X100900Y113200D03*
X100800Y121900D03*
Y131900D03*
X100300Y151800D03*
X99581Y220775D03*
X100200Y271100D03*
X100793Y326048D03*
Y334048D03*
Y342048D03*
X101900Y45300D03*
X102600Y108200D03*
X102300Y164300D03*
X103400Y176600D03*
Y183300D03*
X102700Y194700D03*
X102028Y235320D03*
Y240320D03*
Y245320D03*
Y250320D03*
Y255320D03*
X104500Y70800D03*
Y88900D03*
X105000Y135500D03*
X105600Y150400D03*
X106500Y226800D03*
X104400Y280000D03*
X104200Y296100D03*
X105300Y307100D03*
X105670Y316230D03*
X109500Y44800D03*
X108800Y71100D03*
X107500Y106900D03*
X109200Y176600D03*
X108900Y183500D03*
X107581Y220775D03*
X109825Y308775D03*
X108793Y334048D03*
X110700Y59600D03*
X112054Y65847D03*
Y69847D03*
X111700Y105200D03*
X113000Y125800D03*
X112300Y132500D03*
X112100Y134800D03*
X110534Y148966D03*
X111500Y191800D03*
X112000Y195000D03*
X110000Y214600D03*
X110028Y235320D03*
Y240320D03*
Y245320D03*
Y250320D03*
Y255320D03*
X110800Y271100D03*
X110698Y343569D03*
X110598Y351428D03*
X110611Y355731D03*
X114200Y28600D03*
Y31100D03*
X113300Y89200D03*
X115700Y128100D03*
X114016Y146984D03*
X114800Y165600D03*
X114700Y176700D03*
X114400Y183400D03*
X115931Y193600D03*
X113320Y323880D03*
X116200Y28600D03*
X116100Y31100D03*
X118054Y53847D03*
Y61847D03*
Y65847D03*
X116600Y76600D03*
X117300Y102300D03*
X117566Y131866D03*
X117100Y189268D03*
X115939Y208689D03*
X115581Y220775D03*
X118028Y235320D03*
Y240320D03*
Y245320D03*
Y250320D03*
Y255320D03*
X116000Y266400D03*
Y280662D03*
X116600Y296600D03*
X116700Y303500D03*
X117400Y307600D03*
X119600Y43800D03*
X121300Y165900D03*
X120600Y176600D03*
X120200Y183300D03*
X120950Y208050D03*
X121100Y271200D03*
X118779Y318112D03*
X121000Y331600D03*
X118417Y343720D03*
X118432Y351428D03*
X118445Y355731D03*
X122000Y76700D03*
Y89300D03*
X121600Y102700D03*
X123900Y112900D03*
X121900Y131900D03*
X123800Y162300D03*
X123581Y220775D03*
X123873Y302025D03*
X124054Y49847D03*
Y61847D03*
Y69847D03*
X125900Y102600D03*
X126100Y132600D03*
X126200Y176600D03*
X125831Y196100D03*
X126028Y235320D03*
Y240320D03*
Y245320D03*
Y250320D03*
Y255320D03*
X124812Y290771D03*
X125000Y297000D03*
X125600Y325200D03*
X125681Y336327D03*
X125581Y343827D03*
X125481Y351428D03*
X125494Y355731D03*
X128200Y27100D03*
X128700Y43000D03*
X128100Y54000D03*
X129000Y75200D03*
X128600Y89200D03*
X128100Y112700D03*
X128400Y134800D03*
X128900Y146300D03*
X126950Y150650D03*
X129600Y162400D03*
X128980Y183400D03*
X127700Y193900D03*
X127300Y207000D03*
X126949Y277500D03*
X130500Y64600D03*
X131200Y102600D03*
X131916Y110384D03*
X132100Y132600D03*
X131000Y167600D03*
X132300Y176600D03*
X132600Y184200D03*
X132400Y220800D03*
X130600Y226400D03*
X129700Y271200D03*
X132500Y303500D03*
X133400Y51200D03*
X135500Y66900D03*
Y76800D03*
X135300Y102600D03*
X132751Y117649D03*
X135400Y136100D03*
X135600Y155000D03*
X135257Y205976D03*
X133300Y312100D03*
X134300Y321600D03*
X138100Y43300D03*
X138000Y104400D03*
X136500Y110469D03*
X136900Y146400D03*
X136800Y174300D03*
X137400Y226700D03*
X137600Y238400D03*
X137850Y251600D03*
X135400Y254500D03*
X137850Y257650D03*
X137200Y265800D03*
X136400Y280000D03*
X137631Y290100D03*
X136172Y327827D03*
X135872Y336327D03*
X135772Y343827D03*
X135672Y351428D03*
X135685Y355731D03*
X140700Y76900D03*
X140800Y102500D03*
X139500Y107700D03*
X139750Y117649D03*
X140800Y136300D03*
X141800Y49600D03*
X144000Y70100D03*
X143700Y107869D03*
X142700Y146100D03*
X141700Y161600D03*
X141300Y219900D03*
X143700Y243100D03*
X143800Y261200D03*
X142900Y270900D03*
X141378Y290106D03*
X141200Y299000D03*
X144826Y76800D03*
X146300Y184600D03*
X144900Y213900D03*
X143900Y234400D03*
Y254500D03*
X145751Y277450D03*
X145103Y308152D03*
X144502Y327853D03*
X144202Y336327D03*
X144102Y343880D03*
X144002Y351480D03*
X144015Y355731D03*
X147711Y43300D03*
X147600Y72900D03*
X147446Y86238D03*
X148600Y92400D03*
X147200Y104200D03*
X146750Y117649D03*
X148900Y132300D03*
X148600Y147300D03*
X147750Y206400D03*
X149342Y213859D03*
X150580Y33952D03*
Y37952D03*
Y41952D03*
Y45952D03*
X150600Y155400D03*
X152300Y159500D03*
Y165800D03*
X151700Y198500D03*
X151900Y204400D03*
X151600Y212100D03*
X150800Y232800D03*
X151600Y252000D03*
X150700Y255600D03*
X152100Y259000D03*
X150200Y265836D03*
X151800Y287300D03*
X151300Y295100D03*
X149800Y298800D03*
X151900Y301400D03*
X151834Y308152D03*
X151696Y327827D03*
X151396Y336327D03*
X151296Y343827D03*
X151196Y351428D03*
X151209Y355731D03*
X154500Y86900D03*
X153750Y117649D03*
X154473Y192873D03*
X154100Y298800D03*
X156580Y33952D03*
Y37952D03*
Y41952D03*
X156300Y72900D03*
X157700Y92800D03*
X155800Y105100D03*
X156400Y132400D03*
X158600Y150600D03*
X156231Y161900D03*
X157500Y293200D03*
X160609Y89100D03*
X160750Y117649D03*
X159600Y143100D03*
X159700Y165800D03*
X158566Y308152D03*
X159800Y318200D03*
X158666Y327827D03*
X158366Y336327D03*
X158266Y343827D03*
X158166Y351428D03*
X158179Y355731D03*
X162580Y33952D03*
Y37952D03*
X163200Y139100D03*
X163866Y204066D03*
X162800Y207200D03*
X161800Y218700D03*
X163900Y223700D03*
X161800Y228569D03*
X163200Y238400D03*
X162700Y246300D03*
X162200Y262000D03*
X162300Y269100D03*
X161900Y278200D03*
X163100Y285300D03*
Y288600D03*
Y291800D03*
X163200Y363100D03*
Y367800D03*
X163260Y372441D03*
X167100Y42400D03*
Y48100D03*
Y53900D03*
Y65100D03*
X165800Y167600D03*
X165900Y171869D03*
X164900Y195000D03*
X164100Y233600D03*
X166491Y252600D03*
X166485Y255800D03*
X163900Y265836D03*
X164000Y272400D03*
X165100Y278800D03*
X166200Y285400D03*
Y288600D03*
X166400Y291900D03*
Y363100D03*
Y367800D03*
X166460Y372541D03*
X168580Y33952D03*
X167300Y70800D03*
X167500Y76200D03*
X167600Y100600D03*
X167800Y106400D03*
Y112200D03*
X167750Y117649D03*
X167900Y123100D03*
Y129100D03*
X168000Y134800D03*
X169400Y148700D03*
X168900Y158200D03*
X169350Y228350D03*
X172700Y210300D03*
X171300Y230600D03*
X169700Y272500D03*
X170200Y278900D03*
Y282000D03*
X169400Y363100D03*
Y367800D03*
X169500Y372700D03*
X174000Y35100D03*
X173700Y42500D03*
X173800Y47900D03*
X173700Y53500D03*
Y57400D03*
X173900Y61331D03*
X173800Y65200D03*
Y70700D03*
X173900Y76300D03*
X173800Y82700D03*
X174593Y100632D03*
Y106132D03*
X174493Y112032D03*
X174300Y118629D03*
X174430Y123780D03*
Y129280D03*
X174330Y135180D03*
X174300Y139100D03*
X174900Y159200D03*
X175500Y235100D03*
X172500Y245900D03*
X172400Y253900D03*
X174500Y257100D03*
X174800Y272500D03*
X173800Y279000D03*
X173700Y282000D03*
X172400Y363100D03*
X172500Y367800D03*
Y372600D03*
X177100Y150100D03*
X177400Y187800D03*
X175900Y218600D03*
X176900Y242200D03*
Y250900D03*
X177200Y284200D03*
X176900Y296100D03*
X176800Y302900D03*
X176900Y309100D03*
Y318200D03*
X177500Y360200D03*
Y366000D03*
Y371800D03*
Y377600D03*
X180400Y81300D03*
X181000Y100600D03*
X181100Y106300D03*
Y112100D03*
X180900Y118100D03*
X180700Y123100D03*
X181000Y128400D03*
X180800Y134700D03*
X178800Y141300D03*
X181200Y189900D03*
X178700Y226300D03*
Y266000D03*
X180000Y272500D03*
X180700Y327827D03*
X180400Y336327D03*
X180300Y343827D03*
X180200Y351428D03*
X180213Y355731D03*
X182800Y35100D03*
X181920Y42818D03*
X182020Y48518D03*
Y54318D03*
X181620Y65318D03*
X181920Y70618D03*
X181720Y76918D03*
X182511Y172011D03*
X182200Y200900D03*
X181400Y229300D03*
X183300Y256600D03*
X186700Y65800D03*
X185300Y147500D03*
X184990Y155490D03*
X186200Y373800D03*
X189700Y54579D03*
X188600Y61900D03*
X187900Y76300D03*
X189331Y140500D03*
X189700Y193400D03*
Y200700D03*
X187475Y239426D03*
X187900Y281100D03*
X186700Y284300D03*
X187500Y296200D03*
Y302700D03*
X188700Y318200D03*
X188671Y327827D03*
X188371Y336327D03*
X188271Y343827D03*
X188171Y351428D03*
X188184Y355731D03*
X190500Y38000D03*
X191900Y59400D03*
X192000Y82400D03*
X192293Y104732D03*
X190793Y109132D03*
X189800Y210100D03*
X189375Y215526D03*
X191575Y221926D03*
X189975Y251626D03*
X190033Y304867D03*
X193693Y100432D03*
X192100Y272100D03*
X193200Y283900D03*
X192200Y296100D03*
X192300Y302600D03*
X197600Y79900D03*
X196800Y186400D03*
X196375Y197126D03*
X196475Y211426D03*
X196543Y308126D03*
X196800Y318100D03*
X196643Y327827D03*
X196343Y336327D03*
X196243Y343827D03*
X196143Y351428D03*
X196156Y355731D03*
X195600Y373800D03*
X198866Y47034D03*
X200616Y54284D03*
X200334Y59466D03*
X198600Y66200D03*
X200500Y73700D03*
X199000Y219100D03*
X198975Y222426D03*
Y232026D03*
Y241926D03*
X199875Y264226D03*
X203500Y160900D03*
X202500Y200000D03*
X202700Y374100D03*
X204800Y72800D03*
Y86200D03*
Y106000D03*
X204900Y131900D03*
X204632Y151904D03*
X204800Y157400D03*
X204969Y166076D03*
X204200Y179000D03*
X206175Y193026D03*
X206000Y271600D03*
X206200Y274769D03*
X205400Y295981D03*
X204600Y318100D03*
X204614Y327827D03*
X204314Y336327D03*
X204214Y343827D03*
X204114Y351428D03*
X204127Y355731D03*
X209216Y62884D03*
X207900Y67100D03*
X206375Y203026D03*
X206675Y211926D03*
X206575Y232126D03*
Y242126D03*
X206475Y261626D03*
X212100Y60100D03*
X212000Y171100D03*
Y178800D03*
X212100Y186200D03*
X210400Y273200D03*
X210300Y288600D03*
X210400Y291900D03*
X214100Y76500D03*
X214200Y86100D03*
X214100Y105900D03*
X214000Y131700D03*
X212700Y273300D03*
X212800Y291800D03*
X212600Y296100D03*
X212485Y308126D03*
X214300Y318200D03*
X212585Y327827D03*
X212285Y336327D03*
X212185Y343827D03*
X212085Y351428D03*
X212098Y355731D03*
X217400Y150500D03*
Y155300D03*
Y159100D03*
Y162900D03*
Y166600D03*
X216100Y189900D03*
X215000Y273300D03*
Y288800D03*
X216969Y293445D03*
X218300Y171700D03*
X218100Y176800D03*
Y181200D03*
Y185700D03*
X219400Y189800D03*
X219500Y283000D03*
X222960Y162240D03*
X223000Y165700D03*
X222200Y169900D03*
X222500Y189600D03*
X221969Y308260D03*
X222200Y318200D03*
X222069Y327873D03*
X221769Y336373D03*
X221669Y343961D03*
X221569Y351562D03*
X221582Y355731D03*
X224761Y154561D03*
X225200Y180000D03*
X226000Y182800D03*
X225900Y192400D03*
X228900Y134700D03*
X228831Y142300D03*
X228650Y162150D03*
X227534Y165134D03*
X227331Y245800D03*
X227421Y249452D03*
X227422Y255751D03*
X227426Y262201D03*
X226100Y267600D03*
X226200Y270700D03*
X226100Y274300D03*
X230000Y155100D03*
X230200Y169900D03*
X230300Y172800D03*
X230378Y177499D03*
X230969Y180300D03*
X229969Y184930D03*
Y190234D03*
X229900Y230900D03*
X229800Y239600D03*
Y247500D03*
X230834Y252523D03*
Y259052D03*
Y265351D03*
X231000Y281600D03*
X229900Y318200D03*
X229906Y327827D03*
X229606Y336327D03*
X229506Y343827D03*
X229406Y351428D03*
X229419Y355731D03*
X234200Y123600D03*
X232200Y139200D03*
X232634Y144434D03*
X234300Y162100D03*
X233800Y165200D03*
X233200Y169900D03*
X232000Y203700D03*
X231900Y215600D03*
Y223000D03*
X232269Y245900D03*
X234487Y302087D03*
X236158Y41203D03*
Y51203D03*
Y61203D03*
Y71203D03*
X236200Y81400D03*
X235900Y91000D03*
X236000Y101200D03*
X235900Y110900D03*
X236158Y131203D03*
X236000Y154900D03*
X236100Y166900D03*
X236300Y169900D03*
X236700Y172800D03*
X235900Y177300D03*
X235831Y180296D03*
X236831Y189000D03*
X236200Y196800D03*
X235800Y276700D03*
X235900Y287600D03*
X236604Y326885D03*
X237171Y336327D03*
X237289Y343962D03*
X237189Y351563D03*
X237202Y355731D03*
X236049Y361518D03*
Y377518D03*
X239100Y144069D03*
X237860Y148935D03*
X240000Y162100D03*
X240200Y165100D03*
X241600Y154900D03*
Y180000D03*
X240758Y191917D03*
X242900Y205800D03*
X242573Y215500D03*
X242600Y229200D03*
X242500Y239600D03*
Y247400D03*
Y267300D03*
X242573Y271200D03*
X241800Y281200D03*
X241700Y291400D03*
X241500Y297700D03*
X241037Y309037D03*
X243700Y148900D03*
X245500Y162100D03*
X244500Y166900D03*
X244700Y169900D03*
X245400Y172700D03*
X244100Y178300D03*
X245258Y186917D03*
X244049Y361518D03*
Y377518D03*
X246158Y41203D03*
Y51203D03*
Y61203D03*
Y71203D03*
Y81203D03*
Y91203D03*
Y101203D03*
Y111203D03*
Y121203D03*
Y131203D03*
X247600Y143900D03*
X247400Y154800D03*
X246600Y164800D03*
X247595Y315895D03*
X246800Y349800D03*
X246896Y373756D03*
X250900Y162100D03*
X250558Y186917D03*
X250747Y199100D03*
X250710Y228922D03*
Y234922D03*
Y240922D03*
X250459Y249452D03*
Y255751D03*
Y262201D03*
X249731Y272500D03*
X249800Y282900D03*
Y295900D03*
X249500Y353500D03*
X253300Y154800D03*
X253258Y175517D03*
X254200Y199100D03*
X253400Y208700D03*
X254159Y252523D03*
X254047Y259052D03*
X254048Y265351D03*
X253200Y268500D03*
X253600Y277100D03*
X253300Y289400D03*
X253252Y322352D03*
X252049Y361518D03*
Y377518D03*
X256158Y41203D03*
Y51203D03*
Y61203D03*
Y71203D03*
Y81203D03*
Y91203D03*
Y101203D03*
Y111203D03*
Y121203D03*
Y131203D03*
X256900Y143900D03*
X257000Y151100D03*
X255100Y168842D03*
X256758Y173817D03*
X255558Y184317D03*
X256710Y234922D03*
Y240922D03*
Y246922D03*
X254867Y373756D03*
X259477Y157246D03*
X257900Y215000D03*
X258403Y327803D03*
X260049Y353518D03*
Y361518D03*
X262710Y222922D03*
Y240922D03*
Y246922D03*
X262775Y300413D03*
X262839Y373756D03*
X263400Y184100D03*
X263900Y215000D03*
X264200Y227300D03*
X263275Y265213D03*
X263200Y285400D03*
X263475Y333275D03*
X266158Y41203D03*
Y51203D03*
Y61203D03*
Y71203D03*
Y81203D03*
Y91203D03*
Y101203D03*
Y111203D03*
Y121203D03*
X266600Y142700D03*
Y161100D03*
Y165000D03*
Y169100D03*
X268120Y229200D03*
X266625Y336425D03*
X266600Y377700D03*
X269300Y134400D03*
X270300Y158100D03*
X268700Y191500D03*
Y196200D03*
Y210200D03*
X270574Y326572D03*
Y338572D03*
Y342572D03*
Y346572D03*
Y350572D03*
Y354572D03*
Y362572D03*
X270810Y373756D03*
X273607Y179363D03*
X271700Y233700D03*
X272275Y244713D03*
Y265113D03*
X272100Y285800D03*
X271975Y302613D03*
X276158Y41203D03*
Y51203D03*
Y61203D03*
Y71203D03*
Y81203D03*
Y91203D03*
Y101203D03*
Y111203D03*
Y121203D03*
X275521Y142769D03*
X274800Y158100D03*
X275100Y165000D03*
X274700Y171800D03*
X276383Y223417D03*
X276574Y326572D03*
Y334572D03*
Y338572D03*
Y342572D03*
Y346572D03*
Y354572D03*
Y358572D03*
X275200Y369700D03*
X279700Y158300D03*
X277999Y178199D03*
X278700Y209900D03*
X279731Y234100D03*
X278700Y318100D03*
X281373Y223091D03*
X281700Y226200D03*
X280475Y244813D03*
X280675Y264913D03*
X280500Y285700D03*
X280475Y304513D03*
X282574Y314572D03*
X281800Y321300D03*
X282574Y326572D03*
Y330572D03*
Y334572D03*
Y338572D03*
Y342572D03*
Y350572D03*
Y362572D03*
Y370572D03*
X282300Y378019D03*
X285600Y152327D03*
X283300Y159738D03*
Y162600D03*
Y165800D03*
Y169200D03*
Y173000D03*
X286158Y41203D03*
Y51203D03*
Y61203D03*
Y71203D03*
Y81203D03*
Y91203D03*
Y101203D03*
Y111203D03*
Y121203D03*
Y131203D03*
X287300Y191500D03*
X287400Y201500D03*
Y207300D03*
X286018Y227900D03*
X288200Y237200D03*
X288100Y247100D03*
Y253200D03*
X288000Y256900D03*
X288100Y264700D03*
X289800Y270100D03*
X290000Y273300D03*
X290100Y285700D03*
X290000Y305400D03*
X288574Y314572D03*
Y342572D03*
Y346572D03*
X291742Y180500D03*
X292100Y186700D03*
X292890Y221340D03*
X293000Y224200D03*
X291300Y233200D03*
X292400Y238900D03*
Y247100D03*
Y253200D03*
X292500Y257000D03*
X296158Y41203D03*
Y51203D03*
Y61203D03*
Y71203D03*
Y81203D03*
Y91203D03*
Y101203D03*
Y111203D03*
Y121203D03*
Y131203D03*
X295100Y144000D03*
X296800Y186700D03*
X296500Y221338D03*
Y224200D03*
X295800Y227700D03*
Y254100D03*
X295900Y260500D03*
X295500Y272900D03*
X295400Y285800D03*
Y293500D03*
X295500Y306800D03*
X294574Y314572D03*
Y318572D03*
Y322572D03*
Y326572D03*
Y330572D03*
Y338572D03*
Y342572D03*
Y350572D03*
Y354572D03*
Y362572D03*
Y370572D03*
X294388Y378019D03*
X299664Y152363D03*
X298175Y160613D03*
X297100Y180600D03*
X298500Y229569D03*
X297500Y234600D03*
X297900Y249700D03*
X298700Y266600D03*
X297300Y299900D03*
X299000Y343569D03*
X300400Y173600D03*
X300238Y198862D03*
X302500Y257200D03*
X301000Y296000D03*
X300574Y330572D03*
Y334572D03*
X305400Y143669D03*
X304900Y151300D03*
X303500Y195400D03*
X304300Y276000D03*
X304400Y291800D03*
X303700Y298900D03*
Y303569D03*
X303774Y309172D03*
Y313172D03*
Y317172D03*
Y321172D03*
X304900Y343509D03*
X306158Y41203D03*
Y51203D03*
Y61203D03*
Y71203D03*
Y81203D03*
Y91203D03*
Y101203D03*
Y111203D03*
Y121203D03*
Y131203D03*
X307000Y149000D03*
Y173500D03*
X306300Y196238D03*
Y199100D03*
X306000Y226100D03*
X306200Y229569D03*
X306000Y234600D03*
X306100Y296400D03*
X305900Y305500D03*
X306574Y330572D03*
Y334572D03*
Y350572D03*
Y354572D03*
Y362572D03*
Y370572D03*
X309450Y146750D03*
X308700Y176900D03*
X309100Y229500D03*
Y234700D03*
X311700Y144700D03*
X312600Y190300D03*
X311900Y205800D03*
X311300Y229500D03*
X311400Y234700D03*
X312700Y276000D03*
X312574Y302572D03*
X316158Y41203D03*
Y51203D03*
Y61203D03*
Y71203D03*
Y81203D03*
Y91203D03*
Y101203D03*
Y111203D03*
Y121203D03*
Y131203D03*
X315558Y153917D03*
X315600Y177931D03*
X316200Y220700D03*
X316540Y282200D03*
X315800Y335409D03*
X315500Y343400D03*
X315700Y354200D03*
X318858Y153817D03*
X317397Y166697D03*
X317100Y173000D03*
X318300Y234400D03*
X317400Y239500D03*
X317450Y268350D03*
X318250Y359119D03*
X317735Y369904D03*
X317723Y378019D03*
X320300Y151300D03*
X322411Y255889D03*
X320280Y282220D03*
X320300Y292500D03*
X320400Y337700D03*
X325158Y144317D03*
X323250Y146750D03*
X324700Y169000D03*
X324600Y185400D03*
X323900Y193700D03*
X322700Y220700D03*
X325032Y334928D03*
X322800Y344000D03*
X323300Y350000D03*
X323100Y353900D03*
X324300Y359900D03*
X324431Y364800D03*
X326158Y51203D03*
Y61203D03*
Y71203D03*
Y81203D03*
Y91203D03*
Y101203D03*
Y111203D03*
Y121203D03*
Y131203D03*
X327750Y214550D03*
Y225550D03*
X327400Y234800D03*
X327700Y276800D03*
X327100Y299700D03*
X327700Y307600D03*
X325900Y332200D03*
X326600Y357000D03*
X329400Y205800D03*
X330300Y234600D03*
X329700Y243200D03*
X330100Y271200D03*
X330699Y276600D03*
X330600Y282100D03*
X329300Y293100D03*
X330300Y365100D03*
X333700Y136000D03*
X332700Y211800D03*
X333400Y283400D03*
X332200Y312200D03*
X331600Y335200D03*
X333494Y337347D03*
X336158Y41203D03*
Y51203D03*
Y61203D03*
Y71203D03*
Y81203D03*
X334300Y93000D03*
X335231Y100200D03*
X336458Y108717D03*
X334675Y159001D03*
X335400Y179400D03*
X335450Y307150D03*
X336500Y344700D03*
X336000Y365200D03*
X334900Y378000D03*
X337258Y118017D03*
X338684Y145884D03*
X336900Y157200D03*
X339440Y155879D03*
X338316Y162616D03*
X337800Y304100D03*
X340358Y120717D03*
X341360Y153673D03*
X341200Y161500D03*
X341900Y170300D03*
X342000Y174800D03*
X340973Y262700D03*
X340100Y276600D03*
X341900Y292000D03*
X340950Y301651D03*
X344729Y41895D03*
Y51895D03*
Y61895D03*
Y71895D03*
X342600Y83800D03*
X342700Y91200D03*
X344200Y127500D03*
X343700Y137800D03*
X342900Y141831D03*
X343400Y148300D03*
X343100Y151400D03*
X343667Y160001D03*
X343800Y181900D03*
X342600Y187400D03*
Y192200D03*
X343500Y201100D03*
X343600Y222600D03*
X343700Y298100D03*
X346000Y227100D03*
X346800Y277000D03*
X345250Y288600D03*
X347800Y291700D03*
X345250Y294950D03*
X346600Y348200D03*
X346500Y365300D03*
X350700Y330400D03*
X352534Y82555D03*
X353058Y94917D03*
X353458Y105017D03*
X353400Y112200D03*
X353200Y117600D03*
X353382Y125140D03*
X351600Y133600D03*
X353100Y138100D03*
Y141700D03*
X353300Y148300D03*
Y152000D03*
X353100Y157700D03*
X353000Y162800D03*
X353300Y168200D03*
Y172000D03*
Y180100D03*
X352800Y187300D03*
X352500Y192600D03*
X353300Y198400D03*
X353400Y204700D03*
X353300Y214600D03*
X353600Y233900D03*
X353200Y247700D03*
X353300Y250900D03*
Y254600D03*
X353200Y262400D03*
Y277000D03*
X351450Y326850D03*
X354729Y41895D03*
Y51895D03*
Y61895D03*
Y71895D03*
X356400Y194800D03*
X353700Y226800D03*
Y237200D03*
Y269800D03*
X356078Y280254D03*
X355200Y285500D03*
X354400Y324400D03*
X355100Y330400D03*
X354100Y378019D03*
X358593Y288907D03*
X357150Y326850D03*
X358242Y336463D03*
X358000Y373700D03*
X360100Y215300D03*
X360600Y226500D03*
X361078Y280254D03*
X360606Y330300D03*
X360900Y335400D03*
X360000Y343300D03*
X361800Y378700D03*
X364729Y41895D03*
Y51895D03*
Y61895D03*
Y71895D03*
X363942Y75832D03*
Y80832D03*
Y85832D03*
Y90832D03*
Y95832D03*
Y100832D03*
Y105832D03*
Y110832D03*
X364600Y117400D03*
X363942Y120832D03*
Y125832D03*
Y130832D03*
Y135832D03*
Y140832D03*
Y150832D03*
Y160832D03*
Y170832D03*
Y180832D03*
Y190832D03*
Y195832D03*
Y200832D03*
Y205832D03*
Y210832D03*
X362400Y259700D03*
X364100Y269900D03*
X363100Y292500D03*
X363700Y298700D03*
X363800Y335400D03*
X363700Y341700D03*
X365300Y214500D03*
X367531Y246400D03*
X366078Y275254D03*
Y280254D03*
Y285254D03*
X365800Y346100D03*
X366500Y373600D03*
X367900Y235200D03*
X368500Y292800D03*
X369300Y298500D03*
Y343300D03*
X372500Y255100D03*
X371078Y275254D03*
Y280254D03*
Y285254D03*
X374729Y51895D03*
Y61895D03*
Y71895D03*
X375700Y85400D03*
X375600Y95100D03*
X375500Y105200D03*
X375400Y112200D03*
X375800Y117500D03*
X375500Y125200D03*
X375600Y135400D03*
Y142800D03*
Y149900D03*
X375700Y157600D03*
X373600Y163900D03*
X375600Y175200D03*
Y185300D03*
X375700Y194900D03*
Y205200D03*
X375500Y211900D03*
Y217100D03*
X375600Y222319D03*
X376100Y245700D03*
Y252500D03*
X376000Y257700D03*
X375800Y265000D03*
X376078Y275254D03*
Y280254D03*
Y285254D03*
X377800Y235300D03*
X377300Y292500D03*
X377200Y301700D03*
X377100Y304900D03*
X377000Y308000D03*
X376400Y311300D03*
X378100Y328700D03*
X381100Y275300D03*
X381078Y280254D03*
Y285254D03*
X381900Y319100D03*
X381800Y325400D03*
X380100Y352000D03*
X380300Y359600D03*
X383300Y44500D03*
X384300Y154400D03*
X382100Y165000D03*
X382200Y175100D03*
Y185200D03*
X382100Y195000D03*
X382200Y205100D03*
X384469Y216800D03*
X382919Y235200D03*
X382500Y292500D03*
X382900Y301800D03*
Y304900D03*
Y307800D03*
X382800Y311400D03*
X382900Y328800D03*
X385100Y121000D03*
X386400Y125300D03*
Y135500D03*
Y143600D03*
X386379Y224609D03*
X385600Y227800D03*
Y250300D03*
Y258500D03*
X388300Y72200D03*
Y85800D03*
Y94900D03*
Y105100D03*
X388400Y111300D03*
X388500Y116700D03*
X388300Y255800D03*
X388500Y265000D03*
X388400Y282900D03*
Y317200D03*
Y348500D03*
X388500Y353300D03*
X388300Y364700D03*
X388400Y378500D03*
G54D11*
X18900Y42700D03*
Y384800D03*
X374800Y42700D03*
Y384800D03*
G54D20*
X228052Y44179D03*
X323328D03*
G54D21*
X271600Y167394D03*
Y174206D03*
G54D12*
X16920Y250472D03*
Y266220D03*
G54D22*
G01X110000Y214600D02*
Y208500D01*
X112000Y206500D01*
Y195000D01*
G01X222600Y162700D02*
X223150Y162150D01*
G01D02*
X228650D01*
G01X234300Y162100D02*
X231178D01*
X231128Y162150D01*
X228650D01*
G01X234300Y162100D02*
X240000D01*
G01D02*
X245500D01*
G01D02*
X250900D01*
G01X255100Y168842D02*
X253347Y167089D01*
X253189D01*
X250900Y164800D01*
Y162100D01*
G01X272000Y205500D02*
X267558D01*
X262650Y200592D01*
G01X266600Y161100D02*
X267600Y162100D01*
G01D02*
X271950D01*
G01X276900Y194200D02*
Y189258D01*
X273092Y185450D01*
G01X278250Y162100D02*
X276068D01*
G01X275100Y163068D02*
Y162819D01*
X275819Y162100D01*
X276068D01*
G01X275100Y163068D02*
Y165000D01*
G01X273607Y179363D02*
X274974Y177996D01*
Y176863D01*
X277631Y174206D01*
G01X275884Y216150D02*
Y220440D01*
X276383Y220939D01*
Y223417D01*
G01X284673Y213561D02*
X282084Y216150D01*
G01X283500Y195300D02*
X284300Y194500D01*
G01D02*
X289150D01*
X293512Y198862D01*
X297312D01*
G01X300238D02*
X297312D01*
G01D02*
X297150Y198700D01*
G54D13*
X36750Y306900D03*
X43050D03*
X81250Y221000D03*
X81750Y243800D03*
X87550Y221000D03*
X88050Y243800D03*
X104750Y74400D03*
X106650Y129100D03*
X111050Y74400D03*
X112950Y129100D03*
X116250Y276600D03*
X122750Y84500D03*
X122550Y276600D03*
X129050Y84500D03*
X127550Y210700D03*
X130750Y32000D03*
X131450Y96400D03*
X133850Y210700D03*
X137050Y32000D03*
X137750Y96400D03*
X137850Y254500D03*
X144150D03*
X163250Y252900D03*
X169550D03*
X262650Y200100D03*
X268950D03*
X271850Y134400D03*
X278150D03*
X280950Y197600D03*
X287250D03*
X297150Y198700D03*
X303450D03*
G54D23*
G01X43050Y306900D02*
X47900D01*
G01X61300Y142400D02*
X60200Y141300D01*
Y138400D01*
G01X74650Y261100D02*
X77800Y264250D01*
Y265200D01*
G01X74450Y266900D02*
X76050Y265200D01*
X77800D01*
G01X89649Y213850D02*
X86300Y210501D01*
Y196300D01*
G01X88100Y227150D02*
X94150D01*
X94300Y227000D01*
G01X88000Y265250D02*
X88850Y266100D01*
X91322D01*
G01X92800Y213550D02*
X92842Y213850D01*
X92811Y213881D01*
X90589D01*
X90558Y213850D01*
X89649D01*
G01X92800Y210491D02*
Y213550D01*
G01X104350Y209700D02*
X103750Y207350D01*
X103900Y207200D01*
G01X120100Y266050D02*
X116350D01*
X116000Y266400D01*
G01X127550Y210700D02*
Y207250D01*
X127300Y207000D01*
G01X131200Y266150D02*
X136850D01*
X137200Y265800D01*
G01X136400Y277450D02*
Y280000D01*
G01X145500Y206050D02*
X147400D01*
X147750Y206400D01*
G01X150850Y229500D02*
X151610Y229300D01*
G01X150800Y232800D02*
X150850Y232850D01*
Y234744D01*
X151300Y235194D01*
G01D02*
X151780D01*
G01X150200Y265836D02*
X163900D01*
G01D02*
X167014D01*
X168900Y265850D01*
G01X254200Y199100D02*
X257178D01*
X258178Y200100D01*
X262650D01*
G01Y200592D02*
Y200100D01*
G01X271850Y134400D02*
X269300D01*
G01X273092Y185450D02*
X272600D01*
G01X278300Y165463D02*
Y162150D01*
X278250Y162100D01*
G01X278300Y167394D02*
Y165463D01*
G01X278069Y180997D02*
Y183011D01*
X280508Y185450D01*
X281000D01*
G01X282084Y216150D02*
X281592D01*
G01X281373Y223091D02*
Y219247D01*
X281592Y219028D01*
Y216150D01*
G01X335450Y304100D02*
X337800D01*
G01X335450D02*
Y307150D01*
G01X340950Y298100D02*
X343700D01*
G01X340950D02*
Y301651D01*
G01X345250Y291700D02*
Y288600D01*
G01Y291700D02*
Y294950D01*
G01Y291700D02*
X347800D01*
G01X354400Y326850D02*
X351450D01*
G01X354400D02*
Y324400D01*
G01Y326850D02*
X357150D01*
G01X358300Y219900D02*
X363400Y225000D01*
X382700D01*
X385500Y227800D01*
X385600D01*
G01Y258500D02*
Y250300D01*
G54D14*
X54050Y138100D03*
X60350D03*
X68350Y261100D03*
X68150Y266900D03*
X74650Y261100D03*
X74450Y266900D03*
X98050Y209700D03*
X104350D03*
X144550Y217800D03*
Y223700D03*
Y229500D03*
X145050Y247900D03*
X150850Y217800D03*
Y223700D03*
Y229500D03*
X151350Y247900D03*
X271950Y162100D03*
X278250D03*
X329150Y304100D03*
X334650Y298100D03*
X335450Y304100D03*
X338950Y291700D03*
X340950Y298100D03*
X345250Y291700D03*
G54D24*
G01X105000Y135500D02*
X98100Y142400D01*
X61300D01*
G01X104500Y70800D02*
X68700D01*
X64100Y75400D01*
G01X81250Y221000D02*
X78400Y221100D01*
G01X77400Y232500D02*
X82900Y227000D01*
X94300D01*
G01X81750Y243800D02*
X78000D01*
G01X91322Y266100D02*
X90422Y265200D01*
X77800D01*
G01X94800Y266100D02*
X94100Y266800D01*
Y271800D01*
X90400Y275500D01*
Y280800D01*
G01X91322Y266100D02*
X94800D01*
G01D02*
X98250D01*
X98300Y266050D01*
G01X101700Y257700D02*
X99650Y259750D01*
X98300D01*
G01X104750Y74400D02*
Y71050D01*
X104500Y70800D01*
G01X102700Y194700D02*
Y194900D01*
X103900Y196100D01*
Y207200D01*
G01D02*
Y224200D01*
X106500Y226800D01*
G01X105000Y135500D02*
X106650Y133850D01*
Y129100D01*
G01X104400Y277350D02*
Y280000D01*
G01X111100Y95650D02*
Y91400D01*
X113300Y89200D01*
G01X116250Y276600D02*
Y280412D01*
X116000Y280662D01*
G01D02*
Y266400D01*
G01X119200Y141850D02*
X119692D01*
G01X122750Y84500D02*
Y88550D01*
X122000Y89300D01*
G01X127300Y207000D02*
Y223100D01*
X130600Y226400D01*
G01X130750Y32000D02*
Y29650D01*
X128200Y27100D01*
G01X126949Y277500D02*
X127200D01*
G01D02*
X130450D01*
X130500Y277450D01*
G01D02*
X135770D01*
G01X135257Y205976D02*
X133850Y207383D01*
Y210700D01*
G01X135770Y277450D02*
X135670Y277350D01*
G01X147750Y206400D02*
X142900D01*
X137400Y211900D01*
Y226700D01*
G01X145400Y238400D02*
X137600D01*
G01X142200Y277450D02*
X136400D01*
G01D02*
X135770D01*
G01X145751D02*
X142200D01*
G01X149369Y213859D02*
X149299Y213929D01*
X148643D01*
X148614Y213900D01*
X144900D01*
G01X144550Y223700D02*
Y217800D01*
G01Y223700D02*
X144500Y227350D01*
Y233850D01*
X144550Y229500D01*
G01X151000Y238450D02*
X145450D01*
X145400Y238400D01*
G01X163200D02*
X145400D01*
G01X151600Y212100D02*
X149936Y213764D01*
X149464D01*
Y213859D01*
G01D02*
X149369D01*
G01X150850Y217800D02*
Y215950D01*
X149464Y214564D01*
Y213859D01*
G01X149369D02*
X149342D01*
G01X147200Y298550D02*
X149550D01*
X149800Y298800D01*
G01X150850Y223700D02*
Y217800D01*
G01Y223700D02*
Y229500D01*
G01D02*
Y232750D01*
X150800Y232800D01*
G01X157000Y298650D02*
X154250D01*
X154100Y298800D01*
G54D15*
X88100Y227150D03*
Y233450D03*
X92800Y213550D03*
Y219850D03*
X111100Y95650D03*
Y101950D03*
X147200Y298550D03*
Y304850D03*
X157000Y298650D03*
Y304950D03*
X272600Y185450D03*
Y191750D03*
X281000Y185450D03*
Y191750D03*
X354400Y326850D03*
Y333150D03*
G54D25*
G01X104500Y88900D02*
Y70800D01*
G01X107500Y106900D02*
X104500Y103900D01*
Y88900D01*
G01X119200Y141850D02*
X114330D01*
X114280Y141800D01*
X111300D01*
X105000Y135500D01*
G01X115500Y29800D02*
X111200D01*
X109500Y31500D01*
Y44800D01*
G01X119200Y141850D02*
Y142900D01*
X126950Y150650D01*
G01X210400Y284200D02*
X215000Y288800D01*
G01X210400Y291900D02*
X211000Y291300D01*
X213200D01*
X215000Y289500D01*
Y288800D01*
G01X210400Y273200D02*
Y284200D01*
G01X210300Y288600D02*
X210400Y284200D01*
G01Y291900D02*
X210300Y288600D01*
G01X215000Y288800D02*
Y273300D01*
G54D16*
X88000Y258950D03*
Y265250D03*
X98300Y259750D03*
Y266050D03*
X104400Y271050D03*
Y277350D03*
X119200Y135550D03*
Y141850D03*
X120100Y259750D03*
Y266050D03*
X131200Y259850D03*
Y266150D03*
X130500Y271150D03*
Y277450D03*
X136400Y271150D03*
Y277450D03*
X142200Y271150D03*
Y277450D03*
X145500Y199750D03*
Y206050D03*
X168900Y259550D03*
Y265850D03*
X275884Y209850D03*
Y216150D03*
X281592Y209850D03*
Y216150D03*
G54D26*
G01X60200Y138400D02*
X60350Y138100D01*
G01X61440Y142121D02*
X61300Y142400D01*
G01X128600Y89200D02*
X131450Y92050D01*
Y96400D01*
G01X137850Y254500D02*
X135400D01*
G01X137850D02*
Y251600D01*
G01Y254500D02*
Y257650D01*
G01X151600Y249068D02*
Y246350D01*
X151350Y247900D01*
G01X163250Y252900D02*
X152500D01*
X151600Y252000D01*
G01X273607Y179363D02*
Y184935D01*
G01X277999Y178199D02*
Y180927D01*
X278069Y180997D01*
G01X358200Y262200D02*
X353200Y267200D01*
X337300D01*
X325989Y255889D01*
X322411D01*
G54D17*
X151300Y235194D03*
Y242006D03*
X278300Y167394D03*
Y174206D03*
G54D27*
G01X151600Y249068D02*
X151300Y248768D01*
Y242006D01*
G01X151600Y252000D02*
Y249068D01*
G54D18*
X194000Y207100D03*
Y217100D03*
Y227100D03*
Y237100D03*
Y247100D03*
Y257100D03*
X204000Y207100D03*
Y217100D03*
Y227100D03*
Y237100D03*
Y247100D03*
Y257100D03*
Y267100D03*
X348300Y79900D03*
Y89900D03*
Y99900D03*
Y109900D03*
Y119900D03*
Y129900D03*
Y139900D03*
Y149900D03*
Y159900D03*
Y169900D03*
Y179900D03*
Y189900D03*
Y199900D03*
Y209900D03*
X348200Y232200D03*
Y242200D03*
Y252200D03*
Y262200D03*
X358300Y79900D03*
Y89900D03*
Y99900D03*
Y109900D03*
Y119900D03*
Y129900D03*
Y139900D03*
Y149900D03*
Y159900D03*
Y169900D03*
Y179900D03*
Y189900D03*
Y199900D03*
Y209900D03*
Y219900D03*
X358200Y232200D03*
Y242200D03*
Y252200D03*
Y262200D03*
Y272200D03*
X370500Y80100D03*
Y90100D03*
Y100100D03*
Y110100D03*
Y120100D03*
Y130100D03*
Y140100D03*
Y150100D03*
Y160100D03*
Y170100D03*
Y180100D03*
Y190100D03*
Y200100D03*
Y210100D03*
Y220100D03*
Y230100D03*
Y240100D03*
Y250100D03*
Y260100D03*
X380500Y80100D03*
Y90100D03*
Y100100D03*
Y110100D03*
Y120100D03*
Y130100D03*
Y140100D03*
Y150100D03*
Y160100D03*
Y170100D03*
Y180100D03*
Y190100D03*
Y200100D03*
Y210100D03*
Y220100D03*
Y230100D03*
Y240100D03*
Y250100D03*
Y260100D03*
Y270100D03*
G54D28*
G01X9100Y191500D02*
X11300Y193700D01*
Y208000D01*
X27501Y224201D01*
X28329D01*
X28330Y224200D01*
X60201D01*
X62700Y226699D01*
Y229000D01*
G01X14700Y191600D02*
X12300Y194000D01*
Y207585D01*
X27915Y223200D01*
X64700D01*
X66200Y224700D01*
Y230600D01*
G01X99900Y109800D02*
X93800Y103700D01*
X24551D01*
X14651Y113600D01*
X12600D01*
G01X49273Y177172D02*
X44245Y182200D01*
X26199D01*
X16900Y172901D01*
Y132443D01*
X16899Y132442D01*
Y131200D01*
X16900Y131199D01*
Y123499D01*
X32699Y107700D01*
X91576D01*
X97188Y113312D01*
Y115775D01*
G01X94017Y119300D02*
Y112263D01*
X90954Y109200D01*
X33321D01*
X18400Y124121D01*
Y172279D01*
X26461Y180340D01*
X40505D01*
X43859Y176986D01*
G01X38341Y176886D02*
X35423Y178840D01*
X27083D01*
X19900Y171657D01*
Y124743D01*
X33943Y110700D01*
X88900D01*
X90899Y112699D01*
Y115844D01*
G01X87715Y119100D02*
Y113114D01*
X86801Y112200D01*
X34565D01*
X21400Y125365D01*
Y171035D01*
X27265Y176900D01*
X32455D01*
G01X41354Y261500D02*
X39778Y259924D01*
X39724D01*
X39089Y259289D01*
Y256611D01*
X45101Y250599D01*
X52899D01*
X54300Y252000D01*
Y252085D01*
X54900Y252685D01*
Y262385D01*
X60800Y268285D01*
Y271100D01*
X61776Y272076D01*
X65424D01*
X67000Y270500D01*
G01X40000Y339000D02*
Y338700D01*
X40223Y338477D01*
X57823D01*
G01X41325Y258047D02*
Y255819D01*
X45544Y251600D01*
X52400D01*
X53900Y253100D01*
Y262800D01*
X59800Y268700D01*
Y271515D01*
X61361Y273076D01*
X65156D01*
X67122Y275042D01*
G01X61300Y275800D02*
X53300D01*
G01X78500Y240300D02*
X76100D01*
X70400Y234600D01*
X62800D01*
G01X67094Y134714D02*
Y126894D01*
X65623Y125423D01*
Y116095D01*
G01X68853Y66400D02*
Y54352D01*
X67305Y52804D01*
Y42295D01*
G01X70271Y136069D02*
Y126671D01*
X68750Y125150D01*
Y119113D01*
X68606Y118969D01*
G01X72003Y63185D02*
Y54203D01*
X70400Y52600D01*
Y44800D01*
G01X75130Y66400D02*
Y54130D01*
X73604Y52604D01*
Y42096D01*
G01X73442Y134676D02*
Y126641D01*
X71921Y125120D01*
Y116035D01*
G01X78272Y63185D02*
Y54072D01*
X76754Y52554D01*
Y44846D01*
G01X75048Y119000D02*
Y124847D01*
X76569Y126368D01*
Y136143D01*
G01X81449Y66500D02*
Y54050D01*
X79903Y52504D01*
Y41997D01*
G01X78290Y116035D02*
Y124991D01*
X79811Y126512D01*
Y134676D01*
G01X79400Y297600D02*
X88400D01*
G01X84670Y63125D02*
Y54070D01*
X83000Y52400D01*
Y45100D01*
G01X81417Y119100D02*
Y125017D01*
X82938Y126538D01*
Y136143D01*
G01X84588Y115975D02*
Y125287D01*
X86109Y126808D01*
Y134616D01*
G01X87797Y66100D02*
Y53897D01*
X86202Y52302D01*
Y41998D01*
G01X89236Y136083D02*
Y126536D01*
X87715Y125015D01*
Y119100D01*
G01X92411Y134476D02*
Y126612D01*
X90899Y125100D01*
Y115844D01*
G01D02*
X90890Y115835D01*
G01X92502Y41902D02*
Y52302D01*
X94149Y53949D01*
Y66300D01*
G01D02*
X100399D01*
X107099Y59600D01*
X110700D01*
G01X95538Y135943D02*
Y126538D01*
X94017Y125017D01*
Y119300D01*
G01X92800Y219850D02*
X95050Y220150D01*
X95100Y220200D01*
X96351D01*
G01X95651Y45249D02*
Y52052D01*
X97299Y53700D01*
Y62912D01*
G01X98709Y134416D02*
Y126508D01*
X97188Y124987D01*
Y115775D01*
G01X115939Y208689D02*
X118900Y205728D01*
Y193296D01*
X117100Y191496D01*
Y189268D01*
G01X128980Y183400D02*
Y188420D01*
X120950Y196450D01*
Y208050D01*
G01X130500Y277450D02*
X127250D01*
X127200Y277500D01*
G01X145831Y235200D02*
Y233600D01*
X144700Y232469D01*
X144550D01*
Y229500D01*
G01X166485Y255800D02*
X155300D01*
X152100Y259000D01*
G01X164300Y272500D02*
X161600D01*
G01X164100Y233600D02*
X169350Y228350D01*
G01X172500Y245900D02*
X174500Y247900D01*
Y257100D01*
G01X193200Y283900D02*
X191624Y285476D01*
X190824D01*
X190033Y286267D01*
Y304867D01*
G01X200295Y217100D02*
X204000D01*
G01X200295Y227100D02*
X204000D01*
G01X200295Y237100D02*
X204000D01*
G01X200295Y257100D02*
X204000D01*
G01Y213395D02*
Y217100D01*
G01D02*
Y220805D01*
G01Y217100D02*
X207705D01*
G01X204000Y223395D02*
Y227100D01*
G01D02*
Y230805D01*
G01Y227100D02*
X207705D01*
G01X204000Y233395D02*
Y237100D01*
G01D02*
Y240805D01*
G01Y237100D02*
X207705D01*
G01X204000Y253395D02*
Y257100D01*
G01D02*
Y260805D01*
G01Y257100D02*
X207705D01*
G01X236300Y169900D02*
X234073Y167673D01*
X224427D01*
X222200Y169900D01*
G01X225200Y180000D02*
Y172500D01*
X227800Y169900D01*
X230200D01*
G01X227421Y249452D02*
X250459D01*
G01X227422Y255751D02*
X250459D01*
G01X227426Y262201D02*
X250459D01*
G01X230969Y180300D02*
X232896Y182227D01*
X239373D01*
X241600Y180000D01*
G01X230834Y252523D02*
X254159D01*
G01X230834Y259052D02*
X254047D01*
G01X230834Y265351D02*
X254048D01*
G01X235831Y180296D02*
X237198Y178929D01*
X237271D01*
X240500Y175700D01*
Y174100D01*
X244700Y169900D01*
G01X271600Y167394D02*
X278300D01*
G01X274700Y171800D02*
Y173732D01*
X274226Y174206D01*
X271600D01*
G01X273607Y184935D02*
X273092Y185450D01*
G01X275100Y163068D02*
X276068Y162100D01*
G01X277631Y174206D02*
X278300D01*
G01X278250Y162100D02*
Y165413D01*
X278300Y165463D01*
G01X304900Y151300D02*
X320300D01*
G01X304300Y276000D02*
X312700D01*
G01X306100Y296400D02*
X316400D01*
X320300Y292500D01*
G01X305900Y305500D02*
X321300D01*
X327100Y299700D01*
G01X309450Y146750D02*
X323250D01*
G01X330600Y282100D02*
X329600Y283100D01*
X325502D01*
X324622Y282220D01*
X320280D01*
G01X327750Y225550D02*
Y214550D01*
G01X330300Y234600D02*
X337200Y241500D01*
Y258927D01*
X340973Y262700D01*
G01X330699Y276600D02*
X340100D01*
G01X336900Y157200D02*
X341200Y161500D01*
G01X353300Y152000D02*
X350700Y154600D01*
X346300D01*
X343100Y151400D01*
G01X344595Y199900D02*
X348300D01*
G01X344595Y209900D02*
X348300D01*
G01X344595Y219900D02*
X348300D01*
G01Y196195D02*
Y199900D01*
G01D02*
Y203605D01*
G01Y199900D02*
X352005D01*
G01X348300Y206195D02*
Y209900D01*
G01D02*
Y213605D01*
G01Y209900D02*
X352005D01*
G01X348300Y216195D02*
Y219900D01*
G01D02*
Y223605D01*
G01Y219900D02*
X352005D01*
G01X354495Y232200D02*
X358200D01*
G01X353700Y237200D02*
X361600D01*
X363600Y235200D01*
X367900D01*
G01X367531Y246400D02*
X363100D01*
X361800Y247700D01*
X353200D01*
G01X354495Y272200D02*
X358200D01*
G01Y228495D02*
Y232200D01*
G01D02*
Y235905D01*
G01Y232200D02*
X361905D01*
G01X358200Y268495D02*
Y272200D01*
G01D02*
Y275905D01*
G01Y272200D02*
X361905D01*
G01X366795Y80100D02*
X370500D01*
G01X366795Y150100D02*
X370500D01*
G01X366795Y230100D02*
X370500D01*
G01Y76395D02*
Y80100D01*
G01D02*
Y83805D01*
G01Y80100D02*
X374205D01*
G01X370500Y146395D02*
Y150100D01*
G01D02*
Y153805D01*
G01Y150100D02*
X374205D01*
G01X370500Y230100D02*
Y233805D01*
G01Y230100D02*
X374205D01*
G01X376795Y110100D02*
X380500D01*
G01X376795Y130100D02*
X380500D01*
G01X376795Y180100D02*
X380500D01*
G01X376795Y210100D02*
X380500D01*
G01X376795Y250100D02*
X380500D01*
G01Y106395D02*
Y110100D01*
G01D02*
Y113805D01*
G01Y110100D02*
X384205D01*
G01X380500Y126395D02*
Y130100D01*
G01D02*
Y133805D01*
G01Y130100D02*
X384205D01*
G01X380500Y176395D02*
Y180100D01*
G01D02*
Y183805D01*
G01Y180100D02*
X384205D01*
G01X380500Y206395D02*
Y210100D01*
G01D02*
Y213805D01*
G01Y210100D02*
X384205D01*
G01X380500Y246395D02*
Y250100D01*
G01D02*
Y253805D01*
G54D19*
X194000Y267100D03*
X348300Y219900D03*
X348200Y272200D03*
X370500Y270100D03*
M02*
