G04 ================== begin FILE IDENTIFICATION RECORD ==================*
G04 Layout Name:  Beamforming_PCB_Ver1_0_1.brd*
G04 Film Name:    paste_top*
G04 File Format:  Gerber RS274X*
G04 File Origin:  Cadence Allegro 16.6-2015-S066*
G04 Origin Date:  Wed Mar 17 23:20:38 2021*
G04 *
G04 Layer:  VIA CLASS/PASTEMASK_TOP*
G04 Layer:  PIN/PASTEMASK_TOP*
G04 Layer:  PACKAGE GEOMETRY/PASTEMASK_TOP*
G04 *
G04 Offset:    (0.00 0.00)*
G04 Mirror:    No*
G04 Mode:      Positive*
G04 Rotation:  0*
G04 FullContactRelief:  No*
G04 UndefLineWidth:     0.00*
G04 ================== end FILE IDENTIFICATION RECORD ====================*
%FSLAX25Y25*MOIN*%
%IR0*IPPOS*OFA0.00000B0.00000*MIA0B0*SFA1.00000B1.00000*%
%AMMACRO16*
4,1,40,-.03051,-.02921,
.03051,-.02921,
.031194,-.029151,
.031857,-.028974,
.032479,-.028684,
.033041,-.028291,
.033527,-.027806,
.033921,-.027245,
.034211,-.026623,
.03439,-.02596,
.03445,-.02528,
.03445,.02528,
.034389,.025963,
.03421,.026626,
.033919,.027247,
.033525,.027809,
.033039,.028293,
.032476,.028686,
.031854,.028975,
.031191,.029151,
.03051,.02921,
-.03051,.02921,
-.031194,.029151,
-.031857,.028974,
-.032479,.028684,
-.033041,.028291,
-.033527,.027806,
-.033921,.027245,
-.034211,.026623,
-.03439,.02596,
-.03445,.02528,
-.03445,-.02528,
-.034389,-.025963,
-.03421,-.026626,
-.033919,-.027247,
-.033525,-.027809,
-.033039,-.028293,
-.032476,-.028686,
-.031854,-.028975,
-.031191,-.029151,
-.03051,-.02921,
0.0*
%
%ADD16MACRO16*%
%AMMACRO39*
4,1,38,.00394,.02559,
.00394,-.02559,
.00388,-.026274,
.003702,-.026938,
.003412,-.02756,
.003018,-.028123,
.002532,-.028608,
.00197,-.029002,
.001347,-.029292,
.000684,-.02947,
0.0,-.02953,
-.000684,-.02947,
-.001348,-.029292,
-.00197,-.029002,
-.002533,-.028608,
-.003018,-.028122,
-.003412,-.02756,
-.003702,-.026937,
-.00388,-.026274,
-.00394,-.02559,
-.00394,.02559,
-.00388,.026274,
-.003702,.026938,
-.003412,.02756,
-.003018,.028123,
-.002532,.028608,
-.00197,.029002,
-.001347,.029292,
-.000684,.02947,
0.0,.02953,
.000684,.02947,
.001348,.029292,
.00197,.029002,
.002533,.028608,
.003018,.028122,
.003412,.02756,
.003702,.026937,
.00388,.026274,
.00394,.02559,
0.0*
%
%ADD39MACRO39*%
%AMMACRO38*
4,1,38,.02559,-.00394,
-.02559,-.00394,
-.026274,-.00388,
-.026938,-.003702,
-.02756,-.003412,
-.028123,-.003018,
-.028608,-.002532,
-.029002,-.00197,
-.029292,-.001347,
-.02947,-.000684,
-.02953,0.0,
-.02947,.000684,
-.029292,.001348,
-.029002,.00197,
-.028608,.002533,
-.028122,.003018,
-.02756,.003412,
-.026937,.003702,
-.026274,.00388,
-.02559,.00394,
.02559,.00394,
.026274,.00388,
.026938,.003702,
.02756,.003412,
.028123,.003018,
.028608,.002532,
.029002,.00197,
.029292,.001347,
.02947,.000684,
.02953,0.0,
.02947,-.000684,
.029292,-.001348,
.029002,-.00197,
.028608,-.002533,
.028122,-.003018,
.02756,-.003412,
.026937,-.003702,
.026274,-.00388,
.02559,-.00394,
0.0*
%
%ADD38MACRO38*%
%ADD17C,.07874*%
%ADD23R,.16535X.07087*%
%ADD46R,.07087X.16535*%
%AMMACRO34*
4,1,44,.0187,.01575,
-.0187,.01575,
-.019384,.01569,
-.020047,.015513,
-.020669,.015223,
-.021232,.01483,
-.021718,.014344,
-.022112,.013782,
-.022402,.01316,
-.02258,.012497,
-.02264,.011813,
-.02264,.01181,
-.02264,-.01181,
-.02258,-.012494,
-.022403,-.013157,
-.022113,-.013779,
-.02172,-.014342,
-.021234,-.014828,
-.020672,-.015222,
-.02005,-.015512,
-.019387,-.01569,
-.018703,-.01575,
-.0187,-.01575,
.0187,-.01575,
.019384,-.01569,
.020047,-.015513,
.020669,-.015223,
.021232,-.01483,
.021718,-.014344,
.022112,-.013782,
.022402,-.01316,
.02258,-.012497,
.02264,-.011813,
.02264,-.01181,
.02264,.01181,
.02258,.012494,
.022403,.013157,
.022113,.013779,
.02172,.014342,
.021234,.014828,
.020672,.015222,
.02005,.015512,
.019387,.01569,
.018703,.01575,
.0187,.01575,
0.0*
%
%ADD34MACRO34*%
%AMMACRO29*
4,1,44,-.01575,.0187,
-.01575,-.0187,
-.01569,-.019384,
-.015513,-.020047,
-.015223,-.020669,
-.01483,-.021232,
-.014344,-.021718,
-.013782,-.022112,
-.01316,-.022402,
-.012497,-.02258,
-.011813,-.02264,
-.01181,-.02264,
.01181,-.02264,
.012494,-.02258,
.013157,-.022403,
.013779,-.022113,
.014342,-.02172,
.014828,-.021234,
.015222,-.020672,
.015512,-.02005,
.01569,-.019387,
.01575,-.018703,
.01575,-.0187,
.01575,.0187,
.01569,.019384,
.015513,.020047,
.015223,.020669,
.01483,.021232,
.014344,.021718,
.013782,.022112,
.01316,.022402,
.012497,.02258,
.011813,.02264,
.01181,.02264,
-.01181,.02264,
-.012494,.02258,
-.013157,.022403,
-.013779,.022113,
-.014342,.02172,
-.014828,.021234,
-.015222,.020672,
-.015512,.02005,
-.01569,.019387,
-.01575,.018703,
-.01575,.0187,
0.0*
%
%ADD29MACRO29*%
%AMMACRO32*
4,1,44,-.01865,-.00752,
-.00752,-.01865,
-.006991,-.019088,
-.006398,-.019432,
-.005753,-.019667,
-.005078,-.019787,
-.004392,-.019788,
-.003716,-.019669,
-.003072,-.019436,
-.002477,-.019093,
-.001951,-.018653,
-.00195,-.01865,
.01865,.00195,
.019092,.002475,
.019434,.003069,
.019669,.003714,
.019788,.004389,
.019787,.005075,
.019668,.005751,
.019433,.006395,
.01909,.006989,
.018648,.007514,
.01865,.00752,
.00752,.01865,
.006991,.019088,
.006398,.019432,
.005753,.019667,
.005078,.019787,
.004392,.019788,
.003716,.019669,
.003072,.019436,
.002477,.019093,
.001951,.018653,
.00195,.01865,
-.01865,-.00195,
-.019092,-.002475,
-.019434,-.003069,
-.019669,-.003714,
-.019788,-.004389,
-.019787,-.005075,
-.019668,-.005751,
-.019433,-.006395,
-.01909,-.006989,
-.018648,-.007514,
-.01865,-.00752,
0.0*
%
%ADD32MACRO32*%
%AMMACRO22*
4,1,40,-.0185,.00787,
-.0185,-.00787,
-.018441,-.008553,
-.018264,-.009216,
-.017975,-.009838,
-.017582,-.010401,
-.017098,-.010886,
-.016536,-.01128,
-.015915,-.011571,
-.015253,-.011749,
-.01457,-.01181,
.01457,-.01181,
.015253,-.011749,
.015916,-.011571,
.016537,-.01128,
.017098,-.010886,
.017583,-.0104,
.017975,-.009838,
.018264,-.009216,
.018441,-.008553,
.0185,-.00787,
.0185,.00787,
.018441,.008553,
.018264,.009216,
.017975,.009838,
.017582,.010401,
.017098,.010886,
.016536,.01128,
.015915,.011571,
.015253,.011749,
.01457,.01181,
-.01457,.01181,
-.015253,.011749,
-.015916,.011571,
-.016537,.01128,
-.017098,.010886,
-.017583,.0104,
-.017975,.009838,
-.018264,.009216,
-.018441,.008553,
-.0185,.00787,
0.0*
%
%ADD22MACRO22*%
%AMMACRO20*
4,1,40,.00787,.0185,
-.00787,.0185,
-.008553,.018441,
-.009216,.018264,
-.009838,.017975,
-.010401,.017582,
-.010886,.017098,
-.01128,.016536,
-.011571,.015915,
-.011749,.015253,
-.01181,.01457,
-.01181,-.01457,
-.011749,-.015253,
-.011571,-.015916,
-.01128,-.016537,
-.010886,-.017098,
-.0104,-.017583,
-.009838,-.017975,
-.009216,-.018264,
-.008553,-.018441,
-.00787,-.0185,
.00787,-.0185,
.008553,-.018441,
.009216,-.018264,
.009838,-.017975,
.010401,-.017582,
.010886,-.017098,
.01128,-.016536,
.011571,-.015915,
.011749,-.015253,
.01181,-.01457,
.01181,.01457,
.011749,.015253,
.011571,.015916,
.01128,.016537,
.010886,.017098,
.0104,.017583,
.009838,.017975,
.009216,.018264,
.008553,.018441,
.00787,.0185,
0.0*
%
%ADD20MACRO20*%
%AMMACRO45*
4,1,44,-.02018,-.00626,
-.00626,-.02018,
-.005737,-.020624,
-.005143,-.020967,
-.004498,-.021202,
-.003822,-.021321,
-.003136,-.021321,
-.00246,-.021202,
-.001815,-.020967,
-.001221,-.020624,
-.000695,-.020183,
-.00069,-.02018,
.02018,.00069,
.020621,.001216,
.020965,.00181,
.0212,.002454,
.021321,.00313,
.021322,.003816,
.021203,.004492,
.02097,.005138,
.020627,.005732,
.020187,.006259,
.02018,.00626,
.00626,.02018,
.005737,.020624,
.005143,.020967,
.004498,.021202,
.003822,.021321,
.003136,.021321,
.00246,.021202,
.001815,.020967,
.001221,.020624,
.000695,.020183,
.00069,.02018,
-.02018,-.00069,
-.020621,-.001216,
-.020965,-.00181,
-.0212,-.002454,
-.021321,-.00313,
-.021322,-.003816,
-.021203,-.004492,
-.02097,-.005138,
-.020627,-.005732,
-.020187,-.006259,
-.02018,-.00626,
0.0*
%
%ADD45MACRO45*%
%AMMACRO21*
4,1,44,.00984,.0187,
-.00984,.0187,
-.010524,.018641,
-.011187,.018464,
-.011809,.018174,
-.012371,.017781,
-.012857,.017296,
-.013251,.016734,
-.013542,.016113,
-.01372,.01545,
-.01378,.014766,
-.01378,.01476,
-.01378,-.01476,
-.013721,-.015444,
-.013544,-.016107,
-.013254,-.016729,
-.012861,-.017291,
-.012376,-.017777,
-.011814,-.018171,
-.011193,-.018462,
-.01053,-.01864,
-.009846,-.0187,
-.00984,-.0187,
.00984,-.0187,
.010524,-.018641,
.011187,-.018464,
.011809,-.018174,
.012371,-.017781,
.012857,-.017296,
.013251,-.016734,
.013542,-.016113,
.01372,-.01545,
.01378,-.014766,
.01378,-.01476,
.01378,.01476,
.013721,.015444,
.013544,.016107,
.013254,.016729,
.012861,.017291,
.012376,.017777,
.011814,.018171,
.011193,.018462,
.01053,.01864,
.009846,.0187,
.00984,.0187,
0.0*
%
%ADD21MACRO21*%
%AMMACRO14*
4,1,44,-.0187,.00984,
-.0187,-.00984,
-.018641,-.010524,
-.018464,-.011187,
-.018174,-.011809,
-.017781,-.012371,
-.017296,-.012857,
-.016734,-.013251,
-.016113,-.013542,
-.01545,-.01372,
-.014766,-.01378,
-.01476,-.01378,
.01476,-.01378,
.015444,-.013721,
.016107,-.013544,
.016729,-.013254,
.017291,-.012861,
.017777,-.012376,
.018171,-.011814,
.018462,-.011193,
.01864,-.01053,
.0187,-.009846,
.0187,-.00984,
.0187,.00984,
.018641,.010524,
.018464,.011187,
.018174,.011809,
.017781,.012371,
.017296,.012857,
.016734,.013251,
.016113,.013542,
.01545,.01372,
.014766,.01378,
.01476,.01378,
-.01476,.01378,
-.015444,.013721,
-.016107,.013544,
-.016729,.013254,
-.017291,.012861,
-.017777,.012376,
-.018171,.011814,
-.018462,.011193,
-.01864,.01053,
-.0187,.009846,
-.0187,.00984,
0.0*
%
%ADD14MACRO14*%
%AMMACRO42*
4,1,38,-.02559,.00394,
.02559,.00394,
.026274,.00388,
.026938,.003702,
.02756,.003412,
.028123,.003018,
.028608,.002532,
.029002,.00197,
.029292,.001347,
.02947,.000684,
.02953,0.0,
.02947,-.000684,
.029292,-.001348,
.029002,-.00197,
.028608,-.002533,
.028122,-.003018,
.02756,-.003412,
.026937,-.003702,
.026274,-.00388,
.02559,-.00394,
-.02559,-.00394,
-.026274,-.00388,
-.026938,-.003702,
-.02756,-.003412,
-.028123,-.003018,
-.028608,-.002532,
-.029002,-.00197,
-.029292,-.001347,
-.02947,-.000684,
-.02953,0.0,
-.02947,.000684,
-.029292,.001348,
-.029002,.00197,
-.028608,.002533,
-.028122,.003018,
-.02756,.003412,
-.026937,.003702,
-.026274,.00388,
-.02559,.00394,
0.0*
%
%ADD42MACRO42*%
%AMMACRO40*
4,1,38,-.00394,-.02559,
-.00394,.02559,
-.00388,.026274,
-.003702,.026938,
-.003412,.02756,
-.003018,.028123,
-.002532,.028608,
-.00197,.029002,
-.001347,.029292,
-.000684,.02947,
0.0,.02953,
.000684,.02947,
.001348,.029292,
.00197,.029002,
.002533,.028608,
.003018,.028122,
.003412,.02756,
.003702,.026937,
.00388,.026274,
.00394,.02559,
.00394,-.02559,
.00388,-.026274,
.003702,-.026938,
.003412,-.02756,
.003018,-.028123,
.002532,-.028608,
.00197,-.029002,
.001347,-.029292,
.000684,-.02947,
0.0,-.02953,
-.000684,-.02947,
-.001348,-.029292,
-.00197,-.029002,
-.002533,-.028608,
-.003018,-.028122,
-.003412,-.02756,
-.003702,-.026937,
-.00388,-.026274,
-.00394,-.02559,
0.0*
%
%ADD40MACRO40*%
%ADD43O,.08543X.02402*%
%ADD19R,.04331X.02362*%
%ADD33R,.02362X.02362*%
%ADD25O,.02362X.05118*%
%ADD44R,.01575X.02362*%
%ADD18R,.05315X.01575*%
%ADD27O,.01575X.05906*%
%ADD10R,.0748X.0748*%
%AMMACRO15*
4,1,44,.01988,-.06004,
.01988,.06004,
.019821,.060724,
.019643,.061387,
.019354,.062009,
.01896,.062572,
.018475,.063057,
.017913,.063451,
.017291,.063742,
.016629,.06392,
.015945,.06398,
.01594,.06398,
-.01594,.06398,
-.016624,.063921,
-.017287,.063743,
-.017909,.063454,
-.018472,.06306,
-.018957,.062575,
-.019351,.062013,
-.019642,.061391,
-.01982,.060729,
-.01988,.060045,
-.01988,.06004,
-.01988,-.06004,
-.019821,-.060724,
-.019643,-.061387,
-.019354,-.062009,
-.01896,-.062572,
-.018475,-.063057,
-.017913,-.063451,
-.017291,-.063742,
-.016629,-.06392,
-.015945,-.06398,
-.01594,-.06398,
.01594,-.06398,
.016624,-.063921,
.017287,-.063743,
.017909,-.063454,
.018472,-.06306,
.018957,-.062575,
.019351,-.062013,
.019642,-.061391,
.01982,-.060729,
.01988,-.060045,
.01988,-.06004,
0.0*
%
%ADD15MACRO15*%
%ADD36R,.03937X.05906*%
%AMMACRO24*
4,1,40,.01988,-.01457,
.01988,.01457,
.019819,.015253,
.019641,.015916,
.01935,.016537,
.018956,.017098,
.01847,.017583,
.017908,.017975,
.017286,.018264,
.016623,.018441,
.01594,.0185,
-.01594,.0185,
-.016623,.018441,
-.017286,.018264,
-.017908,.017975,
-.018471,.017583,
-.018956,.017098,
-.01935,.016537,
-.019641,.015915,
-.019819,.015253,
-.01988,.01457,
-.01988,-.01457,
-.019819,-.015253,
-.019641,-.015916,
-.01935,-.016537,
-.018956,-.017098,
-.01847,-.017583,
-.017908,-.017975,
-.017286,-.018264,
-.016623,-.018441,
-.01594,-.0185,
.01594,-.0185,
.016623,-.018441,
.017286,-.018264,
.017908,-.017975,
.018471,-.017583,
.018956,-.017098,
.01935,-.016537,
.019641,-.015915,
.019819,-.015253,
.01988,-.01457,
0.0*
%
%ADD24MACRO24*%
%AMMACRO41*
4,1,44,-.01811,-.02697,
.01811,-.02697,
.018794,-.02691,
.019457,-.026733,
.020079,-.026443,
.020642,-.02605,
.021128,-.025564,
.021522,-.025002,
.021812,-.02438,
.02199,-.023717,
.02205,-.023033,
.02205,-.02303,
.02205,.02303,
.02199,.023714,
.021813,.024377,
.021523,.024999,
.02113,.025562,
.020644,.026048,
.020082,.026442,
.01946,.026732,
.018797,.02691,
.018113,.02697,
.01811,.02697,
-.01811,.02697,
-.018794,.02691,
-.019457,.026733,
-.020079,.026443,
-.020642,.02605,
-.021128,.025564,
-.021522,.025002,
-.021812,.02438,
-.02199,.023717,
-.02205,.023033,
-.02205,.02303,
-.02205,-.02303,
-.02199,-.023714,
-.021813,-.024377,
-.021523,-.024999,
-.02113,-.025562,
-.020644,-.026048,
-.020082,-.026442,
-.01946,-.026732,
-.018797,-.02691,
-.018113,-.02697,
-.01811,-.02697,
0.0*
%
%ADD41MACRO41*%
%AMMACRO37*
4,1,44,-.0187,-.01575,
.0187,-.01575,
.019384,-.01569,
.020047,-.015513,
.020669,-.015223,
.021232,-.01483,
.021718,-.014344,
.022112,-.013782,
.022402,-.01316,
.02258,-.012497,
.02264,-.011813,
.02264,-.01181,
.02264,.01181,
.02258,.012494,
.022403,.013157,
.022113,.013779,
.02172,.014342,
.021234,.014828,
.020672,.015222,
.02005,.015512,
.019387,.01569,
.018703,.01575,
.0187,.01575,
-.0187,.01575,
-.019384,.01569,
-.020047,.015513,
-.020669,.015223,
-.021232,.01483,
-.021718,.014344,
-.022112,.013782,
-.022402,.01316,
-.02258,.012497,
-.02264,.011813,
-.02264,.01181,
-.02264,-.01181,
-.02258,-.012494,
-.022403,-.013157,
-.022113,-.013779,
-.02172,-.014342,
-.021234,-.014828,
-.020672,-.015222,
-.02005,-.015512,
-.019387,-.01569,
-.018703,-.01575,
-.0187,-.01575,
0.0*
%
%ADD37MACRO37*%
%ADD35R,.04724X.07874*%
%ADD31R,.03937X.07087*%
%AMMACRO12*
4,1,40,.0185,-.00787,
.0185,.00787,
.018441,.008553,
.018264,.009216,
.017975,.009838,
.017582,.010401,
.017098,.010886,
.016536,.01128,
.015915,.011571,
.015253,.011749,
.01457,.01181,
-.01457,.01181,
-.015253,.011749,
-.015916,.011571,
-.016537,.01128,
-.017098,.010886,
-.017583,.0104,
-.017975,.009838,
-.018264,.009216,
-.018441,.008553,
-.0185,.00787,
-.0185,-.00787,
-.018441,-.008553,
-.018264,-.009216,
-.017975,-.009838,
-.017582,-.010401,
-.017098,-.010886,
-.016536,-.01128,
-.015915,-.011571,
-.015253,-.011749,
-.01457,-.01181,
.01457,-.01181,
.015253,-.011749,
.015916,-.011571,
.016537,-.01128,
.017098,-.010886,
.017583,-.0104,
.017975,-.009838,
.018264,-.009216,
.018441,-.008553,
.0185,-.00787,
0.0*
%
%ADD12MACRO12*%
%ADD28R,.05799X.01098*%
%AMMACRO13*
4,1,40,-.00787,-.0185,
.00787,-.0185,
.008553,-.018441,
.009216,-.018264,
.009838,-.017975,
.010401,-.017582,
.010886,-.017098,
.01128,-.016536,
.011571,-.015915,
.011749,-.015253,
.01181,-.01457,
.01181,.01457,
.011749,.015253,
.011571,.015916,
.01128,.016537,
.010886,.017098,
.0104,.017583,
.009838,.017975,
.009216,.018264,
.008553,.018441,
.00787,.0185,
-.00787,.0185,
-.008553,.018441,
-.009216,.018264,
-.009838,.017975,
-.010401,.017582,
-.010886,.017098,
-.01128,.016536,
-.011571,.015915,
-.011749,.015253,
-.01181,.01457,
-.01181,-.01457,
-.011749,-.015253,
-.011571,-.015916,
-.01128,-.016537,
-.010886,-.017098,
-.0104,-.017583,
-.009838,-.017975,
-.009216,-.018264,
-.008553,-.018441,
-.00787,-.0185,
0.0*
%
%ADD13MACRO13*%
%ADD30R,.01098X.05799*%
%AMMACRO26*
4,1,44,.0187,-.00984,
.0187,.00984,
.018641,.010524,
.018464,.011187,
.018174,.011809,
.017781,.012371,
.017296,.012857,
.016734,.013251,
.016113,.013542,
.01545,.01372,
.014766,.01378,
.01476,.01378,
-.01476,.01378,
-.015444,.013721,
-.016107,.013544,
-.016729,.013254,
-.017291,.012861,
-.017777,.012376,
-.018171,.011814,
-.018462,.011193,
-.01864,.01053,
-.0187,.009846,
-.0187,.00984,
-.0187,-.00984,
-.018641,-.010524,
-.018464,-.011187,
-.018174,-.011809,
-.017781,-.012371,
-.017296,-.012857,
-.016734,-.013251,
-.016113,-.013542,
-.01545,-.01372,
-.014766,-.01378,
-.01476,-.01378,
.01476,-.01378,
.015444,-.013721,
.016107,-.013544,
.016729,-.013254,
.017291,-.012861,
.017777,-.012376,
.018171,-.011814,
.018462,-.011193,
.01864,-.01053,
.0187,-.009846,
.0187,-.00984,
0.0*
%
%ADD26MACRO26*%
%AMMACRO11*
4,1,44,-.00984,-.0187,
.00984,-.0187,
.010524,-.018641,
.011187,-.018464,
.011809,-.018174,
.012371,-.017781,
.012857,-.017296,
.013251,-.016734,
.013542,-.016113,
.01372,-.01545,
.01378,-.014766,
.01378,-.01476,
.01378,.01476,
.013721,.015444,
.013544,.016107,
.013254,.016729,
.012861,.017291,
.012376,.017777,
.011814,.018171,
.011193,.018462,
.01053,.01864,
.009846,.0187,
.00984,.0187,
-.00984,.0187,
-.010524,.018641,
-.011187,.018464,
-.011809,.018174,
-.012371,.017781,
-.012857,.017296,
-.013251,.016734,
-.013542,.016113,
-.01372,.01545,
-.01378,.014766,
-.01378,.01476,
-.01378,-.01476,
-.013721,-.015444,
-.013544,-.016107,
-.013254,-.016729,
-.012861,-.017291,
-.012376,-.017777,
-.011814,-.018171,
-.011193,-.018462,
-.01053,-.01864,
-.009846,-.0187,
-.00984,-.0187,
0.0*
%
%ADD11MACRO11*%
G75*
%LPD*%
G75*
G36*
G01X269969Y192757D02*
X276819D01*
Y199619D01*
X269969D01*
Y192757D01*
G37*
G36*
G01Y208831D02*
X276819D01*
Y201981D01*
X269969D01*
Y208831D01*
G37*
G36*
G01X286035Y192765D02*
X279181D01*
Y199619D01*
X286035D01*
Y192765D01*
G37*
G36*
G01X286039Y208831D02*
Y201981D01*
X279181D01*
Y208831D01*
X286039D01*
G37*
G54D10*
X7865Y242795D03*
Y253622D03*
Y263071D03*
Y273898D03*
G54D11*
X7750Y281700D03*
X12750Y333000D03*
Y339000D03*
X14050Y281700D03*
X19050Y333000D03*
Y339000D03*
X29750Y268100D03*
Y275800D03*
Y281600D03*
X36050Y268100D03*
Y275800D03*
Y281600D03*
X140050Y89200D03*
X146350D03*
X151250D03*
X157550D03*
X163250Y252900D03*
X169550D03*
X193250Y197000D03*
X199550D03*
X301150Y291300D03*
X307450D03*
X312850Y228600D03*
X319150D03*
X321750Y273800D03*
X328050D03*
X348850Y334200D03*
X352850Y340200D03*
X355150Y334200D03*
X359150Y340200D03*
X366250Y289600D03*
X372550D03*
X373850Y301800D03*
X373750Y307600D03*
X375550Y316000D03*
Y322200D03*
X380150Y301800D03*
X380050Y307600D03*
X381850Y316000D03*
Y322200D03*
G54D20*
X24494Y333100D03*
Y338800D03*
X31306Y333100D03*
Y338800D03*
X36894Y289600D03*
X36794Y339000D03*
X43706Y289600D03*
X43606Y339000D03*
X226194Y363600D03*
X233006D03*
X321894Y334200D03*
X324594Y287500D03*
X328706Y334200D03*
X331406Y287500D03*
X333294Y340900D03*
X340106D03*
X354394Y295900D03*
X361206D03*
X366194D03*
X373006D03*
G54D30*
X82500Y201100D03*
X80600D03*
Y285500D03*
X82500D03*
X84500Y201100D03*
Y285500D03*
X88400Y201100D03*
X86500D03*
Y285500D03*
X88400D03*
X90400Y201100D03*
Y285500D03*
X94300Y201100D03*
X92400D03*
Y285500D03*
X94300D03*
X96300Y201100D03*
Y285500D03*
X100200Y201100D03*
X98300D03*
Y285500D03*
X100200D03*
X102200Y201100D03*
Y285500D03*
X104200Y201100D03*
Y285500D03*
X108100Y201100D03*
X106100D03*
Y285500D03*
X108100D03*
X110100Y201100D03*
Y285500D03*
X114000Y201100D03*
X112000D03*
Y285500D03*
X114000D03*
X116000Y201100D03*
Y285500D03*
X119900Y201100D03*
X118000D03*
Y285500D03*
X119900D03*
X121900Y201100D03*
Y285500D03*
X125800Y201100D03*
X123900D03*
Y285500D03*
X125800D03*
X127800Y201100D03*
Y285500D03*
X129800Y201100D03*
Y285500D03*
X133700Y201100D03*
X131700D03*
Y285500D03*
X133700D03*
X135700Y201100D03*
Y285500D03*
X139600Y201100D03*
X137600D03*
Y285500D03*
X139600D03*
X141600Y201100D03*
Y285500D03*
X145500Y201100D03*
X143500D03*
Y285500D03*
X145500D03*
X147500Y201100D03*
Y285500D03*
X149400Y201100D03*
Y285500D03*
G54D12*
X9030Y179594D03*
Y186406D03*
X14700Y179594D03*
Y186406D03*
X32590Y179794D03*
Y186606D03*
X84000Y316694D03*
Y323506D03*
X212400Y207094D03*
Y213906D03*
Y224194D03*
Y231006D03*
X222960Y151694D03*
Y158506D03*
X228630Y151694D03*
Y158506D03*
X234300Y151694D03*
Y158506D03*
X240030Y151694D03*
Y158506D03*
X245700Y151694D03*
Y158506D03*
X251370Y151694D03*
Y158506D03*
X253400Y171994D03*
Y178806D03*
X293400Y263294D03*
Y270106D03*
X339900Y236194D03*
Y243006D03*
X339800Y247494D03*
Y254306D03*
G54D21*
X23350Y358400D03*
X29650D03*
X37050Y333000D03*
X43350D03*
X60150Y241800D03*
Y247900D03*
X66450Y241800D03*
Y247900D03*
X104650Y29800D03*
X110950D03*
X203550Y189900D03*
X209850D03*
X301250Y309900D03*
X301350Y315900D03*
X301250Y321900D03*
X307550Y309900D03*
X307650Y315900D03*
X307550Y321900D03*
X321250Y362300D03*
X326950Y230600D03*
X327550Y362300D03*
X328850Y304100D03*
X333250Y230600D03*
X334650Y298100D03*
X335150Y304100D03*
X338950Y291800D03*
X340950Y298100D03*
X345250Y291800D03*
X363650Y332400D03*
X364150Y338600D03*
X369950Y332400D03*
X370450Y338600D03*
G54D13*
X7994Y289200D03*
X14806D03*
X25494Y289500D03*
X29494Y256741D03*
Y262411D03*
X32306Y289500D03*
X36306Y256741D03*
Y262411D03*
X59794Y234600D03*
X60494Y287100D03*
X66606Y234600D03*
X67306Y287100D03*
X170394Y39500D03*
Y45170D03*
Y50840D03*
Y56510D03*
Y62180D03*
Y67850D03*
Y73520D03*
Y79190D03*
X171094Y97880D03*
Y103550D03*
Y109220D03*
Y114890D03*
Y120560D03*
Y126230D03*
Y131900D03*
Y137570D03*
X177206Y39500D03*
Y45170D03*
Y50840D03*
Y56510D03*
Y62180D03*
Y67850D03*
Y73520D03*
Y79190D03*
X177906Y97880D03*
Y103550D03*
Y109220D03*
Y114890D03*
Y120560D03*
Y126230D03*
Y131900D03*
Y137570D03*
X205294Y197000D03*
X211694Y370100D03*
X212106Y197000D03*
X218506Y370100D03*
X297294Y177000D03*
X301594Y262030D03*
Y267900D03*
X304106Y177000D03*
X308406Y262030D03*
Y267900D03*
X321494Y262030D03*
Y267900D03*
X321794Y340800D03*
X328306Y262030D03*
Y267900D03*
X328606Y340800D03*
G54D31*
X147179Y298600D03*
X157021D03*
G54D40*
X266189Y217335D03*
X267764D03*
X269339D03*
X270913D03*
X272488D03*
X274063D03*
X275638D03*
X277213D03*
X278787D03*
X280362D03*
X281937D03*
X283512D03*
X285087D03*
X286661D03*
X288236D03*
X289811D03*
G54D22*
X26920Y179794D03*
Y186606D03*
X38260Y179794D03*
Y186606D03*
X43930Y179794D03*
Y186606D03*
X49600Y179794D03*
Y186606D03*
X55270Y179794D03*
Y186606D03*
X60940Y179794D03*
Y186606D03*
X66610Y179794D03*
Y186606D03*
X72280Y179794D03*
Y186606D03*
X77950Y179794D03*
Y186606D03*
X83620Y179794D03*
Y186606D03*
X89290Y179794D03*
Y186606D03*
X94960Y179794D03*
Y186606D03*
X100630Y179794D03*
Y186606D03*
X106300Y179794D03*
Y186606D03*
X111970Y179794D03*
Y186606D03*
X117640Y179794D03*
Y186606D03*
X123310Y179794D03*
Y186606D03*
X128980Y179794D03*
Y186606D03*
X170100Y257994D03*
Y264806D03*
X177700Y280494D03*
Y287306D03*
X212300Y257094D03*
Y263906D03*
X297300Y296494D03*
Y303306D03*
X301300Y279094D03*
Y285906D03*
X306970Y279094D03*
Y285906D03*
G54D41*
X270706Y162820D03*
Y172780D03*
X278894Y162820D03*
Y172780D03*
G54D14*
X12500Y344550D03*
Y350850D03*
X43800Y276250D03*
Y282550D03*
X63800Y298350D03*
Y304650D03*
X167200Y269350D03*
Y275650D03*
X173100Y269350D03*
Y275650D03*
X179400Y269350D03*
Y275650D03*
X212300Y237150D03*
Y243450D03*
G54D32*
X162292Y197308D03*
X167108Y192492D03*
X242892Y189108D03*
X247708Y184292D03*
G54D23*
X45600Y347802D03*
Y360400D03*
G54D24*
X43260Y297945D03*
Y307000D03*
Y316055D03*
X368060Y305945D03*
Y315000D03*
Y324055D03*
G54D15*
X15740Y307000D03*
X340540Y315000D03*
G54D33*
X190033Y284163D03*
Y307785D03*
X204600Y284163D03*
Y307785D03*
G54D42*
X294535Y190564D03*
Y188989D03*
Y193713D03*
Y192139D03*
Y195288D03*
Y198438D03*
Y196863D03*
Y201587D03*
Y200013D03*
Y204737D03*
Y203162D03*
Y207887D03*
Y206312D03*
Y209461D03*
Y212611D03*
Y211036D03*
G54D25*
X47760Y255569D03*
Y264231D03*
X51500Y255569D03*
Y264231D03*
X55240Y255569D03*
Y264231D03*
G54D43*
X303789Y237300D03*
Y242300D03*
Y247300D03*
Y252300D03*
X322411Y237300D03*
Y242300D03*
Y247300D03*
Y252300D03*
G54D34*
X213043Y363600D03*
X218357D03*
G54D16*
X15683Y325100D03*
X26117D03*
X41183D03*
X51617D03*
G54D26*
X56800Y75350D03*
Y81650D03*
X59300Y345150D03*
Y351450D03*
X65700Y345150D03*
Y351450D03*
X69900Y311050D03*
Y317350D03*
X104100Y292950D03*
Y299250D03*
X116600Y293450D03*
Y299750D03*
X132000Y293550D03*
Y299850D03*
X139600Y150650D03*
Y156950D03*
X145900Y150750D03*
Y157050D03*
X167300Y239050D03*
Y245350D03*
X299000Y340450D03*
Y346750D03*
X302400Y222250D03*
Y228550D03*
X305100Y340450D03*
Y346750D03*
X310700Y327750D03*
Y334050D03*
X310900Y340350D03*
Y346650D03*
X313600Y262050D03*
Y268350D03*
X316800Y326050D03*
Y332350D03*
X319600Y216850D03*
Y223150D03*
X362500Y345950D03*
Y352250D03*
X369300Y345850D03*
Y352150D03*
G54D35*
X221162Y52446D03*
X333170D03*
G54D44*
X312800Y279100D03*
Y288549D03*
X316540Y279100D03*
X320280D03*
Y288549D03*
G54D17*
X18900Y42700D03*
Y384800D03*
X374800Y42700D03*
Y384800D03*
G54D36*
X222737Y139848D03*
X235926D03*
X242619D03*
X252186D03*
X261674D03*
X271871D03*
X278564D03*
X285060D03*
X291556D03*
X301398D03*
X311241D03*
G54D27*
X64155Y37431D03*
Y81369D03*
X64055Y96931D03*
Y140869D03*
X67305Y37431D03*
Y81369D03*
X67205Y96931D03*
Y140869D03*
X70454Y37431D03*
Y81369D03*
X70354Y96931D03*
Y140869D03*
X73604Y37431D03*
Y81369D03*
X73504Y96931D03*
Y140869D03*
X76754Y37431D03*
Y81369D03*
X76654Y96931D03*
Y140869D03*
X79903Y37431D03*
Y81369D03*
X79803Y96931D03*
Y140869D03*
X83053Y37431D03*
Y81369D03*
X82953Y96931D03*
Y140869D03*
X86202Y37431D03*
Y81369D03*
X86102Y96931D03*
Y140869D03*
X89352Y37431D03*
Y81369D03*
X89252Y96931D03*
Y140869D03*
X92502Y37431D03*
Y81369D03*
X92402Y96931D03*
Y140869D03*
X95651Y37431D03*
Y81369D03*
X95551Y96931D03*
Y140869D03*
X98801Y37431D03*
Y81369D03*
X98701Y96931D03*
Y140869D03*
X101950Y37431D03*
Y81369D03*
X101850Y96931D03*
Y140869D03*
X105100Y37431D03*
Y81369D03*
X105000Y96931D03*
Y140869D03*
X108250Y37431D03*
Y81369D03*
X108150Y96931D03*
Y140869D03*
X111399Y37431D03*
Y81369D03*
X111299Y96931D03*
Y140869D03*
X114549Y37431D03*
Y81369D03*
X114449Y96931D03*
Y140869D03*
X117698Y37431D03*
Y81369D03*
X117598Y96931D03*
Y140869D03*
X120848Y37431D03*
Y81369D03*
X120748Y96931D03*
Y140869D03*
X123998Y37431D03*
Y81369D03*
X123898Y96931D03*
Y140869D03*
X127147Y37431D03*
Y81369D03*
X127047Y96931D03*
Y140869D03*
X130297Y37431D03*
Y81369D03*
X130197Y96931D03*
Y140869D03*
X133446Y37431D03*
Y81369D03*
X133346Y96931D03*
Y140869D03*
X136596Y37431D03*
Y81369D03*
X136496Y96931D03*
Y140869D03*
X139746Y37431D03*
Y81369D03*
X139646Y96931D03*
Y140869D03*
X142895Y37431D03*
Y81369D03*
X142795Y96931D03*
Y140869D03*
X146045Y37431D03*
Y81369D03*
X145945Y96931D03*
Y140869D03*
G54D18*
X18396Y253228D03*
Y255787D03*
Y258346D03*
Y260906D03*
Y263465D03*
G54D45*
X332973Y220227D03*
X337427Y215773D03*
X349273Y285727D03*
X353727Y281273D03*
X354473Y289227D03*
X358927Y284773D03*
G54D28*
X72800Y208900D03*
Y210800D03*
Y212800D03*
Y214800D03*
Y216700D03*
Y218700D03*
Y220700D03*
Y222600D03*
Y224600D03*
Y226600D03*
Y228500D03*
Y230500D03*
Y232500D03*
Y234400D03*
Y236400D03*
Y238400D03*
Y240300D03*
Y242300D03*
Y244300D03*
Y246300D03*
Y248200D03*
Y250200D03*
Y252200D03*
Y254100D03*
Y256100D03*
Y258100D03*
Y262000D03*
Y260000D03*
Y264000D03*
Y265900D03*
Y267900D03*
Y269900D03*
Y271800D03*
Y273800D03*
Y275800D03*
Y277700D03*
X157200Y210800D03*
Y208900D03*
Y212800D03*
Y214800D03*
Y218700D03*
Y216700D03*
Y220700D03*
Y224600D03*
Y222600D03*
Y226600D03*
Y230500D03*
Y228500D03*
Y232500D03*
Y236400D03*
Y234400D03*
Y238400D03*
Y240300D03*
Y244300D03*
Y242300D03*
Y246300D03*
Y250200D03*
Y248200D03*
Y252200D03*
Y256100D03*
Y254100D03*
Y258100D03*
Y260000D03*
Y262000D03*
Y264000D03*
Y265900D03*
Y269900D03*
Y267900D03*
Y271800D03*
Y275800D03*
Y273800D03*
Y277700D03*
G54D37*
X226943Y370100D03*
X232257D03*
G54D19*
X19000Y345120D03*
Y348860D03*
Y352600D03*
X29630Y345120D03*
Y348860D03*
Y352600D03*
X319400Y346620D03*
Y350360D03*
Y354100D03*
X330030Y346620D03*
Y350360D03*
Y354100D03*
G54D46*
X341300Y355500D03*
X353898D03*
G54D29*
X77900Y317443D03*
Y322757D03*
G54D38*
X261465Y188989D03*
Y190564D03*
Y192139D03*
Y193713D03*
Y195288D03*
Y196863D03*
Y198438D03*
Y200013D03*
Y201587D03*
Y203162D03*
Y204737D03*
Y206312D03*
Y207887D03*
Y209461D03*
Y211036D03*
Y212611D03*
G54D39*
X266189Y184265D03*
X269339D03*
X267764D03*
X272488D03*
X270913D03*
X275638D03*
X274063D03*
X278787D03*
X277213D03*
X280362D03*
X283512D03*
X281937D03*
X286661D03*
X285087D03*
X289811D03*
X288236D03*
M02*
