G04 ================== begin FILE IDENTIFICATION RECORD ==================*
G04 Layout Name:  Beamforming_PCB_Ver1_0_1.brd*
G04 Film Name:    soldermask_bottom*
G04 File Format:  Gerber RS274X*
G04 File Origin:  Cadence Allegro 16.6-2015-S066*
G04 Origin Date:  Mon Mar 08 18:59:32 2021*
G04 *
G04 Layer:  VIA CLASS/SOLDERMASK_BOTTOM*
G04 Layer:  PIN/SOLDERMASK_BOTTOM*
G04 Layer:  PACKAGE GEOMETRY/SOLDERMASK_BOTTOM*
G04 *
G04 Offset:    (0.00 0.00)*
G04 Mirror:    No*
G04 Mode:      Positive*
G04 Rotation:  0*
G04 FullContactRelief:  No*
G04 UndefLineWidth:     0.00*
G04 ================== end FILE IDENTIFICATION RECORD ====================*
%FSLAX25Y25*MOIN*%
%IR0*IPPOS*OFA0.00000B0.00000*MIA0B0*SFA1.00000B1.00000*%
%ADD16C,.06299*%
%ADD10C,.07874*%
%AMMACRO15*
4,1,40,-.02047,-.00984,
-.02047,.00984,
-.020411,.010524,
-.020234,.011187,
-.019944,.011809,
-.019551,.012371,
-.019067,.012857,
-.018505,.013251,
-.017883,.013541,
-.017221,.01372,
-.01654,.01378,
.01654,.01378,
.017223,.013719,
.017886,.01354,
.018507,.013249,
.019069,.012855,
.019553,.012369,
.019946,.011806,
.020235,.011184,
.020411,.010521,
.02047,.00984,
.02047,-.00984,
.020411,-.010524,
.020234,-.011187,
.019944,-.011809,
.019551,-.012371,
.019067,-.012857,
.018505,-.013251,
.017883,-.013541,
.017221,-.01372,
.01654,-.01378,
-.01654,-.01378,
-.017223,-.013719,
-.017886,-.01354,
-.018507,-.013249,
-.019069,-.012855,
-.019553,-.012369,
-.019946,-.011806,
-.020235,-.011184,
-.020411,-.010521,
-.02047,-.00984,
0.0*
%
%ADD15MACRO15*%
%AMMACRO13*
4,1,44,-.02067,-.01181,
-.02067,.01181,
-.020611,.012494,
-.020433,.013157,
-.020143,.013779,
-.01975,.014342,
-.019265,.014827,
-.018703,.015221,
-.018081,.015512,
-.017418,.01569,
-.016734,.01575,
-.01673,.01575,
.01673,.01575,
.017414,.015691,
.018077,.015513,
.018699,.015223,
.019262,.01483,
.019747,.014345,
.020141,.013783,
.020432,.013161,
.02061,.012498,
.02067,.011814,
.02067,.01181,
.02067,-.01181,
.020611,-.012494,
.020433,-.013157,
.020143,-.013779,
.01975,-.014342,
.019265,-.014827,
.018703,-.015221,
.018081,-.015512,
.017418,-.01569,
.016734,-.01575,
.01673,-.01575,
-.01673,-.01575,
-.017414,-.015691,
-.018077,-.015513,
-.018699,-.015223,
-.019262,-.01483,
-.019747,-.014345,
-.020141,-.013783,
-.020432,-.013161,
-.02061,-.012498,
-.02067,-.011814,
-.02067,-.01181,
0.0*
%
%ADD13MACRO13*%
%AMMACRO11*
4,1,44,-.01181,.02067,
.01181,.02067,
.012494,.020611,
.013157,.020433,
.013779,.020143,
.014342,.01975,
.014827,.019265,
.015221,.018703,
.015512,.018081,
.01569,.017418,
.01575,.016734,
.01575,.01673,
.01575,-.01673,
.015691,-.017414,
.015513,-.018077,
.015223,-.018699,
.01483,-.019262,
.014345,-.019747,
.013783,-.020141,
.013161,-.020432,
.012498,-.02061,
.011814,-.02067,
.01181,-.02067,
-.01181,-.02067,
-.012494,-.020611,
-.013157,-.020433,
-.013779,-.020143,
-.014342,-.01975,
-.014827,-.019265,
-.015221,-.018703,
-.015512,-.018081,
-.01569,-.017418,
-.01575,-.016734,
-.01575,-.01673,
-.01575,.01673,
-.015691,.017414,
-.015513,.018077,
-.015223,.018699,
-.01483,.019262,
-.014345,.019747,
-.013783,.020141,
-.013161,.020432,
-.012498,.02061,
-.011814,.02067,
-.01181,.02067,
0.0*
%
%ADD11MACRO11*%
%ADD17R,.06299X.06299*%
%AMMACRO18*
4,1,40,.02047,.00984,
.02047,-.00984,
.020411,-.010524,
.020234,-.011187,
.019944,-.011809,
.019551,-.012371,
.019067,-.012857,
.018505,-.013251,
.017883,-.013541,
.017221,-.01372,
.01654,-.01378,
-.01654,-.01378,
-.017223,-.013719,
-.017886,-.01354,
-.018507,-.013249,
-.019069,-.012855,
-.019553,-.012369,
-.019946,-.011806,
-.020235,-.011184,
-.020411,-.010521,
-.02047,-.00984,
-.02047,.00984,
-.020411,.010524,
-.020234,.011187,
-.019944,.011809,
-.019551,.012371,
-.019067,.012857,
-.018505,.013251,
-.017883,.013541,
-.017221,.01372,
-.01654,.01378,
.01654,.01378,
.017223,.013719,
.017886,.01354,
.018507,.013249,
.019069,.012855,
.019553,.012369,
.019946,.011806,
.020235,.011184,
.020411,.010521,
.02047,.00984,
0.0*
%
%ADD18MACRO18*%
%AMMACRO14*
4,1,44,.02067,.01181,
.02067,-.01181,
.020611,-.012494,
.020433,-.013157,
.020143,-.013779,
.01975,-.014342,
.019265,-.014827,
.018703,-.015221,
.018081,-.015512,
.017418,-.01569,
.016734,-.01575,
.01673,-.01575,
-.01673,-.01575,
-.017414,-.015691,
-.018077,-.015513,
-.018699,-.015223,
-.019262,-.01483,
-.019747,-.014345,
-.020141,-.013783,
-.020432,-.013161,
-.02061,-.012498,
-.02067,-.011814,
-.02067,-.01181,
-.02067,.01181,
-.020611,.012494,
-.020433,.013157,
-.020143,.013779,
-.01975,.014342,
-.019265,.014827,
-.018703,.015221,
-.018081,.015512,
-.017418,.01569,
-.016734,.01575,
-.01673,.01575,
.01673,.01575,
.017414,.015691,
.018077,.015513,
.018699,.015223,
.019262,.01483,
.019747,.014345,
.020141,.013783,
.020432,.013161,
.02061,.012498,
.02067,.011814,
.02067,.01181,
0.0*
%
%ADD14MACRO14*%
%AMMACRO12*
4,1,44,.01181,-.02067,
-.01181,-.02067,
-.012494,-.020611,
-.013157,-.020433,
-.013779,-.020143,
-.014342,-.01975,
-.014827,-.019265,
-.015221,-.018703,
-.015512,-.018081,
-.01569,-.017418,
-.01575,-.016734,
-.01575,-.01673,
-.01575,.01673,
-.015691,.017414,
-.015513,.018077,
-.015223,.018699,
-.01483,.019262,
-.014345,.019747,
-.013783,.020141,
-.013161,.020432,
-.012498,.02061,
-.011814,.02067,
-.01181,.02067,
.01181,.02067,
.012494,.020611,
.013157,.020433,
.013779,.020143,
.014342,.01975,
.014827,.019265,
.015221,.018703,
.015512,.018081,
.01569,.017418,
.01575,.016734,
.01575,.01673,
.01575,-.01673,
.015691,-.017414,
.015513,-.018077,
.015223,-.018699,
.01483,-.019262,
.014345,-.019747,
.013783,-.020141,
.013161,-.020432,
.012498,-.02061,
.011814,-.02067,
.01181,-.02067,
0.0*
%
%ADD12MACRO12*%
%LPD*%
G75*
G54D10*
X18900Y42700D03*
Y384800D03*
X374800Y42700D03*
Y384800D03*
G54D11*
X36750Y306900D03*
X43050D03*
X81250Y221000D03*
X81750Y243800D03*
X87550Y221000D03*
X88050Y243800D03*
X104750Y74400D03*
X106650Y129100D03*
X111050Y74400D03*
X112950Y129100D03*
X116250Y276600D03*
X122750Y84500D03*
X122550Y276600D03*
X129050Y84500D03*
X127550Y210700D03*
X130750Y32000D03*
X131450Y96400D03*
X133850Y210700D03*
X137050Y32000D03*
X137750Y96400D03*
X137850Y254500D03*
X144150D03*
X163250Y252900D03*
X169550D03*
X262650Y200100D03*
X268950D03*
X271850Y134400D03*
X278150D03*
X280950Y197600D03*
X287250D03*
X297150Y198700D03*
X303450D03*
G54D12*
X57550Y137800D03*
X63850D03*
X68350Y261100D03*
X68150Y266900D03*
X74650Y261100D03*
X74450Y266900D03*
X98050Y209700D03*
X104350D03*
X144550Y217800D03*
Y223700D03*
Y229500D03*
X145050Y247900D03*
X150850Y217800D03*
Y223700D03*
Y229500D03*
X151350Y247900D03*
X271950Y162100D03*
X278250D03*
X329150Y304100D03*
X334650Y298100D03*
X335450Y304100D03*
X338950Y291700D03*
X340950Y298100D03*
X345250Y291700D03*
G54D13*
X88100Y227150D03*
Y233450D03*
X92800Y213550D03*
Y219850D03*
X111100Y95650D03*
Y101950D03*
X147200Y298550D03*
Y304850D03*
X157000Y298650D03*
Y304950D03*
X272600Y185450D03*
Y191750D03*
X281000Y185450D03*
Y191750D03*
X354400Y326850D03*
Y333150D03*
G54D14*
X88000Y258950D03*
Y265250D03*
X98300Y259750D03*
Y266050D03*
X104400Y271050D03*
Y277350D03*
X119200Y135550D03*
Y141850D03*
X120100Y259750D03*
Y266050D03*
X131200Y259850D03*
Y266150D03*
X130500Y271150D03*
Y277450D03*
X136400Y271150D03*
Y277450D03*
X142200Y271150D03*
Y277450D03*
X145500Y199750D03*
Y206050D03*
X168900Y259550D03*
Y265850D03*
X275884Y209850D03*
Y216150D03*
X281592Y209850D03*
Y216150D03*
G54D15*
X151300Y235194D03*
Y242006D03*
X278300Y167394D03*
Y174206D03*
G54D16*
X194000Y207100D03*
Y217100D03*
Y227100D03*
Y237100D03*
Y247100D03*
Y257100D03*
X204000Y207100D03*
Y217100D03*
Y227100D03*
Y237100D03*
Y247100D03*
Y257100D03*
Y267100D03*
X348300Y79900D03*
Y89900D03*
Y99900D03*
Y109900D03*
Y119900D03*
Y129900D03*
Y139900D03*
Y149900D03*
Y159900D03*
Y169900D03*
Y179900D03*
Y189900D03*
Y199900D03*
Y209900D03*
X348200Y232200D03*
Y242200D03*
Y252200D03*
Y262200D03*
X358300Y79900D03*
Y89900D03*
Y99900D03*
Y109900D03*
Y119900D03*
Y129900D03*
Y139900D03*
Y149900D03*
Y159900D03*
Y169900D03*
Y179900D03*
Y189900D03*
Y199900D03*
Y209900D03*
Y219900D03*
X358200Y232200D03*
Y242200D03*
Y252200D03*
Y262200D03*
Y272200D03*
X370500Y80100D03*
Y90100D03*
Y100100D03*
Y110100D03*
Y120100D03*
Y130100D03*
Y140100D03*
Y150100D03*
Y160100D03*
Y170100D03*
Y180100D03*
Y190100D03*
Y200100D03*
Y210100D03*
Y220100D03*
Y230100D03*
Y240100D03*
Y250100D03*
Y260100D03*
X380500Y80100D03*
Y90100D03*
Y100100D03*
Y110100D03*
Y120100D03*
Y130100D03*
Y140100D03*
Y150100D03*
Y160100D03*
Y170100D03*
Y180100D03*
Y190100D03*
Y200100D03*
Y210100D03*
Y220100D03*
Y230100D03*
Y240100D03*
Y250100D03*
Y260100D03*
Y270100D03*
G54D17*
X194000Y267100D03*
X348300Y219900D03*
X348200Y272200D03*
X370500Y270100D03*
G54D18*
X271600Y167394D03*
Y174206D03*
M02*
