G04 ================== begin FILE IDENTIFICATION RECORD ==================*
G04 Layout Name:  Beamforming_PCB_Ver1_0_1.brd*
G04 Film Name:    soldermask_top*
G04 File Format:  Gerber RS274X*
G04 File Origin:  Cadence Allegro 16.6-2015-S066*
G04 Origin Date:  Thu Mar 18 00:04:30 2021*
G04 *
G04 Layer:  VIA CLASS/SOLDERMASK_TOP*
G04 Layer:  PIN/SOLDERMASK_TOP*
G04 Layer:  PACKAGE GEOMETRY/SOLDERMASK_TOP*
G04 *
G04 Offset:    (0.00 0.00)*
G04 Mirror:    No*
G04 Mode:      Positive*
G04 Rotation:  0*
G04 FullContactRelief:  No*
G04 UndefLineWidth:     0.00*
G04 ================== end FILE IDENTIFICATION RECORD ====================*
%FSLAX25Y25*MOIN*%
%IR0*IPPOS*OFA0.00000B0.00000*MIA0B0*SFA1.00000B1.00000*%
%AMMACRO16*
4,1,44,-.03248,-.03118,
.03248,-.03118,
.033164,-.031121,
.033827,-.030943,
.034449,-.030654,
.035012,-.03026,
.035497,-.029775,
.035891,-.029213,
.036182,-.028592,
.03636,-.027929,
.03642,-.027245,
.03642,-.02724,
.03642,.02724,
.036361,.027924,
.036183,.028587,
.035894,.029209,
.0355,.029772,
.035015,.030257,
.034453,.030651,
.033832,.030942,
.033169,.03112,
.032485,.03118,
.03248,.03118,
-.03248,.03118,
-.033164,.031121,
-.033827,.030943,
-.034449,.030654,
-.035012,.03026,
-.035497,.029775,
-.035891,.029213,
-.036182,.028592,
-.03636,.027929,
-.03642,.027245,
-.03642,.02724,
-.03642,-.02724,
-.036361,-.027924,
-.036183,-.028587,
-.035894,-.029209,
-.0355,-.029772,
-.035015,-.030257,
-.034453,-.030651,
-.033832,-.030942,
-.033169,-.03112,
-.032485,-.03118,
-.03248,-.03118,
0.0*
%
%ADD16MACRO16*%
%AMMACRO41*
4,1,38,.00394,.02559,
.00394,-.02559,
.00388,-.026274,
.003702,-.026938,
.003412,-.02756,
.003018,-.028123,
.002532,-.028608,
.00197,-.029002,
.001347,-.029292,
.000684,-.02947,
0.0,-.02953,
-.000684,-.02947,
-.001348,-.029292,
-.00197,-.029002,
-.002533,-.028608,
-.003018,-.028122,
-.003412,-.02756,
-.003702,-.026937,
-.00388,-.026274,
-.00394,-.02559,
-.00394,.02559,
-.00388,.026274,
-.003702,.026938,
-.003412,.02756,
-.003018,.028123,
-.002532,.028608,
-.00197,.029002,
-.001347,.029292,
-.000684,.02947,
0.0,.02953,
.000684,.02947,
.001348,.029292,
.00197,.029002,
.002533,.028608,
.003018,.028122,
.003412,.02756,
.003702,.026937,
.00388,.026274,
.00394,.02559,
0.0*
%
%ADD41MACRO41*%
%AMMACRO40*
4,1,38,.02559,-.00394,
-.02559,-.00394,
-.026274,-.00388,
-.026938,-.003702,
-.02756,-.003412,
-.028123,-.003018,
-.028608,-.002532,
-.029002,-.00197,
-.029292,-.001347,
-.02947,-.000684,
-.02953,0.0,
-.02947,.000684,
-.029292,.001348,
-.029002,.00197,
-.028608,.002533,
-.028122,.003018,
-.02756,.003412,
-.026937,.003702,
-.026274,.00388,
-.02559,.00394,
.02559,.00394,
.026274,.00388,
.026938,.003702,
.02756,.003412,
.028123,.003018,
.028608,.002532,
.029002,.00197,
.029292,.001347,
.02947,.000684,
.02953,0.0,
.02947,-.000684,
.029292,-.001348,
.029002,-.00197,
.028608,-.002533,
.028122,-.003018,
.02756,-.003412,
.026937,-.003702,
.026274,-.00388,
.02559,-.00394,
0.0*
%
%ADD40MACRO40*%
%ADD33C,.06299*%
%AMMACRO32*
4,1,44,-.02143,-.00752,
-.00752,-.02143,
-.006995,-.021872,
-.006401,-.022216,
-.005757,-.022452,
-.005081,-.022572,
-.004395,-.022574,
-.003719,-.022456,
-.003074,-.022222,
-.002479,-.021881,
-.001953,-.02144,
-.00195,-.02144,
.02144,.00195,
.021879,.002477,
.022221,.003072,
.022455,.003717,
.022573,.004393,
.022572,.005079,
.022452,.005755,
.022217,.006399,
.021873,.006993,
.021431,.007518,
.02143,.00752,
.00752,.02143,
.006995,.021872,
.006401,.022216,
.005757,.022452,
.005081,.022572,
.004395,.022574,
.003719,.022456,
.003074,.022222,
.002479,.021881,
.001953,.02144,
.00195,.02144,
-.02144,-.00195,
-.021879,-.002477,
-.022221,-.003072,
-.022455,-.003717,
-.022573,-.004393,
-.022572,-.005079,
-.022452,-.005755,
-.022217,-.006399,
-.021873,-.006993,
-.021431,-.007518,
-.02143,-.00752,
0.0*
%
%ADD32MACRO32*%
%AMMACRO22*
4,1,40,-.02047,.00984,
-.02047,-.00984,
-.020411,-.010524,
-.020234,-.011187,
-.019944,-.011809,
-.019551,-.012371,
-.019067,-.012857,
-.018505,-.013251,
-.017883,-.013541,
-.017221,-.01372,
-.01654,-.01378,
.01654,-.01378,
.017223,-.013719,
.017886,-.01354,
.018507,-.013249,
.019069,-.012855,
.019553,-.012369,
.019946,-.011806,
.020235,-.011184,
.020411,-.010521,
.02047,-.00984,
.02047,.00984,
.020411,.010524,
.020234,.011187,
.019944,.011809,
.019551,.012371,
.019067,.012857,
.018505,.013251,
.017883,.013541,
.017221,.01372,
.01654,.01378,
-.01654,.01378,
-.017223,.013719,
-.017886,.01354,
-.018507,.013249,
-.019069,.012855,
-.019553,.012369,
-.019946,.011806,
-.020235,.011184,
-.020411,.010521,
-.02047,.00984,
0.0*
%
%ADD22MACRO22*%
%AMMACRO20*
4,1,40,.00984,.02047,
-.00984,.02047,
-.010524,.020411,
-.011187,.020234,
-.011809,.019944,
-.012371,.019551,
-.012857,.019067,
-.013251,.018505,
-.013541,.017883,
-.01372,.017221,
-.01378,.01654,
-.01378,-.01654,
-.013719,-.017223,
-.01354,-.017886,
-.013249,-.018507,
-.012855,-.019069,
-.012369,-.019553,
-.011806,-.019946,
-.011184,-.020235,
-.010521,-.020411,
-.00984,-.02047,
.00984,-.02047,
.010524,-.020411,
.011187,-.020234,
.011809,-.019944,
.012371,-.019551,
.012857,-.019067,
.013251,-.018505,
.013541,-.017883,
.01372,-.017221,
.01378,-.01654,
.01378,.01654,
.013719,.017223,
.01354,.017886,
.013249,.018507,
.012855,.019069,
.012369,.019553,
.011806,.019946,
.011184,.020235,
.010521,.020411,
.00984,.02047,
0.0*
%
%ADD20MACRO20*%
%ADD17C,.07874*%
%AMMACRO48*
4,1,40,-.02297,-.00626,
-.00626,-.02297,
-.005735,-.023412,
-.00514,-.023754,
-.004495,-.023988,
-.003819,-.024107,
-.003132,-.024106,
-.002456,-.023987,
-.001811,-.023751,
-.001217,-.023407,
-.00069,-.02297,
.02297,.00069,
.023408,.001219,
.023752,.001813,
.023987,.002458,
.024107,.003134,
.024107,.00382,
.023988,.004496,
.023754,.005141,
.023411,.005736,
.02297,.00626,
.00626,.02297,
.005735,.023412,
.00514,.023754,
.004495,.023988,
.003819,.024107,
.003132,.024106,
.002456,.023987,
.001811,.023751,
.001217,.023407,
.00069,.02297,
-.02297,-.00069,
-.023408,-.001219,
-.023752,-.001813,
-.023987,-.002458,
-.024107,-.003134,
-.024107,-.00382,
-.023988,-.004496,
-.023754,-.005141,
-.023411,-.005736,
-.02297,-.00626,
0.0*
%
%ADD48MACRO48*%
%AMMACRO21*
4,1,44,.01181,.02067,
-.01181,.02067,
-.012494,.020611,
-.013157,.020433,
-.013779,.020143,
-.014342,.01975,
-.014827,.019265,
-.015221,.018703,
-.015512,.018081,
-.01569,.017418,
-.01575,.016734,
-.01575,.01673,
-.01575,-.01673,
-.015691,-.017414,
-.015513,-.018077,
-.015223,-.018699,
-.01483,-.019262,
-.014345,-.019747,
-.013783,-.020141,
-.013161,-.020432,
-.012498,-.02061,
-.011814,-.02067,
-.01181,-.02067,
.01181,-.02067,
.012494,-.020611,
.013157,-.020433,
.013779,-.020143,
.014342,-.01975,
.014827,-.019265,
.015221,-.018703,
.015512,-.018081,
.01569,-.017418,
.01575,-.016734,
.01575,-.01673,
.01575,.01673,
.015691,.017414,
.015513,.018077,
.015223,.018699,
.01483,.019262,
.014345,.019747,
.013783,.020141,
.013161,.020432,
.012498,.02061,
.011814,.02067,
.01181,.02067,
0.0*
%
%ADD21MACRO21*%
%AMMACRO14*
4,1,44,-.02067,.01181,
-.02067,-.01181,
-.020611,-.012494,
-.020433,-.013157,
-.020143,-.013779,
-.01975,-.014342,
-.019265,-.014827,
-.018703,-.015221,
-.018081,-.015512,
-.017418,-.01569,
-.016734,-.01575,
-.01673,-.01575,
.01673,-.01575,
.017414,-.015691,
.018077,-.015513,
.018699,-.015223,
.019262,-.01483,
.019747,-.014345,
.020141,-.013783,
.020432,-.013161,
.02061,-.012498,
.02067,-.011814,
.02067,-.01181,
.02067,.01181,
.020611,.012494,
.020433,.013157,
.020143,.013779,
.01975,.014342,
.019265,.014827,
.018703,.015221,
.018081,.015512,
.017418,.01569,
.016734,.01575,
.01673,.01575,
-.01673,.01575,
-.017414,.015691,
-.018077,.015513,
-.018699,.015223,
-.019262,.01483,
-.019747,.014345,
-.020141,.013783,
-.020432,.013161,
-.02061,.012498,
-.02067,.011814,
-.02067,.01181,
0.0*
%
%ADD14MACRO14*%
%ADD23R,.17126X.07677*%
%ADD49R,.07677X.17126*%
%AMMACRO36*
4,1,44,.02067,.01772,
-.02067,.01772,
-.021354,.01766,
-.022017,.017483,
-.02264,.017193,
-.023202,.016799,
-.023688,.016313,
-.024082,.015751,
-.024372,.015129,
-.02455,.014465,
-.02461,.013781,
-.02461,.01378,
-.02461,-.01378,
-.02455,-.014464,
-.024373,-.015127,
-.024083,-.01575,
-.023689,-.016312,
-.023203,-.016798,
-.022641,-.017192,
-.022019,-.017482,
-.021355,-.01766,
-.020671,-.01772,
-.02067,-.01772,
.02067,-.01772,
.021354,-.01766,
.022017,-.017483,
.02264,-.017193,
.023202,-.016799,
.023688,-.016313,
.024082,-.015751,
.024372,-.015129,
.02455,-.014465,
.02461,-.013781,
.02461,-.01378,
.02461,.01378,
.02455,.014464,
.024373,.015127,
.024083,.01575,
.023689,.016312,
.023203,.016798,
.022641,.017192,
.022019,.017482,
.021355,.01766,
.020671,.01772,
.02067,.01772,
0.0*
%
%ADD36MACRO36*%
%AMMACRO29*
4,1,44,-.01772,.02067,
-.01772,-.02067,
-.01766,-.021354,
-.017483,-.022017,
-.017193,-.02264,
-.016799,-.023202,
-.016313,-.023688,
-.015751,-.024082,
-.015129,-.024372,
-.014465,-.02455,
-.013781,-.02461,
-.01378,-.02461,
.01378,-.02461,
.014464,-.02455,
.015127,-.024373,
.01575,-.024083,
.016312,-.023689,
.016798,-.023203,
.017192,-.022641,
.017482,-.022019,
.01766,-.021355,
.01772,-.020671,
.01772,-.02067,
.01772,.02067,
.01766,.021354,
.017483,.022017,
.017193,.02264,
.016799,.023202,
.016313,.023688,
.015751,.024082,
.015129,.024372,
.014465,.02455,
.013781,.02461,
.01378,.02461,
-.01378,.02461,
-.014464,.02455,
-.015127,.024373,
-.01575,.024083,
-.016312,.023689,
-.016798,.023203,
-.017192,.022641,
-.017482,.022019,
-.01766,.021355,
-.01772,.020671,
-.01772,.02067,
0.0*
%
%ADD29MACRO29*%
%ADD34R,.06299X.06299*%
%AMMACRO45*
4,1,38,-.02559,.00394,
.02559,.00394,
.026274,.00388,
.026938,.003702,
.02756,.003412,
.028123,.003018,
.028608,.002532,
.029002,.00197,
.029292,.001347,
.02947,.000684,
.02953,0.0,
.02947,-.000684,
.029292,-.001348,
.029002,-.00197,
.028608,-.002533,
.028122,-.003018,
.02756,-.003412,
.026937,-.003702,
.026274,-.00388,
.02559,-.00394,
-.02559,-.00394,
-.026274,-.00388,
-.026938,-.003702,
-.02756,-.003412,
-.028123,-.003018,
-.028608,-.002532,
-.029002,-.00197,
-.029292,-.001347,
-.02947,-.000684,
-.02953,0.0,
-.02947,.000684,
-.029292,.001348,
-.029002,.00197,
-.028608,.002533,
-.028122,.003018,
-.02756,.003412,
-.026937,.003702,
-.026274,.00388,
-.02559,.00394,
0.0*
%
%ADD45MACRO45*%
%AMMACRO42*
4,1,38,-.00394,-.02559,
-.00394,.02559,
-.00388,.026274,
-.003702,.026938,
-.003412,.02756,
-.003018,.028123,
-.002532,.028608,
-.00197,.029002,
-.001347,.029292,
-.000684,.02947,
0.0,.02953,
.000684,.02947,
.001348,.029292,
.00197,.029002,
.002533,.028608,
.003018,.028122,
.003412,.02756,
.003702,.026937,
.00388,.026274,
.00394,.02559,
.00394,-.02559,
.00388,-.026274,
.003702,-.026938,
.003412,-.02756,
.003018,-.028123,
.002532,-.028608,
.00197,-.029002,
.001347,-.029292,
.000684,-.02947,
0.0,-.02953,
-.000684,-.02947,
-.001348,-.029292,
-.00197,-.029002,
-.002533,-.028608,
-.003018,-.028122,
-.003412,-.02756,
-.003702,-.026937,
-.00388,-.026274,
-.00394,-.02559,
0.0*
%
%ADD42MACRO42*%
%ADD25O,.0315X.05906*%
%ADD44R,.21654X.21654*%
%ADD10R,.08071X.08071*%
%ADD47R,.02165X.02953*%
%ADD46O,.09331X.03189*%
%ADD18R,.05906X.02165*%
%ADD27O,.02362X.06693*%
%AMMACRO24*
4,1,40,.02185,-.01654,
.02185,.01654,
.021789,.017223,
.021611,.017886,
.02132,.018507,
.020925,.019069,
.020439,.019553,
.019877,.019946,
.019254,.020235,
.018591,.020411,
.01791,.02047,
-.01791,.02047,
-.018594,.020411,
-.019256,.020234,
-.019879,.019945,
-.020441,.019552,
-.020927,.019067,
-.021321,.018505,
-.021611,.017884,
-.02179,.017221,
-.02185,.01654,
-.02185,-.01654,
-.021789,-.017223,
-.021611,-.017886,
-.02132,-.018507,
-.020925,-.019069,
-.020439,-.019553,
-.019877,-.019946,
-.019254,-.020235,
-.018591,-.020411,
-.01791,-.02047,
.01791,-.02047,
.018594,-.020411,
.019256,-.020234,
.019879,-.019945,
.020441,-.019552,
.020927,-.019067,
.021321,-.018505,
.021611,-.017884,
.02179,-.017221,
.02185,-.01654,
0.0*
%
%ADD24MACRO24*%
%ADD19R,.04921X.02953*%
%ADD37R,.05315X.08465*%
%ADD35R,.02953X.02953*%
%AMMACRO12*
4,1,40,.02047,-.00984,
.02047,.00984,
.020411,.010524,
.020234,.011187,
.019944,.011809,
.019551,.012371,
.019067,.012857,
.018505,.013251,
.017883,.013541,
.017221,.01372,
.01654,.01378,
-.01654,.01378,
-.017223,.013719,
-.017886,.01354,
-.018507,.013249,
-.019069,.012855,
-.019553,.012369,
-.019946,.011806,
-.020235,.011184,
-.020411,.010521,
-.02047,.00984,
-.02047,-.00984,
-.020411,-.010524,
-.020234,-.011187,
-.019944,-.011809,
-.019551,-.012371,
-.019067,-.012857,
-.018505,-.013251,
-.017883,-.013541,
-.017221,-.01372,
-.01654,-.01378,
.01654,-.01378,
.017223,-.013719,
.017886,-.01354,
.018507,-.013249,
.019069,-.012855,
.019553,-.012369,
.019946,-.011806,
.020235,-.011184,
.020411,-.010521,
.02047,-.00984,
0.0*
%
%ADD12MACRO12*%
%AMMACRO13*
4,1,40,-.00984,-.02047,
.00984,-.02047,
.010524,-.020411,
.011187,-.020234,
.011809,-.019944,
.012371,-.019551,
.012857,-.019067,
.013251,-.018505,
.013541,-.017883,
.01372,-.017221,
.01378,-.01654,
.01378,.01654,
.013719,.017223,
.01354,.017886,
.013249,.018507,
.012855,.019069,
.012369,.019553,
.011806,.019946,
.011184,.020235,
.010521,.020411,
.00984,.02047,
-.00984,.02047,
-.010524,.020411,
-.011187,.020234,
-.011809,.019944,
-.012371,.019551,
-.012857,.019067,
-.013251,.018505,
-.013541,.017883,
-.01372,.017221,
-.01378,.01654,
-.01378,-.01654,
-.013719,-.017223,
-.01354,-.017886,
-.013249,-.018507,
-.012855,-.019069,
-.012369,-.019553,
-.011806,-.019946,
-.011184,-.020235,
-.010521,-.020411,
-.00984,-.02047,
0.0*
%
%ADD13MACRO13*%
%AMMACRO26*
4,1,44,.02067,-.01181,
.02067,.01181,
.020611,.012494,
.020433,.013157,
.020143,.013779,
.01975,.014342,
.019265,.014827,
.018703,.015221,
.018081,.015512,
.017418,.01569,
.016734,.01575,
.01673,.01575,
-.01673,.01575,
-.017414,.015691,
-.018077,.015513,
-.018699,.015223,
-.019262,.01483,
-.019747,.014345,
-.020141,.013783,
-.020432,.013161,
-.02061,.012498,
-.02067,.011814,
-.02067,.01181,
-.02067,-.01181,
-.020611,-.012494,
-.020433,-.013157,
-.020143,-.013779,
-.01975,-.014342,
-.019265,-.014827,
-.018703,-.015221,
-.018081,-.015512,
-.017418,-.01569,
-.016734,-.01575,
-.01673,-.01575,
.01673,-.01575,
.017414,-.015691,
.018077,-.015513,
.018699,-.015223,
.019262,-.01483,
.019747,-.014345,
.020141,-.013783,
.020432,-.013161,
.02061,-.012498,
.02067,-.011814,
.02067,-.01181,
0.0*
%
%ADD26MACRO26*%
%AMMACRO15*
4,1,40,.02185,-.06201,
.02185,.06201,
.021789,.062693,
.021611,.063356,
.02132,.063977,
.020926,.064538,
.02044,.065023,
.019878,.065415,
.019256,.065704,
.018593,.065881,
.01791,.06594,
-.01791,.06594,
-.018593,.065881,
-.019256,.065704,
-.019878,.065415,
-.020441,.065022,
-.020926,.064538,
-.02132,.063976,
-.021611,.063355,
-.021789,.062693,
-.02185,.06201,
-.02185,-.06201,
-.021789,-.062693,
-.021611,-.063356,
-.02132,-.063977,
-.020926,-.064538,
-.02044,-.065023,
-.019878,-.065415,
-.019256,-.065704,
-.018593,-.065881,
-.01791,-.06594,
.01791,-.06594,
.018593,-.065881,
.019256,-.065704,
.019878,-.065415,
.020441,-.065022,
.020926,-.064538,
.02132,-.063976,
.021611,-.063355,
.021789,-.062693,
.02185,-.06201,
0.0*
%
%ADD15MACRO15*%
%AMMACRO11*
4,1,44,-.01181,-.02067,
.01181,-.02067,
.012494,-.020611,
.013157,-.020433,
.013779,-.020143,
.014342,-.01975,
.014827,-.019265,
.015221,-.018703,
.015512,-.018081,
.01569,-.017418,
.01575,-.016734,
.01575,-.01673,
.01575,.01673,
.015691,.017414,
.015513,.018077,
.015223,.018699,
.01483,.019262,
.014345,.019747,
.013783,.020141,
.013161,.020432,
.012498,.02061,
.011814,.02067,
.01181,.02067,
-.01181,.02067,
-.012494,.020611,
-.013157,.020433,
-.013779,.020143,
-.014342,.01975,
-.014827,.019265,
-.015221,.018703,
-.015512,.018081,
-.01569,.017418,
-.01575,.016734,
-.01575,.01673,
-.01575,-.01673,
-.015691,-.017414,
-.015513,-.018077,
-.015223,-.018699,
-.01483,-.019262,
-.014345,-.019747,
-.013783,-.020141,
-.013161,-.020432,
-.012498,-.02061,
-.011814,-.02067,
-.01181,-.02067,
0.0*
%
%ADD11MACRO11*%
%ADD38R,.04528X.06496*%
%AMMACRO43*
4,1,40,-.02008,-.02894,
.02008,-.02894,
.020764,-.02888,
.021428,-.028702,
.02205,-.028412,
.022613,-.028018,
.023098,-.027533,
.023492,-.02697,
.023782,-.026348,
.02396,-.025684,
.02402,-.025,
.02402,.025,
.02396,.025684,
.023782,.026348,
.023492,.02697,
.023098,.027533,
.022613,.028018,
.02205,.028412,
.021428,.028702,
.020764,.02888,
.02008,.02894,
-.02008,.02894,
-.020764,.02888,
-.021428,.028702,
-.02205,.028412,
-.022613,.028018,
-.023098,.027533,
-.023492,.02697,
-.023782,.026348,
-.02396,.025684,
-.02402,.025,
-.02402,-.025,
-.02396,-.025684,
-.023782,-.026348,
-.023492,-.02697,
-.023098,-.027533,
-.022613,-.028018,
-.02205,-.028412,
-.021428,-.028702,
-.020764,-.02888,
-.02008,-.02894,
0.0*
%
%ADD43MACRO43*%
%AMMACRO39*
4,1,44,-.02067,-.01772,
.02067,-.01772,
.021354,-.01766,
.022017,-.017483,
.02264,-.017193,
.023202,-.016799,
.023688,-.016313,
.024082,-.015751,
.024372,-.015129,
.02455,-.014465,
.02461,-.013781,
.02461,-.01378,
.02461,.01378,
.02455,.014464,
.024373,.015127,
.024083,.01575,
.023689,.016312,
.023203,.016798,
.022641,.017192,
.022019,.017482,
.021355,.01766,
.020671,.01772,
.02067,.01772,
-.02067,.01772,
-.021354,.01766,
-.022017,.017483,
-.02264,.017193,
-.023202,.016799,
-.023688,.016313,
-.024082,.015751,
-.024372,.015129,
-.02455,.014465,
-.02461,.013781,
-.02461,.01378,
-.02461,-.01378,
-.02455,-.014464,
-.024373,-.015127,
-.024083,-.01575,
-.023689,-.016312,
-.023203,-.016798,
-.022641,-.017192,
-.022019,-.017482,
-.021355,-.01766,
-.020671,-.01772,
-.02067,-.01772,
0.0*
%
%ADD39MACRO39*%
%ADD31R,.04528X.07677*%
%ADD28R,.05799X.01098*%
%ADD30R,.01098X.05799*%
%LPD*%
G75*
G54D10*
X7865Y242795D03*
Y253622D03*
Y263071D03*
Y273898D03*
G54D11*
X7750Y281700D03*
X12750Y333000D03*
Y339000D03*
X14050Y281700D03*
X19050Y333000D03*
Y339000D03*
X29750Y268100D03*
Y275800D03*
Y281600D03*
X36050Y268100D03*
Y275800D03*
Y281600D03*
X140050Y89200D03*
X146350D03*
X151250D03*
X157550D03*
X163250Y252900D03*
X169550D03*
X193250Y197000D03*
X199550D03*
X301150Y291300D03*
X307450D03*
X312850Y228600D03*
X319150D03*
X321750Y273800D03*
X328050D03*
X348850Y334200D03*
X352850Y340200D03*
X355150Y334200D03*
X359150Y340200D03*
X366250Y289600D03*
X372550D03*
X373850Y301800D03*
X373750Y307600D03*
X375550Y316000D03*
Y322200D03*
X380150Y301800D03*
X380050Y307600D03*
X381850Y316000D03*
Y322200D03*
G54D20*
X24494Y333100D03*
Y338800D03*
X31306Y333100D03*
Y338800D03*
X36894Y289600D03*
X36794Y339000D03*
X43706Y289600D03*
X43606Y339000D03*
X226194Y363600D03*
X233006D03*
X321894Y334200D03*
X324594Y287500D03*
X328706Y334200D03*
X331406Y287500D03*
X333294Y340900D03*
X340106D03*
X354394Y295900D03*
X361206D03*
X366194D03*
X373006D03*
G54D30*
X82500Y201100D03*
X80600D03*
Y285500D03*
X82500D03*
X84500Y201100D03*
Y285500D03*
X88400Y201100D03*
X86500D03*
Y285500D03*
X88400D03*
X90400Y201100D03*
Y285500D03*
X94300Y201100D03*
X92400D03*
Y285500D03*
X94300D03*
X96300Y201100D03*
Y285500D03*
X100200Y201100D03*
X98300D03*
Y285500D03*
X100200D03*
X102200Y201100D03*
Y285500D03*
X104200Y201100D03*
Y285500D03*
X108100Y201100D03*
X106100D03*
Y285500D03*
X108100D03*
X110100Y201100D03*
Y285500D03*
X114000Y201100D03*
X112000D03*
Y285500D03*
X114000D03*
X116000Y201100D03*
Y285500D03*
X119900Y201100D03*
X118000D03*
Y285500D03*
X119900D03*
X121900Y201100D03*
Y285500D03*
X125800Y201100D03*
X123900D03*
Y285500D03*
X125800D03*
X127800Y201100D03*
Y285500D03*
X129800Y201100D03*
Y285500D03*
X133700Y201100D03*
X131700D03*
Y285500D03*
X133700D03*
X135700Y201100D03*
Y285500D03*
X139600Y201100D03*
X137600D03*
Y285500D03*
X139600D03*
X141600Y201100D03*
Y285500D03*
X145500Y201100D03*
X143500D03*
Y285500D03*
X145500D03*
X147500Y201100D03*
Y285500D03*
X149400Y201100D03*
Y285500D03*
G54D12*
X9030Y179594D03*
Y186406D03*
X14700Y179594D03*
Y186406D03*
X32590Y179794D03*
Y186606D03*
X84000Y316694D03*
Y323506D03*
X212400Y207094D03*
Y213906D03*
Y224194D03*
Y231006D03*
X222960Y151694D03*
Y158506D03*
X228630Y151694D03*
Y158506D03*
X234300Y151694D03*
Y158506D03*
X240030Y151694D03*
Y158506D03*
X245700Y151694D03*
Y158506D03*
X251370Y151694D03*
Y158506D03*
X253400Y171994D03*
Y178806D03*
X293400Y263294D03*
Y270106D03*
X339900Y236194D03*
Y243006D03*
X339800Y247494D03*
Y254306D03*
G54D21*
X23350Y358400D03*
X29650D03*
X37050Y333000D03*
X43350D03*
X60150Y241800D03*
Y247900D03*
X66450Y241800D03*
Y247900D03*
X104650Y29800D03*
X110950D03*
X203550Y189900D03*
X209850D03*
X301250Y309900D03*
X301350Y315900D03*
X301250Y321900D03*
X307550Y309900D03*
X307650Y315900D03*
X307550Y321900D03*
X321250Y362300D03*
X326950Y230600D03*
X327550Y362300D03*
X328850Y304100D03*
X333250Y230600D03*
X334650Y298100D03*
X335150Y304100D03*
X338950Y291800D03*
X340950Y298100D03*
X345250Y291800D03*
X363650Y332400D03*
X364150Y338600D03*
X369950Y332400D03*
X370450Y338600D03*
G54D31*
X147179Y298600D03*
X157021D03*
G54D13*
X7994Y289200D03*
X14806D03*
X25494Y289500D03*
X29494Y256741D03*
Y262411D03*
X32306Y289500D03*
X36306Y256741D03*
Y262411D03*
X59794Y234600D03*
X60494Y287100D03*
X66606Y234600D03*
X67306Y287100D03*
X170394Y39500D03*
Y45170D03*
Y50840D03*
Y56510D03*
Y62180D03*
Y67850D03*
Y73520D03*
Y79190D03*
X171094Y97880D03*
Y103550D03*
Y109220D03*
Y114890D03*
Y120560D03*
Y126230D03*
Y131900D03*
Y137570D03*
X177206Y39500D03*
Y45170D03*
Y50840D03*
Y56510D03*
Y62180D03*
Y67850D03*
Y73520D03*
Y79190D03*
X177906Y97880D03*
Y103550D03*
Y109220D03*
Y114890D03*
Y120560D03*
Y126230D03*
Y131900D03*
Y137570D03*
X205294Y197000D03*
X211694Y370100D03*
X212106Y197000D03*
X218506Y370100D03*
X297294Y177000D03*
X301594Y262030D03*
Y267900D03*
X304106Y177000D03*
X308406Y262030D03*
Y267900D03*
X321494Y262030D03*
Y267900D03*
X321794Y340800D03*
X328306Y262030D03*
Y267900D03*
X328606Y340800D03*
G54D22*
X26920Y179794D03*
Y186606D03*
X38260Y179794D03*
Y186606D03*
X43930Y179794D03*
Y186606D03*
X49600Y179794D03*
Y186606D03*
X55270Y179794D03*
Y186606D03*
X60940Y179794D03*
Y186606D03*
X66610Y179794D03*
Y186606D03*
X72280Y179794D03*
Y186606D03*
X77950Y179794D03*
Y186606D03*
X83620Y179794D03*
Y186606D03*
X89290Y179794D03*
Y186606D03*
X94960Y179794D03*
Y186606D03*
X100630Y179794D03*
Y186606D03*
X106300Y179794D03*
Y186606D03*
X111970Y179794D03*
Y186606D03*
X117640Y179794D03*
Y186606D03*
X123310Y179794D03*
Y186606D03*
X128980Y179794D03*
Y186606D03*
X170100Y257994D03*
Y264806D03*
X177700Y280494D03*
Y287306D03*
X212300Y257094D03*
Y263906D03*
X297300Y296494D03*
Y303306D03*
X301300Y279094D03*
Y285906D03*
X306970Y279094D03*
Y285906D03*
G54D40*
X261465Y188989D03*
Y190564D03*
Y192139D03*
Y193713D03*
Y195288D03*
Y196863D03*
Y198438D03*
Y200013D03*
Y201587D03*
Y203162D03*
Y204737D03*
Y206312D03*
Y207887D03*
Y209461D03*
Y211036D03*
Y212611D03*
G54D23*
X45600Y347802D03*
Y360400D03*
G54D14*
X12500Y344550D03*
Y350850D03*
X43800Y276250D03*
Y282550D03*
X63800Y298350D03*
Y304650D03*
X167200Y269350D03*
Y275650D03*
X173100Y269350D03*
Y275650D03*
X179400Y269350D03*
Y275650D03*
X212300Y237150D03*
Y243450D03*
G54D32*
X162292Y197308D03*
X167108Y192492D03*
X242892Y189108D03*
X247708Y184292D03*
G54D41*
X266189Y184265D03*
X269339D03*
X267764D03*
X272488D03*
X270913D03*
X275638D03*
X274063D03*
X278787D03*
X277213D03*
X280362D03*
X283512D03*
X281937D03*
X286661D03*
X285087D03*
X289811D03*
X288236D03*
G54D15*
X15740Y307000D03*
X340540Y315000D03*
G54D24*
X43260Y297945D03*
Y307000D03*
Y316055D03*
X368060Y305945D03*
Y315000D03*
Y324055D03*
G54D42*
X266189Y217335D03*
X267764D03*
X269339D03*
X270913D03*
X272488D03*
X274063D03*
X275638D03*
X277213D03*
X278787D03*
X280362D03*
X281937D03*
X283512D03*
X285087D03*
X286661D03*
X288236D03*
X289811D03*
G54D33*
X194000Y207100D03*
Y217100D03*
Y227100D03*
Y237100D03*
Y247100D03*
Y257100D03*
X204000Y207100D03*
Y217100D03*
Y227100D03*
Y237100D03*
Y247100D03*
Y257100D03*
Y267100D03*
X348300Y79900D03*
Y89900D03*
Y99900D03*
Y109900D03*
Y119900D03*
Y129900D03*
Y139900D03*
Y149900D03*
Y159900D03*
Y169900D03*
Y179900D03*
Y189900D03*
Y199900D03*
Y209900D03*
X348200Y232200D03*
Y242200D03*
Y252200D03*
Y262200D03*
X358300Y79900D03*
Y89900D03*
Y99900D03*
Y109900D03*
Y119900D03*
Y129900D03*
Y139900D03*
Y149900D03*
Y159900D03*
Y169900D03*
Y179900D03*
Y189900D03*
Y199900D03*
Y209900D03*
Y219900D03*
X358200Y232200D03*
Y242200D03*
Y252200D03*
Y262200D03*
Y272200D03*
X370500Y80100D03*
Y90100D03*
Y100100D03*
Y110100D03*
Y120100D03*
Y130100D03*
Y140100D03*
Y150100D03*
Y160100D03*
Y170100D03*
Y180100D03*
Y190100D03*
Y200100D03*
Y210100D03*
Y220100D03*
Y230100D03*
Y240100D03*
Y250100D03*
Y260100D03*
X380500Y80100D03*
Y90100D03*
Y100100D03*
Y110100D03*
Y120100D03*
Y130100D03*
Y140100D03*
Y150100D03*
Y160100D03*
Y170100D03*
Y180100D03*
Y190100D03*
Y200100D03*
Y210100D03*
Y220100D03*
Y230100D03*
Y240100D03*
Y250100D03*
Y260100D03*
Y270100D03*
G54D43*
X270706Y162820D03*
Y172780D03*
X278894Y162820D03*
Y172780D03*
G54D25*
X47760Y255569D03*
Y264231D03*
X51500Y255569D03*
Y264231D03*
X55240Y255569D03*
Y264231D03*
G54D34*
X194000Y267100D03*
X348300Y219900D03*
X348200Y272200D03*
X370500Y270100D03*
G54D16*
X15683Y325100D03*
X26117D03*
X41183D03*
X51617D03*
G54D26*
X56800Y75350D03*
Y81650D03*
X59300Y345150D03*
Y351450D03*
X65700Y345150D03*
Y351450D03*
X69900Y311050D03*
Y317350D03*
X104100Y292950D03*
Y299250D03*
X116600Y293450D03*
Y299750D03*
X132000Y293550D03*
Y299850D03*
X139600Y150650D03*
Y156950D03*
X145900Y150750D03*
Y157050D03*
X167300Y239050D03*
Y245350D03*
X299000Y340450D03*
Y346750D03*
X302400Y222250D03*
Y228550D03*
X305100Y340450D03*
Y346750D03*
X310700Y327750D03*
Y334050D03*
X310900Y340350D03*
Y346650D03*
X313600Y262050D03*
Y268350D03*
X316800Y326050D03*
Y332350D03*
X319600Y216850D03*
Y223150D03*
X362500Y345950D03*
Y352250D03*
X369300Y345850D03*
Y352150D03*
G54D35*
X190033Y284163D03*
Y307785D03*
X204600Y284163D03*
Y307785D03*
G54D44*
X278000Y200800D03*
G54D17*
X18900Y42700D03*
Y384800D03*
X374800Y42700D03*
Y384800D03*
G54D27*
X64155Y37431D03*
Y81369D03*
X64055Y96931D03*
Y140869D03*
X67305Y37431D03*
Y81369D03*
X67205Y96931D03*
Y140869D03*
X70454Y37431D03*
Y81369D03*
X70354Y96931D03*
Y140869D03*
X73604Y37431D03*
Y81369D03*
X73504Y96931D03*
Y140869D03*
X76754Y37431D03*
Y81369D03*
X76654Y96931D03*
Y140869D03*
X79903Y37431D03*
Y81369D03*
X79803Y96931D03*
Y140869D03*
X83053Y37431D03*
Y81369D03*
X82953Y96931D03*
Y140869D03*
X86202Y37431D03*
Y81369D03*
X86102Y96931D03*
Y140869D03*
X89352Y37431D03*
Y81369D03*
X89252Y96931D03*
Y140869D03*
X92502Y37431D03*
Y81369D03*
X92402Y96931D03*
Y140869D03*
X95651Y37431D03*
Y81369D03*
X95551Y96931D03*
Y140869D03*
X98801Y37431D03*
Y81369D03*
X98701Y96931D03*
Y140869D03*
X101950Y37431D03*
Y81369D03*
X101850Y96931D03*
Y140869D03*
X105100Y37431D03*
Y81369D03*
X105000Y96931D03*
Y140869D03*
X108250Y37431D03*
Y81369D03*
X108150Y96931D03*
Y140869D03*
X111399Y37431D03*
Y81369D03*
X111299Y96931D03*
Y140869D03*
X114549Y37431D03*
Y81369D03*
X114449Y96931D03*
Y140869D03*
X117698Y37431D03*
Y81369D03*
X117598Y96931D03*
Y140869D03*
X120848Y37431D03*
Y81369D03*
X120748Y96931D03*
Y140869D03*
X123998Y37431D03*
Y81369D03*
X123898Y96931D03*
Y140869D03*
X127147Y37431D03*
Y81369D03*
X127047Y96931D03*
Y140869D03*
X130297Y37431D03*
Y81369D03*
X130197Y96931D03*
Y140869D03*
X133446Y37431D03*
Y81369D03*
X133346Y96931D03*
Y140869D03*
X136596Y37431D03*
Y81369D03*
X136496Y96931D03*
Y140869D03*
X139746Y37431D03*
Y81369D03*
X139646Y96931D03*
Y140869D03*
X142895Y37431D03*
Y81369D03*
X142795Y96931D03*
Y140869D03*
X146045Y37431D03*
Y81369D03*
X145945Y96931D03*
Y140869D03*
G54D18*
X18396Y253228D03*
Y255787D03*
Y258346D03*
Y260906D03*
Y263465D03*
G54D45*
X294535Y190564D03*
Y188989D03*
Y193713D03*
Y192139D03*
Y195288D03*
Y198438D03*
Y196863D03*
Y201587D03*
Y200013D03*
Y204737D03*
Y203162D03*
Y207887D03*
Y206312D03*
Y209461D03*
Y212611D03*
Y211036D03*
G54D36*
X213043Y363600D03*
X218357D03*
G54D28*
X72800Y208900D03*
Y210800D03*
Y212800D03*
Y214800D03*
Y216700D03*
Y218700D03*
Y220700D03*
Y222600D03*
Y224600D03*
Y226600D03*
Y228500D03*
Y230500D03*
Y232500D03*
Y234400D03*
Y236400D03*
Y238400D03*
Y240300D03*
Y242300D03*
Y244300D03*
Y246300D03*
Y248200D03*
Y250200D03*
Y252200D03*
Y254100D03*
Y256100D03*
Y258100D03*
Y262000D03*
Y260000D03*
Y264000D03*
Y265900D03*
Y267900D03*
Y269900D03*
Y271800D03*
Y273800D03*
Y275800D03*
Y277700D03*
X157200Y210800D03*
Y208900D03*
Y212800D03*
Y214800D03*
Y218700D03*
Y216700D03*
Y220700D03*
Y224600D03*
Y222600D03*
Y226600D03*
Y230500D03*
Y228500D03*
Y232500D03*
Y236400D03*
Y234400D03*
Y238400D03*
Y240300D03*
Y244300D03*
Y242300D03*
Y246300D03*
Y250200D03*
Y248200D03*
Y252200D03*
Y256100D03*
Y254100D03*
Y258100D03*
Y260000D03*
Y262000D03*
Y264000D03*
Y265900D03*
Y269900D03*
Y267900D03*
Y271800D03*
Y275800D03*
Y273800D03*
Y277700D03*
G54D37*
X221162Y52446D03*
X333170D03*
G54D19*
X19000Y345120D03*
Y348860D03*
Y352600D03*
X29630Y345120D03*
Y348860D03*
Y352600D03*
X319400Y346620D03*
Y350360D03*
Y354100D03*
X330030Y346620D03*
Y350360D03*
Y354100D03*
G54D46*
X303789Y237300D03*
Y242300D03*
Y247300D03*
Y252300D03*
X322411Y237300D03*
Y242300D03*
Y247300D03*
Y252300D03*
G54D38*
X222737Y139848D03*
X235926D03*
X242619D03*
X252186D03*
X261674D03*
X271871D03*
X278564D03*
X285060D03*
X291556D03*
X301398D03*
X311241D03*
G54D47*
X312800Y279100D03*
Y288549D03*
X316540Y279100D03*
X320280D03*
Y288549D03*
G54D29*
X77900Y317443D03*
Y322757D03*
G54D39*
X226943Y370100D03*
X232257D03*
G54D48*
X332973Y220227D03*
X337427Y215773D03*
X349273Y285727D03*
X353727Y281273D03*
X354473Y289227D03*
X358927Y284773D03*
G54D49*
X341300Y355500D03*
X353898D03*
M02*
